# .PCD v0.7 - Point Cloud Data file format
VERSION 0.7
FIELDS x y z rgb
SIZE 4 4 4 4
TYPE F F F F
COUNT 1 1 1 1
WIDTH 500
HEIGHT 1
VIEWPOINT 0 0 0 1 0 0 0
POINTS 500
DATA ascii
2.728923082 -0.02049462683 0 9.772736766e-39
2.717413425 -0.05646147951 0 1.216982314e-38
2.702433586 -0.09202455729 0 1.244641003e-38
2.685992002 -0.127151683 0 1.253860566e-38
2.670094967 -0.161920771 0 1.272299692e-38
2.656742096 -0.196511969 0 1.272299692e-38
2.645932198 -0.2310372293 0 1.272299692e-38
2.642634869 -0.2661132812 0 1.226201877e-38
2.65079546 -0.3025030792 0 9.496149876e-39
0 -0 0 0
0 -0 0 0
0.8472680449 -0.1414848864 0 1.438251826e-38
0 -0 0 0
0.8395180702 -0.1510577351 0 1.991425605e-38
0.832644105 -0.1606481671 0 2.111279924e-38
0.8286008239 -0.1706947535 0 2.185036428e-38
0.8234599829 -0.18045111 0 2.231134243e-38
0.8211274743 -0.1907842457 0 2.249573369e-38
0.8206074834 -0.201564759 0 2.240353806e-38
0.8238181472 -0.2133651227 0 2.231134243e-38
0.8278257847 -0.2255402356 0 2.166597302e-38
0.8345407844 -0.2386748046 0 1.963766916e-38
0.8439286351 -0.2528744042 0 1.336836633e-38
6.46401453 -2.025733948 0 6.45369409e-39
6.451646328 -2.061500549 0 6.361498461e-39
6.443632126 -2.147293091 0 5.808324681e-39
6.994695663 -2.427643061 0 4.333194604e-39
10.29374123 -3.71618557 0 4.701977123e-39
10.23753929 -3.839940548 0 2.950260156e-39
0 -0 0 0
0 -0 0 0
0 -0 0 0
0 -0 0 0
0 -0 0 0
0 -0 0 0
0 -0 0 0
0 -0 0 0
0 -0 0 0
0 -0 0 0
0 -0 0 0
0 -0 0 0
0 -0 0 0
0 -0 0 0
0 -0 0 0
0 -0 0 0
0 -0 0 0
0 -0 0 0
0 -0 0 0
0 -0 0 0
0 -0 0 0
0 -0 0 0
0 -0 0 0
0 -0 0 0
0 -0 0 0
7.118731022 -5.901751518 0 2.581477636e-39
7.058768749 -6.001167774 0 6.084911571e-39
4.120212555 -3.591796637 0 3.687825195e-39
3.695884705 -3.303374529 0 4.148803344e-39
3.665727377 -3.359051943 0 8.666389207e-39
3.631840229 -3.411748171 0 9.219562986e-39
3.592628717 -3.464549303 0 9.219562986e-39
0 -0 0 0
0 -0 0 0
0 -0 0 0
0 -0 0 0
0 -0 0 0
0 -0 0 0
1.191397071 -1.370557904 0 9.035171727e-39
1.182484865 -1.395338774 0 1.613423523e-38
1.169953108 -1.416255116 0 1.816253908e-38
1.155199528 -1.434739828 0 1.825473471e-38
1.141400099 -1.454649925 0 1.843912597e-38
1.125571728 -1.477002859 0 1.714838715e-38
0.6091947556 -0.8205885887 0 7.467846019e-39
0.5871164799 -0.8119718432 0 1.465910515e-38
0.5647767186 -0.8021149039 0 1.594984397e-38
0.5422138572 -0.7910026312 0 1.613423523e-38
0.5194667578 -0.7786207199 0 1.641082212e-38
0.4976626933 -0.7666341066 0 1.668740901e-38
0.4767776728 -0.7550708652 0 1.687180026e-38
0.4578337073 -0.7456629872 0 1.714838715e-38
0.4386904538 -0.735041976 0 1.733277841e-38
0.4203892648 -0.7249253988 0 1.76093653e-38
0.4033948779 -0.7162098885 0 1.788595219e-38
0.3866864443 -0.7071842551 0 1.816253908e-38
0.3723066151 -0.6990363002 0 1.843912597e-38
0.3581528664 -0.690659523 0 1.862351723e-38
0.3437788486 -0.6811645031 0 1.890010412e-38
0.330098182 -0.6723363996 0 1.899229975e-38
0.3170850873 -0.664193511 0 1.917669101e-38
0.3051334023 -0.6576614976 0 1.936108227e-38
0.292953372 -0.6500363946 0 1.954547353e-38
0.2805773318 -0.6413083076 0 1.982206042e-38
0.2692111135 -0.6342289448 0 2.000645168e-38
0.2587958574 -0.6288280487 0 2.028303857e-38
0.2370214015 -0.618113935 0 2.074401672e-38
0.2485326082 -0.6232756972 0 2.046742983e-38
0.2253196836 -0.6107635498 0 2.111279924e-38
0.2141787708 -0.6041592956 0 2.12971905e-38
0.2035650909 -0.598318696 0 2.12971905e-38
0.1934454739 -0.5932578444 0 2.138938613e-38
0.1834885329 -0.5880373716 0 2.148158176e-38
0.1739818305 -0.5836191773 0 2.166597302e-38
0.1643443406 -0.5780934095 0 2.166597302e-38
0.1548765451 -0.5724179149 0 2.185036428e-38
0.1458289623 -0.5675649047 0 2.185036428e-38
0.1369304657 -0.5625753999 0 2.185036428e-38
0.1281833202 -0.5574523211 0 2.185036428e-38
0.1164067015 -0.5528783798 0 2.175816865e-38
0.1081894413 -0.547411263 0 2.166597302e-38
0.1001257449 -0.5418263674 0 2.157377739e-38
0.09238705039 -0.5371122956 0 2.157377739e-38
0.08478044719 -0.5322905779 0 2.166597302e-38
0.07730793208 -0.5273637176 0 2.175816865e-38
0.07010319829 -0.5233254433 0 2.166597302e-38
0.06301051378 -0.5191904306 0 2.175816865e-38
0.05603141338 -0.5149606466 0 2.194255991e-38
0.04916689545 -0.5106384158 0 2.212695117e-38
0.04241792858 -0.5062259436 0 2.231134243e-38
0.03599960729 -0.5047177672 0 2.231134243e-38
0.02880770154 -0.5011727214 0 2.249573369e-38
0.02232822962 -0.4974991679 0 2.258792932e-38
0.01594589464 -0.4937425554 0 2.268012495e-38
0.009661283344 -0.4899047613 0 2.277232058e-38
0.003483039327 -0.4869875312 0 2.277232058e-38
-0.002598934807 -0.4799929559 0 2.277232058e-38
-0.008594473824 -0.4779227078 0 2.286451621e-38
-0.01447708812 -0.4737788737 0 2.295671184e-38
-0.02025716007 -0.4695632458 0 2.304890747e-38
-0.02598902769 -0.466276288 0 2.31411031e-38
-0.0316417329 -0.4629198611 0 2.31411031e-38
-0.03721421584 -0.4594954848 0 2.31411031e-38
-0.04342165217 -0.4559370279 0 2.304890747e-38
-0.04874676093 -0.4523812234 0 2.304890747e-38
-0.05410969257 -0.4497567713 0 2.286451621e-38
-0.05928357691 -0.4460778534 0 2.268012495e-38
-0.06451845914 -0.4433298707 0 2.268012495e-38
-0.07464257628 -0.4366663098 0 2.304890747e-38
-0.06953833252 -0.439533174 0 2.286451621e-38
-0.07968630642 -0.4337408245 0 2.31411031e-38
-0.08466903865 -0.4307576716 0 2.304890747e-38
-0.08959054947 -0.4277178049 0 2.31411031e-38
-0.09444937855 -0.4246225357 0 2.323329873e-38
-0.09947452694 -0.4224462211 0 2.286451621e-38
-0.1054586172 -0.4220230877 0 2.286451621e-38
-0.1132695675 -0.4293087721 0 2.111279924e-38
-0 -0 0 0
-0 -0 0 0
-0 -0 0 0
-0.2342160493 -0.7303642035 0 5.255150902e-39
-0.2364467829 -0.7054282427 0 1.438251826e-38
-0.2433487475 -0.6956654191 0 2.03752342e-38
-0.2520914674 -0.6914809346 0 2.074401672e-38
-0.2611212134 -0.6881218553 0 2.120499487e-38
-0.2708398104 -0.6865054369 0 2.138938613e-38
-0.2813193798 -0.6866027713 0 2.12971905e-38
-0.2941347361 -0.6899164915 0 2.102060361e-38
-0.3058897853 -0.6935383677 0 2.065182109e-38
-0.3194387257 -0.7006132007 0 2.000645168e-38
-0.3417308033 -0.72555089 0 2.03752342e-38
-0.3590036333 -0.7383477092 0 2.231134243e-38
-0.3712638319 -0.7400994301 0 2.332549436e-38
-0.3808658719 -0.7363302112 0 2.277232058e-38
-0.3909014463 -0.7333191633 0 2.22191468e-38
-0.4038089514 -0.7354314327 0 2.148158176e-38
-0.4227333069 -0.7477817535 0 1.429032263e-38
-0 -0 0 0
-0 -0 0 0
-1.489598751 -2.420342922 0 5.808324681e-39
-1.521152735 -2.400636911 0 8.850780467e-39
-1.552445173 -2.380520582 0 9.127367356e-39
-1.582915425 -2.359165192 0 9.311758616e-39
-1.613660693 -2.338243008 0 9.403954246e-39
-1.643549562 -2.316105366 0 9.403954246e-39
-1.673725963 -2.294393301 0 9.311758616e-39
-1.703015924 -2.271487951 0 9.311758616e-39
-1.732602119 -2.249002218 0 9.219562986e-39
-1.761892676 -2.226130009 0 9.219562986e-39
-1.790881157 -2.202876806 0 9.219562986e-39
-1.820202708 -2.180014133 0 9.219562986e-39
-1.849334955 -2.15535593 0 9.219562986e-39
-1.876477242 -2.134431124 0 9.127367356e-39
-1.904052973 -2.113908291 0 9.035171727e-39
-1.931406498 -2.093029737 0 9.035171727e-39
-1.959219098 -2.072526217 0 8.942976097e-39
-1.988904834 -2.053810596 0 9.035171727e-39
-2.014902115 -2.031130314 0 9.035171727e-39
-2.044205189 -2.011628389 0 9.035171727e-39
-2.069724083 -1.988250732 0 8.942976097e-39
-2.099353313 -1.968654275 0 9.035171727e-39
-2.127334356 -1.94728148 0 8.942976097e-39
-2.187154531 -1.901252031 0 8.942976097e-39
-2.155104399 -1.925519586 0 8.942976097e-39
-2.216648579 -1.879176497 0 8.850780467e-39
-2.246700287 -1.857299685 0 8.850780467e-39
-2.276550293 -1.834964633 0 8.850780467e-39
-2.306975842 -1.812792897 0 8.850780467e-39
-2.337995052 -1.790754914 0 8.850780467e-39
-2.368018866 -1.76762867 0 8.942976097e-39
-2.397828102 -1.744031072 0 8.942976097e-39
-2.428230286 -1.720544696 0 8.942976097e-39
-2.459240675 -1.697138429 0 8.942976097e-39
-2.490872145 -1.67378509 0 8.758584837e-39
-2.522300959 -1.649907351 0 8.574193577e-39
-2.556630373 -1.622475266 0 6.82247661e-39
-0 -0 0 0
-2.619677067 -1.567833304 0 5.992715941e-39
-2.651216507 -1.539937496 0 8.666389207e-39
-2.680729628 -1.510502219 0 8.574193577e-39
-2.710802555 -1.481036782 0 8.481997947e-39
-0 -0 0 0
-0 -0 0 0
-1.382981181 -0.686512351 0 6.63808535e-39
-1.384637117 -0.6648880243 0 1.226201877e-38
-1.391407609 -0.6458644271 0 1.429032263e-38
-1.398830056 -0.6271871328 0 1.401373574e-38
-1.415820122 -0.610915482 0 1.373714885e-38
-1.437126756 -0.5990957022 0 1.309177944e-38
-1.464849472 -0.5894547701 0 1.216982314e-38
-1.511196494 -0.5864524245 0 1.041810617e-38
-1.900509953 -0.7105653286 0 9.035171727e-39
-1.957157016 -0.7042272091 0 1.161664936e-38
-1.970458508 -0.6815559268 0 1.161664936e-38
-1.985396028 -0.6592922807 0 1.161664936e-38
-0 -0 0 0
-2.006753445 -0.6388872266 0 8.574193577e-39
-2.542365551 -0.6693413854 0 6.45369409e-39
-2.478017092 -0.7217983603 0 4.701977123e-39
-2.500259638 -0.6947855949 0 7.00686787e-39
-1.591008782 -0.397857964 0 4.333194604e-39
-1.581220746 -0.3746544719 0 1.124786684e-38
-1.578911185 -0.3535023034 0 1.336836633e-38
-1.582191706 -0.3337040842 0 1.392154011e-38
-1.587186337 -0.3142666221 0 1.392154011e-38
-1.598824978 -0.2960317433 0 1.382934448e-38
-1.612225294 -0.2778954506 0 1.346056196e-38
-1.628382444 -0.2599459291 0 1.263080129e-38
-1.661159754 -0.2441091985 0 1.023371491e-38
-3.961427212 -0.5320742726 0 5.255150902e-39
-4.001467228 -0.4870545566 0 6.54588972e-39
-4.056900024 -0.4428578615 0 6.91467224e-39
-4.112839699 -0.3974585533 0 6.63808535e-39
-1.419981837 -0.119484745 0 4.794172753e-39
-1.384448051 -0.09923458099 0 1.060249743e-38
-1.37159586 -0.08124377578 0 1.401373574e-38
-1.37249732 -0.06424141675 0 1.521227893e-38
-1.384181619 -0.04760731012 0 1.475130078e-38
-1.402660847 -0.030847352 0 1.290738818e-38
-1.426934242 -0.01369424351 0 1.124786684e-38
-1.459994316 0.004080887418 0 1.023371491e-38
-1.4988271 0.0227647014 0 9.496149876e-39
-0.8026946187 0.02214311436 0 6.73028098e-39
-0.7833122015 0.03283238783 0 1.641082212e-38
-0.7748643756 0.04196700081 0 1.862351723e-38
-0.7722982168 0.05129781365 0 1.982206042e-38
-0.7686231136 0.06049393862 0 2.03752342e-38
-0.766830802 0.06978903711 0 2.074401672e-38
-0.7659209371 0.0791521892 0 2.083621235e-38
-0.7648968101 0.08850351721 0 2.074401672e-38
-0.7637584805 0.09784146398 0 2.028303857e-38
-0.7625061274 0.1071651578 0 2.000645168e-38
-0.6138544679 0.09393446892 0 2.019084294e-38
-0.5988490582 0.0991403088 0 2.009864731e-38
-0.5813583136 0.1117430478 0 2.120499487e-38
-0.5877481103 0.1046953425 0 2.065182109e-38
-0.5780524015 0.1181330308 0 2.166597302e-38
-0.5746768117 0.1244610548 0 2.194255991e-38
-0.5722073913 0.1309494227 0 2.22191468e-38
-0.5706370473 0.1376314014 0 2.240353806e-38
-0.5709272027 0.1447864771 0 2.240353806e-38
-0.5720942616 0.1522240937 0 2.240353806e-38
-0.5741283298 0.1599771231 0 2.231134243e-38
-0.5798991323 0.1689170152 0 2.22191468e-38
-0.5836248994 0.1774315983 0 2.194255991e-38
-0.5891365409 0.1866603494 0 2.166597302e-38
-0.5973603129 0.1969814748 0 2.138938613e-38
-0 0 0 0
-0 0 0 0
-0 0 0 0
-0 0 0 0
-0 0 0 0
-6.474045753 2.688277245 0 2.120499487e-39
-6.464123726 2.778559685 0 2.673673266e-39
-6.494073391 2.887292624 0 1.936108227e-39
-0 0 0 0
-0 0 0 0
-0.5424079895 0.2657245994 0 1.696399589e-38
-0.5309804678 0.2772375941 0 2.277232058e-38
-0.5372886658 0.2715232372 0 2.22191468e-38
-0.5222204328 0.2809533775 0 2.31411031e-38
-0.5143254399 0.2849794924 0 2.350988562e-38
-0.5064114332 0.2888536751 0 2.350988562e-38
-0.5010684133 0.2940942049 0 2.350988562e-38
-0.4939613342 0.2982133925 0 2.350988562e-38
-0.4868296981 0.3022016883 0 2.350988562e-38
-0.479675442 0.3060595691 0 2.350988562e-38
-0.4725010097 0.3097866774 0 2.350988562e-38
-0.465308249 0.3133835196 0 2.350988562e-38
-0.4580994546 0.3168499172 0 2.350988562e-38
-0.4441108406 0.3244465292 0 2.350988562e-38
-0.4516921043 0.3207651377 0 2.350988562e-38
-0.4376559854 0.328125298 0 2.350988562e-38
-0.4311787188 0.3316940665 0 2.350988562e-38
-0.4246803522 0.3351531029 0 2.350988562e-38
-0.4189402461 0.3391313255 0 2.350988562e-38
-0.4123974741 0.3423803747 0 2.350988562e-38
-0.4066003263 0.346167773 0 2.350988562e-38
-0.4000196457 0.349206686 0 2.350988562e-38
-0.3941714466 0.3528028429 0 2.350988562e-38
-0.3882958591 0.3563079536 0 2.350988562e-38
-0.382393986 0.3597218394 0 2.350988562e-38
-0.3764676154 0.3630442619 0 2.350988562e-38
-0.3700059056 0.3667924106 0 2.350988562e-38
-0.3641586602 0.3697965443 0 2.350988562e-38
-0.3582928479 0.3727133572 0 2.350988562e-38
-0.3524098992 0.3755426407 0 2.350988562e-38
-0.346511066 0.3782844245 0 2.350988562e-38
-0.3412639201 0.3816843629 0 2.350988562e-38
-0.3353277147 0.3842594326 0 2.350988562e-38
-0.3300276101 0.3875084221 0 2.350988562e-38
-0.3240586817 0.3899166584 0 2.350988562e-38
-0.3018702567 0.4023473263 0 2.350988562e-38
-0.3187097311 0.3930140734 0 2.350988562e-38
-0.3133334219 0.3960393369 0 2.350988562e-38
-0.3079304397 0.3989923 0 2.350988562e-38
-0.2962711155 0.4052498043 0 2.350988562e-38
-0.2912268341 0.4088898599 0 2.350988562e-38
-0.2855676115 0.4116456509 0 2.350988562e-38
-0.2798851132 0.414323926 0 2.350988562e-38
-0.2747294307 0.4177603722 0 2.350988562e-38
-0.2695316672 0.4211326241 0 2.350988562e-38
-0.2637639344 0.4235913157 0 2.350988562e-38
-0.2584947646 0.4268272221 0 2.350988562e-38
-0.2526785135 0.429135859 0 2.350988562e-38
-0.2473413646 0.4322339892 0 2.350988562e-38
-0.2419664562 0.4352656901 0 2.350988562e-38
-0.2359420955 0.4385605156 0 2.350988562e-38
-0.2309522927 0.4423370361 0 2.350988562e-38
-0.2254534662 0.4451648593 0 2.350988562e-38
-0.2199197859 0.4479244053 0 2.350988562e-38
-0.214352563 0.4506151378 0 2.350988562e-38
-0.2087522149 0.4532367289 0 2.350988562e-38
-0.2035270035 0.4567020535 0 2.350988562e-38
-0.1978521049 0.4591889977 0 2.350988562e-38
-0.1925312281 0.4625285864 0 2.350988562e-38
-0.1871577948 0.4658067822 0 2.350988562e-38
-0.1813713312 0.4680901766 0 2.350988562e-38
-0.1704812348 0.4753537178 0 2.350988562e-38
-0.1759068668 0.4712385833 0 2.350988562e-38
-0.1648201495 0.4784038961 0 2.350988562e-38
-0.1591093689 0.4813867807 0 2.350988562e-38
-0.1533495039 0.4843015075 0 2.350988562e-38
-0.1478313804 0.4881043732 0 2.350988562e-38
-0.1419639587 0.4908840954 0 2.350988562e-38
-0.1363157481 0.4945574105 0 2.350988562e-38
-0.130597651 0.4981658757 0 2.350988562e-38
-0.1248101667 0.5017085075 0 2.350988562e-38
-0.1189542413 0.5051839948 0 2.350988562e-38
-0.1130305529 0.5085912943 0 2.350988562e-38
-0.1004437432 0.5153018832 0 2.350988562e-38
-0.1070400029 0.5119291544 0 2.350988562e-38
-0.09440902621 0.5184746385 0 2.350988562e-38
-0.08831079304 0.521576643 0 2.350988562e-38
-0.08215039223 0.5246068239 0 2.350988562e-38
-0.07607084513 0.5285538435 0 2.350988562e-38
-0.06977585703 0.5314389467 0 2.350988562e-38
-0.06342075765 0.5342488289 0 2.350988562e-38
-0.05072158203 0.5416302681 0 2.350988562e-38
-0.05711252242 0.5379769206 0 2.350988562e-38
-0.04432945698 0.5462040305 0 2.341768999e-38
-0.03783198074 0.5507020354 0 2.350988562e-38
-0.03139830753 0.5581175089 0 2.350988562e-38
-0.02365894802 0.5645044446 0 2.175816865e-38
-0.04863875732 1.709308147 0 1.309177944e-38
-0.0254680533 1.696808934 0 1.392154011e-38
-0.002642925829 1.683997869 0 1.410593137e-38
0.01984515041 1.671882272 0 1.429032263e-38
0.04203343391 1.660468102 0 1.438251826e-38
0.06391758472 1.648761511 0 1.447471389e-38
0.08544357866 1.635769963 0 1.465910515e-38
0.1066310778 1.622499943 0 1.502788767e-38
0.1275564581 1.609954715 0 1.548886582e-38
0.1481648684 1.59714222 0 1.567325708e-38
0.1888526827 1.576730371 0 1.530447456e-38
0.1687685847 1.58705163 0 1.613423523e-38
0.2071950287 1.565346956 0 1.465910515e-38
0.2252852321 1.553752422 0 1.410593137e-38
0.2432750911 1.542939186 0 1.373714885e-38
0.2610317469 1.531919837 0 1.355275759e-38
0.2787330747 1.521682262 0 1.355275759e-38
0.2962218225 1.511242032 0 1.364495322e-38
0.3136982918 1.501582384 0 1.373714885e-38
0.330981195 1.491722226 0 1.382934448e-38
0.3480689824 1.481665254 0 1.392154011e-38
0.36495772 1.471414924 0 1.410593137e-38
0.3826570809 1.464844704 0 1.4198127e-38
0.401753366 1.45557344 0 1.493569204e-38
0.4186976552 1.448708534 0 1.622643086e-38
0.4364025295 1.444518566 0 1.484349641e-38
0 0 0 0
0 0 0 0
0 0 0 0
0 0 0 0
0 0 0 0
0 0 0 0
2.220021248 5.595704556 0 2.950260156e-39
2.291425705 5.578739166 0 2.028303857e-39
0 0 0 0
0 0 0 0
1.404735208 3.085258484 0 1.751716967e-39
1.435623884 3.052230597 0 1.382934448e-39
1.469403744 3.026111126 0 1.106347558e-39
0 0 0 0
0 0 0 0
0 0 0 0
2.859533787 5.214391232 0 5.623933422e-39
2.920977831 5.173332691 0 1.382934448e-38
2.984359026 5.135874271 0 1.908449538e-38
3.058545113 5.11652422 0 1.060249743e-38
1.400683761 2.153565884 0 1.751716967e-39
0 0 0 0
1.42281723 2.129392385 0 1.475130078e-39
1.448529124 2.110773087 0 1.659521338e-39
1.473997355 2.09184432 0 1.106347558e-39
1.498632789 2.071798325 0 2.489282006e-39
1.523594022 2.052266359 0 8.481997947e-39
1.550120592 2.034819603 0 6.084911571e-39
0 0 0 0
0 0 0 0
0 0 0 0
3.278731823 3.888098955 0 3.042455785e-39
3.333199978 3.854736805 0 3.042455785e-39
3.394666433 3.819468737 0 2.950260156e-39
3.450490236 3.786720037 0 2.858064526e-39
3.504658699 3.751709461 0 2.765868896e-39
3.559177876 3.716660738 0 2.673673266e-39
3.612665176 3.680122137 0 2.028303857e-39
4.373698235 4.346299171 0 1.106347558e-39
4.433683395 4.29803133 0 1.290738818e-39
4.493141174 4.24894619 0 1.382934448e-39
4.551326275 4.198367596 0 7.375650389e-40
4.653552532 4.187129021 0 1.382934448e-39
4.718608379 4.141016483 0 1.475130078e-39
4.831097126 4.134898186 0 1.198543188e-39
0 0 0 0
0 0 0 0
0 0 0 0
0 0 0 0
0 0 0 0
0 0 0 0
0 0 0 0
0 0 0 0
0 0 0 0
0 0 0 0
0 0 0 0
0 0 0 0
0 0 0 0
0 0 0 0
0 0 0 0
0 0 0 0
0 0 0 0
0 0 0 0
0 0 0 0
0 0 0 0
0 0 0 0
0 0 0 0
6.270192146 2.807416201 0 2.950260156e-39
0 0 0 0
6.245767117 2.704076767 0 3.042455785e-39
0 0 0 0
0 0 0 0
0 0 0 0
0 0 0 0
0 0 0 0
0 0 0 0
0.9319621921 0.2965307832 0 2.120499487e-39
0.9126063585 0.277966857 0 1.216982314e-38
0.9054192305 0.2635622025 0 1.890010412e-38
0.9028343558 0.2507171631 0 2.065182109e-38
0.9039382339 0.2389993221 0 2.148158176e-38
0.9052072167 0.2260287702 0 2.185036428e-38
0.9079384804 0.2147946656 0 2.194255991e-38
0.9134582281 0.2041815072 0 2.166597302e-38
0.9237465262 0.1944950968 0 2.083621235e-38
0.9378579259 0.185360387 0 1.890010412e-38
0.9617164731 0.1777226925 0 1.23542144e-38
0 0 0 0
0 0 0 0
0 0 0 0
0 0 0 0
0 0 0 0
0 0 0 0
0 0 0 0
0 0 0 0
0 0 0 0
1.624203205 0.09535708278 0 9.864932395e-39
1.620265484 0.0749925077 0 1.521227893e-38
1.620070934 0.05487560481 0 1.677960464e-38
1.621626258 0.03481710702 0 1.714838715e-38
1.634932637 0.01483825967 0 1.613423523e-38
