# .PCD v0.7 - Point Cloud Data file format
VERSION 0.7
FIELDS x y z rgb
SIZE 4 4 4 4
TYPE F F F F
COUNT 1 1 1 1
WIDTH 500
HEIGHT 1
VIEWPOINT 0 0 0 1 0 0 0
POINTS 500
DATA ascii
1.025973678 -0.007347577251 0 2.028303857e-38
1.023804307 -0.02002149448 0 2.148158176e-38
1.021478534 -0.03264229372 0 2.148158176e-38
1.02199471 -0.04534150288 0 2.138938613e-38
1.02434957 -0.05817240104 0 2.083621235e-38
1.034523726 -0.07162110507 0 1.94532779e-38
1.050500393 -0.08581882715 0 1.631862649e-38
0 -0 0 0
3.716902018 -0.3965879679 0 7.283454759e-39
3.738512754 -0.4458116591 0 8.389802318e-39
3.769384146 -0.4969383776 0 8.758584837e-39
3.803034782 -0.552788496 0 8.481997947e-39
3.837378025 -0.606428206 0 7.928824168e-39
0 -0 0 0
3.912643671 -0.7181251049 0 3.964412084e-39
3.934845209 -0.7727188468 0 7.836628538e-39
3.971949816 -0.831251502 0 6.45369409e-39
0 -0 0 0
0 -0 0 0
0 -0 0 0
4.533439159 -1.185969472 0 1.198543188e-39
4.558893681 -1.253185749 0 5.992715941e-39
4.597784519 -1.325368047 0 7.099063499e-39
4.640073776 -1.408018231 0 7.00686787e-39
4.6917696 -1.49104774 0 6.91467224e-39
4.738279343 -1.574406862 0 5.716129052e-39
0 -0 0 0
7.77244854 -2.810564041 0 1.198543188e-39
7.780850887 -2.92932725 0 2.304890747e-39
0 -0 0 0
7.650555611 -3.111281872 0 2.304890747e-39
0 -0 0 0
0 -0 0 0
0 -0 0 0
0 -0 0 0
0 -0 0 0
0 -0 0 0
0 -0 0 0
0 -0 0 0
0 -0 0 0
0 -0 0 0
2.124593973 -1.24202311 0 8.850780467e-39
2.097458601 -1.262287855 0 1.244641003e-38
2.069304228 -1.281536579 0 1.290738818e-38
2.040157795 -1.299737334 0 1.32761707e-38
2.011721849 -1.317952991 0 1.364495322e-38
1.983984947 -1.336213827 0 1.392154011e-38
1.955401301 -1.355007887 0 1.410593137e-38
1.928683281 -1.372177362 0 1.438251826e-38
1.901839852 -1.388895392 0 1.456690952e-38
1.874881029 -1.405158162 0 1.475130078e-38
1.848605752 -1.421576977 0 1.493569204e-38
1.823782802 -1.438799858 0 1.502788767e-38
1.799594045 -1.456257701 0 1.539667019e-38
1.780641437 -1.47780633 0 1.530447456e-38
1.767523766 -1.504294276 0 1.170884499e-38
0 -0 0 0
0 -0 0 0
0 -0 0 0
0 -0 0 0
0 -0 0 0
0 -0 0 0
0 -0 0 0
0 -0 0 0
0 -0 0 0
0 -0 0 0
4.305252552 -4.820287228 0 4.886368383e-39
4.245850086 -4.874018669 0 6.269302831e-39
4.180596352 -4.920920849 0 7.099063499e-39
4.111641407 -4.963107109 0 7.191259129e-39
3.975904226 -5.059783459 0 7.00686787e-39
4.044796944 -5.007452965 0 7.099063499e-39
3.911686182 -5.107073784 0 5.255150902e-39
0 -0 0 0
6.239679337 -8.578814507 0 2.397086376e-39
6.135789394 -8.659552574 0 2.397086376e-39
0 -0 0 0
0 -0 0 0
0 -0 0 0
0 -0 0 0
0 -0 0 0
0 -0 0 0
0 -0 0 0
0 -0 0 0
0 -0 0 0
0 -0 0 0
0 -0 0 0
0 -0 0 0
0 -0 0 0
0 -0 0 0
0 -0 0 0
0 -0 0 0
0 -0 0 0
0 -0 0 0
0 -0 0 0
0 -0 0 0
0 -0 0 0
0 -0 0 0
0 -0 0 0
0 -0 0 0
0 -0 0 0
0 -0 0 0
0 -0 0 0
2.379370213 -8.67978096 0 5.255150902e-39
1.54773438 -5.933459282 0 4.794172753e-39
1.47529459 -5.957036018 0 8.850780467e-39
1.01529789 -4.606436729 0 5.531737792e-39
1.143333912 -4.874713898 0 2.489282006e-39
0.9599685669 -4.627475739 0 8.297606688e-39
0.9040825367 -4.646869183 0 8.574193577e-39
0.8480395079 -4.666570187 0 8.666389207e-39
0.7918134332 -4.686580658 0 8.850780467e-39
0.7356867194 -4.70887661 0 8.758584837e-39
0.6791265011 -4.730499744 0 8.758584837e-39
0.6220155954 -4.750450134 0 8.389802318e-39
0 -0 0 0
0 -0 0 0
0 -0 0 0
0 -0 0 0
0 -0 0 0
0 -0 0 0
0 -0 0 0
0 -0 0 0
0 -0 0 0
0.006524492521 -1.700987458 0 9.403954246e-39
-0.01443989761 -1.653937101 0 1.041810617e-38
-0.03451977298 -1.62063241 0 1.290738818e-38
-0.0550515838 -1.62506783 0 1.548886582e-38
-0.07579233497 -1.631240249 0 1.585764834e-38
-0.09681555629 -1.639143229 0 1.60420396e-38
-0.1419693679 -1.655925274 0 1.613423523e-38
-0.1181207821 -1.647771597 0 1.622643086e-38
-0.1635528207 -1.664986253 0 1.594984397e-38
-0.1852731556 -1.672770977 0 1.585764834e-38
-0.2073337883 -1.681264043 0 1.576545271e-38
-0.2292282879 -1.68649292 0 1.567325708e-38
-0.2512848377 -1.691436172 0 1.548886582e-38
-0.2738165259 -1.698064923 0 1.539667019e-38
-0.2970658839 -1.707349181 0 1.530447456e-38
-0.3220559061 -1.724179745 0 1.521227893e-38
-0.3463326395 -1.734766483 0 1.502788767e-38
-0.3707127869 -1.74403584 0 1.484349641e-38
-0.3955962062 -1.753940582 0 1.382934448e-38
-0.4228610694 -1.764025092 0 1.069469306e-38
-0.4502751231 -1.776834607 0 2.950260156e-39
-1.377221227 -5.154171944 0 3.503433935e-39
-1.428519845 -5.082043648 0 4.333194604e-39
-0.2575433254 -0.8727951646 0 8.389802318e-39
-0.2646585107 -0.856020987 0 1.558106145e-38
-0.271384865 -0.8392105103 0 1.622643086e-38
-0.2777210474 -0.8223715425 0 1.650301775e-38
-0.2836683393 -0.805511117 0 1.677960464e-38
-0.2895719409 -0.7895752788 0 1.696399589e-38
-0.2954683602 -0.7745575905 0 1.724058278e-38
-0.3006570935 -0.7585916519 0 1.751716967e-38
-0.3061317205 -0.7423559427 0 1.770156093e-38
-0.3104562759 -0.7264412642 0 1.797814782e-38
-0.315639466 -0.7132822871 0 1.825473471e-38
-0.3205387592 -0.7001106143 0 1.85313216e-38
-0.3255821764 -0.6878351569 0 1.871571286e-38
-0.3308044374 -0.6764447093 0 1.899229975e-38
-0.3353394568 -0.6641411781 0 1.926888664e-38
-0.3400770724 -0.6527201533 0 1.954547353e-38
-0.344579041 -0.6412872076 0 1.972986479e-38
-0.3488455117 -0.6298466921 0 1.982206042e-38
-0.352876693 -0.6184028387 0 2.000645168e-38
-0.3571804762 -0.6078215837 0 2.028303857e-38
-0.3610668778 -0.5961876512 0 2.03752342e-38
-0.3645385206 -0.5870201588 0 2.055962546e-38
-0.3673135638 -0.5770067573 0 2.083621235e-38
-0.3704572022 -0.5678427815 0 2.092840798e-38
-0.3728869855 -0.5578497052 0 2.102060361e-38
-0.3751399219 -0.5478740931 0 2.111279924e-38
-0.3777911961 -0.5387372375 0 2.12971905e-38
-0.3802858293 -0.5296099782 0 2.12971905e-38
-0.3826241493 -0.5204947591 0 2.12971905e-38
-0.3854075074 -0.5121933222 0 2.138938613e-38
-0.3880539834 -0.5038948655 0 2.148158176e-38
-0.3924202025 -0.4979582131 0 2.148158176e-38
-0.3942108154 -0.4862857163 0 2.148158176e-38
-0.3970099092 -0.4775187075 0 2.175816865e-38
-0.3996525705 -0.4687577486 0 2.175816865e-38
-0.4021397829 -0.4600050151 0 2.194255991e-38
-0.4064741731 -0.4534972906 0 2.212695117e-38
-0.4093559682 -0.4454802871 0 2.212695117e-38
-0.4147124588 -0.4294444919 0 2.212695117e-38
-0.4121019542 -0.437462002 0 2.203475554e-38
-0.4171879888 -0.4214299321 0 2.22191468e-38
-0.4202412665 -0.4141222835 0 2.231134243e-38
-0.4224570692 -0.4061109126 0 2.240353806e-38
-0.4310251176 -0.386598438 0 2.277232058e-38
-0.4252684712 -0.3987928331 0 2.258792932e-38
-0.4335246682 -0.3792523146 0 2.277232058e-38
-0.4359085858 -0.3719041646 0 2.286451621e-38
-0.4381774366 -0.3645552397 0 2.295671184e-38
-0.44033131 -0.3572076857 0 2.304890747e-38
-0.4423709214 -0.3498628139 0 2.304890747e-38
-0.4442962408 -0.3425227404 0 2.31411031e-38
-0.4461081922 -0.3351888061 0 2.323329873e-38
-0.448613584 -0.3284536898 0 2.332549436e-38
-0.4502068758 -0.3211272657 0 2.350988562e-38
-0.4525091648 -0.3143826425 0 2.350988562e-38
-0.4547135234 -0.307630688 0 2.350988562e-38
-0.4572924078 -0.300154388 0 2.350988562e-38
-0.4593423903 -0.2933080196 0 2.341768999e-38
-0.4612927735 -0.2864576578 0 2.332549436e-38
-0.4639998674 -0.2801216245 0 2.332549436e-38
-0.4657582939 -0.2732567191 0 2.341768999e-38
-0.4682864249 -0.2668872476 0 2.350988562e-38
-0.469853282 -0.2600133121 0 2.350988562e-38
-0.4713214934 -0.2531423867 0 2.350988562e-38
-0.4726915658 -0.2462756634 0 2.350988562e-38
-0.4748563766 -0.2398653775 0 2.350988562e-38
-0.4760366678 -0.2330001444 0 2.350988562e-38
-0.4780233204 -0.2265715748 0 2.350988562e-38
-0.4799621403 -0.2200461775 0 2.350988562e-38
-0.4817751944 -0.2135923207 0 2.350988562e-38
-0.483501941 -0.2071276903 0 2.350988562e-38
-0.4851424992 -0.2006533146 0 2.341768999e-38
-0.4876255691 -0.1945411712 0 2.350988562e-38
-0.4890983105 -0.1880394518 0 2.350988562e-38
-0.4914225936 -0.1818786114 0 2.350988562e-38
-0.4936692119 -0.1756891459 0 2.350988562e-38
-0.4958379865 -0.1694717109 0 2.341768999e-38
-0.4969782233 -0.1629161388 0 2.341768999e-38
-0.4989861846 -0.1566582471 0 2.350988562e-38
-0.5027654171 -0.1440692395 0 2.350988562e-38
-0.5009153485 -0.1503756195 0 2.350988562e-38
-0.5045120716 -0.137828052 0 2.350988562e-38
-0.5061812401 -0.1315658242 0 2.350988562e-38
-0.5077726841 -0.1252833754 0 2.350988562e-38
-0.5092861056 -0.1189816967 0 2.350988562e-38
-0.5107213855 -0.1126617491 0 2.350988562e-38
-0.5120782256 -0.1063244939 0 2.350988562e-38
-0.5143379569 -0.100162074 0 2.350988562e-38
-0.5175073743 -0.09413892031 0 2.332549436e-38
-0.5215921402 -0.08821929246 0 2.240353806e-38
-3.05683279 -0.4781318009 0 9.311758616e-39
-3.08231926 -0.4430627227 0 8.850780467e-39
-3.098691702 -0.4046411812 0 8.850780467e-39
-3.111476898 -0.3666071594 0 8.758584837e-39
-3.125782967 -0.3285246491 0 8.850780467e-39
-3.140618086 -0.2902316451 0 8.758584837e-39
-3.1539855 -0.2515387237 0 8.666389207e-39
-3.169868231 -0.2127564698 0 8.574193577e-39
-3.185271978 -0.1736146361 0 8.481997947e-39
-3.200190783 -0.134119913 0 8.481997947e-39
-3.213618279 -0.09424674511 0 8.481997947e-39
-3.228547096 -0.05409151316 0 8.389802318e-39
-3.240971565 -0.01356756594 0 8.389802318e-39
-3.275281429 0.068615444 0 8.574193577e-39
-3.242886066 0.02717630565 0 8.481997947e-39
-3.218229532 0.1067675427 0 8.758584837e-39
-3.211689949 0.1458497792 0 8.758584837e-39
-3.21865344 0.1855949163 0 9.035171727e-39
-3.228116751 0.2257404029 0 9.311758616e-39
-3.237077475 0.2661446929 0 9.403954246e-39
-1.451528907 0.1372136474 0 8.389802318e-39
-1.455710292 0.1555739641 0 1.493569204e-38
-1.460651755 0.174175933 0 1.594984397e-38
-1.464363575 0.192790851 0 1.594984397e-38
-1.463878512 0.2109518349 0 1.567325708e-38
-1.46810782 0.2299032509 0 1.567325708e-38
-1.470625043 0.2516466081 0 1.530447456e-38
-1.475960374 0.2730243504 0 1.521227893e-38
-1.503543139 0.299077034 0 1.475130078e-38
-1.540467262 0.3280025423 0 1.152445373e-38
-1.790444016 0.4064553082 0 9.864932395e-39
-1.79065299 0.431886375 0 8.113215428e-39
-1.7846874 0.4559111297 0 7.928824168e-39
-1.777433753 0.4795934558 0 1.134006247e-38
-1.768904567 0.5028893352 0 1.364495322e-38
-1.769651651 0.5289062858 0 7.375650389e-39
-0 0 0 0
-0 0 0 0
-0 0 0 0
-0 0 0 0
-0 0 0 0
-0 0 0 0
-3.789810896 1.516593337 0 3.595629565e-39
-3.811096191 1.580955863 0 6.361498461e-39
-3.834111691 1.64727509 0 6.54588972e-39
-2.57314086 1.144028664 0 2.028303857e-39
-2.563104868 1.178360939 0 7.099063499e-39
-2.557127953 1.21476686 0 8.389802318e-39
-2.558719158 1.255171537 0 7.836628538e-39
-2.562372684 1.297162414 0 7.099063499e-39
-2.555387735 1.334796548 0 4.701977123e-39
-1.547142029 0.8327065706 0 3.042455785e-39
-1.522711039 0.8440570831 0 9.219562986e-39
-1.495632648 0.8534442782 0 1.170884499e-38
-1.478906035 0.8683675528 0 1.272299692e-38
-1.468888044 0.8871435523 0 1.290738818e-38
-1.478170872 0.9179384112 0 1.216982314e-38
-1.489441514 0.9507116675 0 1.060249743e-38
-1.041055679 0.6828089356 0 6.54588972e-39
-1.031685352 0.6950979829 0 1.152445373e-38
-1.022170424 0.7072600722 0 1.622643086e-38
-1.012512803 0.7192925215 0 1.668740901e-38
-1.001650929 0.7309551239 0 1.714838715e-38
-0.9907858968 0.742285192 0 1.76093653e-38
-0.8918033838 0.6857927442 0 1.76093653e-38
-0.8736954331 0.6895109415 0 1.797814782e-38
-0.8595219851 0.6960300207 0 1.816253908e-38
-0.8491694927 0.7054977417 0 1.843912597e-38
-0.838714838 0.7148156166 0 1.862351723e-38
-0.8304193616 0.7259564996 0 1.880790849e-38
-0.8256985545 0.7403396368 0 1.871571286e-38
-0.8222190738 0.7560719848 0 1.890010412e-38
-0.8228388429 0.7759493589 0 1.751716967e-38
-2.054562807 2.035297394 0 1.115567121e-38
-0.8252435923 0.7980457544 0 4.240998974e-39
-2.017958164 2.049200058 0 1.152445373e-38
-1.979248047 2.060346365 0 1.161664936e-38
-1.946726918 2.077417374 0 1.152445373e-38
-1.919486284 2.09990406 0 1.124786684e-38
-1.896644831 2.127260685 0 9.403954246e-39
-0.6043505073 0.6949831247 0 7.928824168e-39
-0.5924580693 0.6986053586 0 1.770156093e-38
-0.5786576867 0.6997279525 0 2.065182109e-38
-0.5636655092 0.6990602016 0 2.12971905e-38
-0.5493978858 0.6989156008 0 2.138938613e-38
-0.5352212787 0.6985257268 0 2.157377739e-38
-0.519323647 0.6979992986 0 2.157377739e-38
-0.5053519011 0.6970942616 0 2.175816865e-38
-0.4920603633 0.6967679858 0 2.185036428e-38
-0.4788548946 0.6962205172 0 2.194255991e-38
-0.465739578 0.6954535842 0 2.212695117e-38
-0.4527171254 0.6944696903 0 2.212695117e-38
-0.4403273165 0.6941151619 0 2.22191468e-38
-0.4274908006 0.69271034 0 2.212695117e-38
-0.4152723253 0.6919522285 0 2.22191468e-38
-0.403642416 0.6918625236 0 2.240353806e-38
-0.3915857971 0.6907218099 0 2.258792932e-38
-0.3801026046 0.6902651787 0 2.258792932e-38
-0.3676073849 0.6902092695 0 2.268012495e-38
-0.3569717705 0.6901450157 0 2.277232058e-38
-0.3459426761 0.6890317202 0 2.286451621e-38
-0.3349925578 0.6877535582 0 2.295671184e-38
-0.3245509565 0.6872165799 0 2.304890747e-38
-0.3141709864 0.6865286827 0 2.31411031e-38
-0.3038550019 0.685690999 0 2.31411031e-38
-0.2936049402 0.6847051382 0 2.304890747e-38
-0.2834230959 0.6835724711 0 2.304890747e-38
-0.2733114064 0.6822945476 0 2.31411031e-38
-0.2643538415 0.6836709976 0 2.332549436e-38
-0.2547040284 0.6830569506 0 2.350988562e-38
-0.244631201 0.6824812293 0 2.350988562e-38
-0.2347335666 0.6817193031 0 2.350988562e-38
-0.2248938084 0.680817008 0 2.350988562e-38
-0.2154157907 0.6807290316 0 2.350988562e-38
-0.2056859583 0.6795536876 0 2.341768999e-38
-0.196297437 0.6792027354 0 2.332549436e-38
-0.1869504005 0.6787234545 0 2.341768999e-38
-0.1776466221 0.6781169772 0 2.350988562e-38
-0.1683875024 0.6773844361 0 2.332549436e-38
-0.1591750234 0.6765266657 0 2.332549436e-38
-0.1500108838 0.6755447388 0 2.323329873e-38
-0.1411010921 0.6754187346 0 2.323329873e-38
-0.1314378083 0.6743093133 0 2.332549436e-38
-0.1227138191 0.6739186645 0 2.332549436e-38
-0.1138524786 0.6724296212 0 2.323329873e-38
-0.1052020043 0.671812892 0 2.31411031e-38
-0.09658433497 0.6710852385 0 2.304890747e-38
-0.08800089359 0.6702476144 0 2.31411031e-38
-0.0795706585 0.6702936292 0 2.323329873e-38
-0.07104755193 0.6692392826 0 2.332549436e-38
-0.06265606731 0.6690726876 0 2.350988562e-38
-0.05427931994 0.6688009501 0 2.350988562e-38
-0.04591925442 0.6684246063 0 2.350988562e-38
-0.0375768654 0.6679438949 0 2.332549436e-38
-0.02824741416 0.6684033871 0 2.31411031e-38
-0.01984594949 0.6687055826 0 2.277232058e-38
-0.01149273664 0.6719017029 0 2.249573369e-38
-0.003112146398 0.6859928966 0 2.092840798e-38
0 0 0 0
0 0 0 0
0 0 0 0
0.1125909835 2.460425138 0 4.333194604e-39
0.1425093412 2.441845179 0 4.425390233e-39
0.1723326743 2.427891493 0 3.687825195e-39
0.6434838176 7.695142269 0 3.503433935e-39
0.7439640164 7.726264477 0 5.070759642e-39
0 0 0 0
0 0 0 0
1.058472633 7.838860035 0 3.872216454e-39
1.15479517 7.820196629 0 4.978564013e-39
0 0 0 0
0 0 0 0
0 0 0 0
0 0 0 0
0.4186730087 1.978180289 0 5.900520311e-39
0.4365791678 1.943569541 0 8.389802318e-39
0.4555418789 1.916606903 0 1.198543188e-38
0.4729310572 1.885595918 0 1.226201877e-38
0.4932491183 1.852456331 0 1.263080129e-38
0.5101184249 1.820895433 0 1.281519255e-38
0.5268212557 1.791130424 0 1.299958381e-38
0.5428405404 1.761241913 0 1.355275759e-38
0.5581769347 1.73124218 0 1.401373574e-38
0.57346946 1.70303905 0 1.429032263e-38
0.5887894034 1.676620364 0 1.429032263e-38
0.6035237312 1.650093317 0 1.410593137e-38
0.6183841825 1.625337481 0 1.401373574e-38
0.6323385239 1.599546194 0 1.392154011e-38
0.6453514099 1.572743297 0 1.401373574e-38
0.6585627198 1.547714233 0 1.4198127e-38
0.6717664003 1.522375107 0 1.447471389e-38
0.6839389801 1.499377012 0 1.493569204e-38
0.694367826 1.473599076 0 1.530447456e-38
0.7055755854 1.450493813 0 1.539667019e-38
0.7163183689 1.427339196 0 1.576545271e-38
0.7270563841 1.405031323 0 1.502788767e-38
0.7373532057 1.38267827 0 1.447471389e-38
0.7481710315 1.362041235 0 1.4198127e-38
0.7585915923 1.341349959 0 1.392154011e-38
0.7686159015 1.320611119 0 1.382934448e-38
0.7787567377 1.300689816 0 1.392154011e-38
0.7885228395 1.280721426 0 1.410593137e-38
0.8004308343 1.260301352 0 1.410593137e-38
0.8099741936 1.241074443 0 1.438251826e-38
0.819165647 1.221805453 0 1.465910515e-38
0.8291384578 1.204148412 0 1.484349641e-38
0.8399547935 1.188066125 0 1.567325708e-38
0.8546120524 1.177566648 0 1.724058278e-38
0.8697360158 1.167688012 0 1.521227893e-38
0.9072135091 1.187012911 0 1.346056196e-38
0.9428318739 1.202435851 0 1.244641003e-38
0.9839830995 1.223387718 0 1.198543188e-38
1.030884385 1.249670982 0 1.152445373e-38
1.075999856 1.271919966 0 1.124786684e-38
1.123152971 1.293404937 0 1.087908432e-38
1.174386382 1.316249609 0 1.004932366e-38
0 0 0 0
0 0 0 0
0 0 0 0
2.238706827 2.252813578 0 5.255150902e-39
2.268778801 2.222525597 0 1.078688869e-38
2.299889565 2.193214893 0 1.014151928e-38
2.33795023 2.170274258 0 1.023371491e-38
2.381001711 2.151397943 0 1.014151928e-38
2.423215628 2.131092548 0 9.403954246e-39
0 0 0 0
2.4706285 2.114591837 0 3.503433935e-39
4.59109211 3.731075764 0 1.659521338e-39
4.626785278 3.665824175 0 1.290738818e-39
0 0 0 0
0 0 0 0
0 0 0 0
0 0 0 0
0 0 0 0
4.820086479 3.267123222 0 1.936108227e-39
0 0 0 0
0 0 0 0
0 0 0 0
0 0 0 0
0 0 0 0
0 0 0 0
0 0 0 0
0 0 0 0
0 0 0 0
0 0 0 0
5.191103935 2.562218428 0 8.758584837e-39
5.223356724 2.498128414 0 6.54588972e-39
5.247560024 2.430267572 0 4.240998974e-39
0 0 0 0
5.344222069 2.227867126 0 4.794172753e-39
5.310760498 2.301470518 0 4.240998974e-39
5.375506401 2.162028074 0 5.992715941e-39
4.533265591 1.757426143 0 3.872216454e-39
4.556865215 1.701021671 0 4.148803344e-39
4.585410118 1.646329045 0 4.240998974e-39
0 0 0 0
0.7167748809 0.2371891737 0 1.401373574e-38
0.713979423 0.2263502032 0 1.963766916e-38
0.714853406 0.2167800367 0 2.120499487e-38
0.7136788964 0.2066674232 0 2.231134243e-38
0.7123637199 0.1966187358 0 2.295671184e-38
0.7128437161 0.1871437579 0 2.332549436e-38
0.7152632475 0.1776723266 0 2.341768999e-38
0.7181763649 0.1699018776 0 2.323329873e-38
0.7268589139 0.1634048969 0 2.277232058e-38
0.7345070243 0.1565261334 0 2.212695117e-38
0.7469928861 0.1504845917 0 2.12971905e-38
0.7643464208 0.1451155841 0 1.742497404e-38
5.95802784 1.062360168 0 4.333194604e-39
6.000100136 1.000842452 0 3.964412084e-39
6.028691292 0.9365243316 0 3.503433935e-39
6.062531948 0.872543633 0 2.304890747e-39
5.351202011 0.709251523 0 2.120499487e-39
5.454221725 0.5896295309 0 5.716129052e-39
5.417362213 0.6565319896 0 5.716129052e-39
0 0 0 0
5.540904045 0.4604132473 0 5.347346532e-39
5.580099106 0.3941139579 0 6.269302831e-39
5.616500378 0.3267974555 0 6.177107201e-39
5.637101173 0.2579533756 0 4.240998974e-39
0 0 0 0
1.043771029 0.02186409011 0 1.014151928e-38
1.03396225 0.008843144402 0 1.76093653e-38
