# .PCD v0.7 - Point Cloud Data file format
VERSION 0.7
FIELDS x y z rgb
SIZE 4 4 4 4
TYPE F F F F
COUNT 1 1 1 1
WIDTH 500
HEIGHT 1
VIEWPOINT 0 0 0 1 0 0 0
POINTS 500
DATA ascii
0.537971437 -0.005543089472 0 2.304890747e-38
0.5328648686 -0.01200234052 0 2.350988562e-38
0.5276814699 -0.01833791658 0 2.350988562e-38
0.5254203081 -0.0246889703 0 2.350988562e-38
0.5210864544 -0.03086975217 0 2.350988562e-38
0.5186754465 -0.03709101677 0 2.350988562e-38
0.518183589 -0.04342477024 0 2.350988562e-38
0.5176144242 -0.04975229129 0 2.350988562e-38
0.5179622173 -0.05617997795 0 2.350988562e-38
0.5202154517 -0.06286373734 0 2.350988562e-38
0.5303583741 -0.0775629133 0 2.323329873e-38
0.5233736038 -0.06974299252 0 2.350988562e-38
0.5392326117 -0.08569832891 0 2.240353806e-38
0.5499563217 -0.09440370649 0 2.102060361e-38
0.5615285635 -0.103569597 0 1.318397507e-38
0 -0 0 0
0 -0 0 0
4.634009361 -1.034148455 0 4.148803344e-39
4.575097084 -1.080690026 0 5.808324681e-39
4.544859409 -1.133185387 0 3.872216454e-39
4.536272049 -1.190938592 0 9.219562986e-40
4.541409492 -1.252645254 0 5.531737792e-39
4.585098267 -1.326047897 0 6.91467224e-39
4.629080772 -1.4029181 0 7.00686787e-39
4.679639816 -1.486293793 0 6.91467224e-39
4.724993706 -1.569992304 0 6.084911571e-39
0 -0 0 0
7.766766071 -2.811574936 0 9.219562986e-40
7.756859779 -2.924932718 0 2.397086376e-39
0 -0 0 0
7.633021832 -3.111916304 0 2.581477636e-39
0 -0 0 0
0 -0 0 0
0 -0 0 0
0 -0 0 0
0 -0 0 0
0 -0 0 0
0 -0 0 0
0 -0 0 0
0 -0 0 0
0 -0 0 0
2.12351346 -1.241890192 0 8.297606688e-39
2.098951817 -1.263685584 0 1.253860566e-38
2.070780277 -1.282951951 0 1.290738818e-38
2.041616917 -1.301169276 0 1.32761707e-38
2.013165236 -1.319399357 0 1.364495322e-38
1.956110477 -1.353983879 0 1.410593137e-38
1.984581113 -1.337118745 0 1.392154011e-38
1.929401398 -1.371167302 0 1.438251826e-38
1.903375268 -1.388487697 0 1.456690952e-38
1.876417279 -1.40477562 0 1.475130078e-38
1.850935936 -1.421827197 0 1.484349641e-38
1.826106787 -1.439082742 0 1.484349641e-38
1.801911473 -1.456572533 0 1.502788767e-38
1.782184839 -1.47751224 0 1.484349641e-38
1.767549038 -1.502720833 0 1.198543188e-38
0 -0 0 0
0 -0 0 0
0 -0 0 0
0 -0 0 0
0 -0 0 0
0 -0 0 0
0 -0 0 0
0 -0 0 0
0 -0 0 0
0 -0 0 0
4.316401482 -4.83446312 0 4.794172753e-39
4.248939037 -4.879284382 0 6.269302831e-39
4.181029797 -4.923176765 0 7.00686787e-39
4.112050533 -4.965364933 0 7.099063499e-39
4.043922901 -5.008158684 0 7.099063499e-39
3.972814798 -5.055851936 0 6.91467224e-39
3.909253597 -5.103898048 0 5.347346532e-39
0 -0 0 0
6.234974384 -8.57234478 0 2.489282006e-39
6.132320881 -8.654657364 0 2.489282006e-39
0 -0 0 0
0 -0 0 0
0 -0 0 0
0 -0 0 0
0 -0 0 0
0 -0 0 0
0 -0 0 0
0 -0 0 0
0 -0 0 0
0 -0 0 0
0 -0 0 0
0 -0 0 0
0 -0 0 0
0 -0 0 0
0 -0 0 0
0 -0 0 0
0 -0 0 0
0 -0 0 0
0 -0 0 0
0 -0 0 0
0 -0 0 0
0 -0 0 0
0 -0 0 0
0 -0 0 0
0 -0 0 0
0 -0 0 0
0 -0 0 0
2.379172325 -8.685019493 0 5.070759642e-39
1.549473405 -5.944374084 0 3.411238305e-39
1.472813606 -5.951468945 0 8.666389207e-39
1.012352109 -4.612204552 0 4.886368383e-39
1.152748823 -4.918726921 0 1.936108227e-39
0.9569404721 -4.629124641 0 8.205411058e-39
0.9016472697 -4.647342205 0 8.574193577e-39
0.8464106321 -4.666865826 0 8.666389207e-39
0.7909954786 -4.686718941 0 8.942976097e-39
0.735378027 -4.706900597 0 8.758584837e-39
0.6795252562 -4.727411747 0 8.666389207e-39
0.6234110594 -4.748250008 0 8.389802318e-39
0 -0 0 0
0 -0 0 0
0 -0 0 0
0 -0 0 0
0 -0 0 0
0 -0 0 0
0 -0 0 0
0 -0 0 0
0 -0 0 0
0 -0 0 0
-0.01100926101 -1.658963561 0 1.004932366e-38
-0.03086183593 -1.621706367 0 1.23542144e-38
-0.05098585039 -1.622198939 0 1.530447456e-38
-0.07143417001 -1.629434943 0 1.613423523e-38
-0.09212497622 -1.637410402 0 1.60420396e-38
-0.1129565835 -1.644124269 0 1.631862649e-38
-0.1344991326 -1.653538942 0 1.613423523e-38
-0.1562031806 -1.661674261 0 1.594984397e-38
-0.178238079 -1.67051816 0 1.585764834e-38
-0.2005205303 -1.679068923 0 1.567325708e-38
-0.223045826 -1.687321782 0 1.558106145e-38
-0.2455221415 -1.693292618 0 1.548886582e-38
-0.2681843638 -1.698963523 0 1.548886582e-38
-0.2917009294 -1.708273888 0 1.548886582e-38
-0.3158541024 -1.719226718 0 1.548886582e-38
-0.3411010802 -1.73376441 0 1.539667019e-38
-0.3655298352 -1.742064238 0 1.502788767e-38
-0.3904390633 -1.750997782 0 1.410593137e-38
-0.4169340432 -1.762352705 0 1.216982314e-38
-0.439596504 -1.757867813 0 4.609781493e-39
-1.36904335 -5.192554474 0 3.042455785e-39
-1.40836513 -5.078327179 0 4.425390233e-39
-0.2565788031 -0.8814143538 0 6.361498461e-39
-0.2622449994 -0.8599002957 0 1.465910515e-38
-0.2689252794 -0.8431513309 0 1.641082212e-38
-0.2755376697 -0.8273227811 0 1.659521338e-38
-0.2814633548 -0.8105198145 0 1.668740901e-38
-0.2876864672 -0.7955831289 0 1.677960464e-38
-0.2932229638 -0.7796853781 0 1.705619152e-38
-0.2987660468 -0.7647089958 0 1.733277841e-38
-0.3038446605 -0.7497729063 0 1.76093653e-38
-0.3087243736 -0.734777689 0 1.807034345e-38
-0.31446895 -0.7225325108 0 1.825473471e-38
-0.3195417821 -0.7093496919 0 1.862351723e-38
-0.3243304491 -0.6961564422 0 1.871571286e-38
-0.3292689621 -0.6838588715 0 1.890010412e-38
-0.3335024714 -0.6706542373 0 1.899229975e-38
-0.3379100263 -0.6583439708 0 1.917669101e-38
-0.3425269127 -0.6469151974 0 1.954547353e-38
-0.346428901 -0.6345990896 0 1.972986479e-38
-0.3510536551 -0.6240330935 0 2.000645168e-38
-0.3549649119 -0.6125878692 0 2.028303857e-38
-0.3595746458 -0.6017532945 0 2.055962546e-38
-0.3622998595 -0.590751946 0 2.065182109e-38
-0.3653523922 -0.5806148648 0 2.074401672e-38
-0.3682202995 -0.570486486 0 2.074401672e-38
-0.3714554608 -0.561203897 0 2.074401672e-38
-0.3745263815 -0.551922977 0 2.074401672e-38
-0.3774329722 -0.5426466465 0 2.092840798e-38
-0.3801761866 -0.5333769917 0 2.120499487e-38
-0.3833459616 -0.5249245763 0 2.138938613e-38
-0.3857730925 -0.5156695843 0 2.157377739e-38
-0.3886462748 -0.5072228909 0 2.185036428e-38
-0.3913764954 -0.498778969 0 2.194255991e-38
-0.3948740363 -0.4883221388 0 2.185036428e-38
-0.3977867365 -0.4794734418 0 2.175816865e-38
-0.4005398154 -0.4706291556 0 2.175816865e-38
-0.4031338096 -0.4617922604 0 2.185036428e-38
-0.4055697322 -0.4529648721 0 2.194255991e-38
-0.4078478217 -0.4441499114 0 2.203475554e-38
-0.4120256901 -0.4375338256 0 2.22191468e-38
-0.4147124588 -0.4294444919 0 2.231134243e-38
-0.4179651439 -0.4220676422 0 2.231134243e-38
-0.4203858674 -0.4139754772 0 2.231134243e-38
-0.4226696193 -0.4058896899 0 2.22191468e-38
-0.4279074371 -0.3900464475 0 2.231134243e-38
-0.4248169363 -0.3978122473 0 2.22191468e-38
-0.4304658175 -0.3827207088 0 2.240353806e-38
-0.4329087734 -0.3753918409 0 2.258792932e-38
-0.4352364242 -0.3680614531 0 2.277232058e-38
-0.4374493062 -0.3607313335 0 2.304890747e-38
-0.4395477176 -0.3534031808 0 2.323329873e-38
-0.4423190355 -0.3466956019 0 2.332549436e-38
-0.4449919164 -0.3399738073 0 2.332549436e-38
-0.4467642307 -0.3326419592 0 2.323329873e-38
-0.448423624 -0.3253187537 0 2.323329873e-38
-0.450787127 -0.3185827136 0 2.323329873e-38
-0.453052789 -0.3118383884 0 2.332549436e-38
-0.4553272724 -0.3049279749 0 2.350988562e-38
-0.4576034248 -0.2978507876 0 2.350988562e-38
-0.4597726464 -0.2907665074 0 2.350988562e-38
-0.4618350267 -0.2836765647 0 2.350988562e-38
-0.463790983 -0.2765825987 0 2.350988562e-38
-0.4656405449 -0.2694862485 0 2.350988562e-38
-0.4682561457 -0.2628786564 0 2.341768999e-38
-0.4707787037 -0.2562488019 0 2.332549436e-38
-0.4732080698 -0.2495979518 0 2.350988562e-38
-0.4746535718 -0.2424726337 0 2.350988562e-38
-0.4759939611 -0.2353524268 0 2.350988562e-38
-0.4781316519 -0.2286702842 0 2.350988562e-38
-0.4804469943 -0.2213857919 0 2.350988562e-38
-0.4831534624 -0.2154152095 0 2.350988562e-38
-0.4848673344 -0.2090159506 0 2.350988562e-38
-0.4864970446 -0.2026071101 0 2.350988562e-38
-0.4880424738 -0.1961901486 0 2.341768999e-38
-0.4895036519 -0.1897660345 0 2.332549436e-38
-0.4908807576 -0.1833359152 0 2.323329873e-38
-0.4931148589 -0.1772391051 0 2.341768999e-38
-0.4943281114 -0.1707885116 0 2.350988562e-38
-0.4984086454 -0.1584859639 0 2.350988562e-38
-0.4964064956 -0.1646499336 0 2.350988562e-38
-0.5024372935 -0.1452094167 0 2.350988562e-38
-0.5003342628 -0.1522978842 0 2.350988562e-38
-0.5041738153 -0.1390603185 0 2.341768999e-38
-0.5058350563 -0.1328905821 0 2.332549436e-38
-0.5074208379 -0.1267007738 0 2.350988562e-38
-0.5089308619 -0.1204921603 0 2.350988562e-38
-0.5103649497 -0.114265576 0 2.350988562e-38
-0.5117228627 -0.1080219299 0 2.350988562e-38
-0.5139852166 -0.1019567251 0 2.350988562e-38
-0.5161756873 -0.09585222602 0 2.350988562e-38
-0.5232203007 -0.09056239575 0 2.277232058e-38
-0 -0 0 0
-3.094214678 -0.4155956507 0 8.758584837e-39
-3.081425667 -0.4561156332 0 8.481997947e-39
-3.107134342 -0.3776462078 0 8.758584837e-39
-3.120581627 -0.3395456672 0 8.758584837e-39
-3.135551691 -0.3013579845 0 8.574193577e-39
-3.150052786 -0.2628467977 0 8.574193577e-39
-3.163081884 -0.223948732 0 8.481997947e-39
-3.177626133 -0.1848807782 0 8.389802318e-39
-3.191685915 -0.145483315 0 8.389802318e-39
-3.207254648 -0.10582681 0 8.481997947e-39
-3.222328186 -0.06580115855 0 8.389802318e-39
-3.235900402 -0.02540625818 0 8.481997947e-39
-3.246963978 0.01530992799 0 8.481997947e-39
-3.25650382 0.05685119703 0 8.574193577e-39
-3.263545752 0.09743851423 0 8.666389207e-39
-3.206137657 0.1355065107 0 8.758584837e-39
-3.228176832 0.1765354276 0 9.035171727e-39
-3.231727839 0.216925621 0 9.219562986e-39
-3.228791714 0.2569556534 0 9.403954246e-39
-3.225359678 0.2969446778 0 9.403954246e-39
-3.21546483 0.3362656236 0 9.403954246e-39
-3.193173409 0.3739895225 0 9.219562986e-39
-3.170443535 0.4112145305 0 8.297606688e-39
-3.087882757 0.4394789338 0 5.531737792e-39
-3.070341349 0.4758707583 0 3.042455785e-39
-0 0 0 0
-0 0 0 0
-0 0 0 0
-1.620788455 0.3347682953 0 6.54588972e-39
-1.645818114 0.3612584472 0 8.113215428e-39
-1.640241265 0.3813983798 0 6.63808535e-39
-1.635389209 0.401694119 0 5.808324681e-39
-1.638030887 0.4239326417 0 7.467846019e-39
-0 0 0 0
-2.203980684 0.6290735006 0 8.758584837e-39
-2.224759817 0.6649271846 0 1.263080129e-38
-2.233530521 0.6978113651 0 1.32761707e-38
-2.226061344 0.7405176759 0 8.666389207e-39
-0 0 0 0
-1.759002924 0.6346722841 0 5.992715941e-39
-1.76118803 0.6605889201 0 1.244641003e-38
-1.760202527 0.6855713129 0 1.401373574e-38
-1.7579391 0.7102581263 0 1.382934448e-38
-1.759943843 0.7369270325 0 1.336836633e-38
-1.763389468 0.7645534277 0 1.272299692e-38
-1.769153714 0.7936096191 0 1.189323625e-38
-1.788978696 0.8296619654 0 1.05103018e-38
-1.822601676 0.8732489944 0 6.73028098e-39
-0 0 0 0
-0 0 0 0
-0 0 0 0
-1.539247632 0.8367917538 0 4.609781493e-39
-1.515227318 0.8492674232 0 1.014151928e-38
-1.488545537 0.8597634435 0 1.216982314e-38
-1.475598931 0.8778933287 0 1.290738818e-38
-1.464137673 0.8968778253 0 1.318397507e-38
-1.480347157 0.9333124161 0 1.216982314e-38
-1.490821958 0.9670463204 0 1.106347558e-38
-1.503163695 1.002869725 0 1.060249743e-38
-1.502455831 1.030684471 0 1.069469306e-38
-1.499643207 1.057494879 0 1.032591054e-38
-1.496765494 1.083880663 0 1.041810617e-38
-1.496061087 1.111888885 0 9.588345506e-39
-1.516360164 1.156417131 0 7.00686787e-39
-4.462424278 3.491464376 0 3.503433935e-39
-3.948548794 3.1690588 0 2.950260156e-39
-3.898938656 3.20948267 0 4.886368383e-39
-0 0 0 0
-3.785695314 3.27697444 0 3.134651415e-39
-0 0 0 0
-0 0 0 0
-0 0 0 0
-0 0 0 0
-2.067349672 2.030878782 0 8.389802318e-39
-2.035356045 2.04605031 0 1.152445373e-38
-2.002591133 2.060038328 0 1.180104062e-38
-1.966332197 2.069918394 0 1.161664936e-38
-1.934194326 2.083636522 0 1.161664936e-38
-1.906705618 2.102074623 0 1.124786684e-38
-1.882365584 2.123898506 0 8.389802318e-39
-0.6028934717 0.6962473989 0 1.124786684e-38
-0.5916041732 0.699328661 0 1.954547353e-38
-0.5790500641 0.7007010579 0 2.046742983e-38
-0.5646593571 0.6995432377 0 2.120499487e-38
-0.550373137 0.6981478333 0 2.157377739e-38
-0.5349773765 0.6987125278 0 2.185036428e-38
-0.521371901 0.698967278 0 2.203475554e-38
-0.5072572827 0.6981826425 0 2.194255991e-38
-0.4932457507 0.6971546412 0 2.185036428e-38
-0.4799082577 0.6967095137 0 2.175816865e-38
-0.4666604996 0.6960402131 0 2.175816865e-38
-0.4535060525 0.6951490641 0 2.194255991e-38
-0.4404484332 0.6940383911 0 2.203475554e-38
-0.428016156 0.6935611963 0 2.231134243e-38
-0.4156659842 0.6928822398 0 2.240353806e-38
-0.4034010768 0.6920033097 0 2.258792932e-38
-0.3912244439 0.6909265518 0 2.268012495e-38
-0.3793796003 0.6906628013 0 2.258792932e-38
-0.3682096899 0.6898881197 0 2.249573369e-38
-0.357113868 0.6889454126 0 2.258792932e-38
-0.3460943401 0.6878362298 0 2.249573369e-38
-0.3351540565 0.6865622401 0 2.249573369e-38
-0.3247227073 0.6860292554 0 2.258792932e-38
-0.3143531084 0.6853452921 0 2.286451621e-38
-0.3040473759 0.6845116615 0 2.304890747e-38
-0.2949922085 0.6862860322 0 2.323329873e-38
-0.2840195894 0.6833248734 0 2.332549436e-38
-0.2750248909 0.6848396063 0 2.323329873e-38
-0.2642275095 0.6815752387 0 2.31411031e-38
-0.2544655204 0.6831458807 0 2.295671184e-38
-0.2446310371 0.6824812889 0 2.286451621e-38
-0.2348524481 0.6816782951 0 2.286451621e-38
-0.2251313627 0.6807385087 0 2.304890747e-38
-0.2154699713 0.6796628833 0 2.323329873e-38
-0.2061602026 0.6794099808 0 2.350988562e-38
-0.1966116279 0.6780706644 0 2.350988562e-38
-0.1873944551 0.6775635481 0 2.350988562e-38
-0.1782203168 0.6769323945 0 2.350988562e-38
-0.169090569 0.676178515 0 2.350988562e-38
-0.1600069851 0.6753027439 0 2.323329873e-38
-0.1417501271 0.6732391715 0 2.304890747e-38
-0.1509713233 0.674306035 0 2.31411031e-38
-0.1330091059 0.6729818583 0 2.31411031e-38
-0.1242959723 0.6726117134 0 2.323329873e-38
-0.1156128049 0.6721291542 0 2.332549436e-38
-0.1069607362 0.6715351343 0 2.350988562e-38
-0.09834118932 0.670830071 0 2.350988562e-38
-0.08975527436 0.6700149179 0 2.332549436e-38
-0.08120501786 0.669090271 0 2.323329873e-38
-0.07279966027 0.6690509915 0 2.323329873e-38
-0.06440737098 0.6689063311 0 2.31411031e-38
-0.05594675615 0.6676601171 0 2.31411031e-38
-0.0475981757 0.6673045754 0 2.323329873e-38
-0.03810250759 0.6669124365 0 2.332549436e-38
-0.02948622592 0.6673488617 0 2.31411031e-38
-0.02089594305 0.6686736345 0 2.323329873e-38
-0.01229499746 0.670887351 0 2.240353806e-38
-0 0 0 0
0 0 0 0
0 0 0 0
0 0 0 0
0.1141115129 2.465360403 0 3.411238305e-39
0.1447591931 2.443716049 0 4.701977123e-39
0.174867034 2.421694756 0 3.872216454e-39
0.1082142889 1.09968853 0 5.070759642e-39
0.6554045677 7.692128658 0 3.134651415e-39
0.1194069907 1.076397181 0 1.244641003e-38
0.1315107346 1.064910293 0 1.539667019e-38
0.1438872367 1.057253718 0 1.60420396e-38
0.1566827744 1.053411365 0 1.613423523e-38
0.169564575 1.050401807 0 1.622643086e-38
0.1827395707 1.049205065 0 1.613423523e-38
0.198115766 1.059638619 0 1.585764834e-38
0.2137782425 1.069850326 0 1.539667019e-38
0.2232737392 1.049513102 0 1.244641003e-38
0.2316375673 1.02618134 0 1.429032263e-38
0.2415484786 1.011560321 0 1.539667019e-38
0.2543485463 1.002228975 0 1.60420396e-38
0.2672759295 0.9967885613 0 1.631862649e-38
0.2801037729 0.9911820292 0 1.659521338e-38
0.2936832607 0.988286972 0 1.659521338e-38
0.3099148273 0.9937976599 0 1.641082212e-38
0.3275895417 1.00285089 0 1.539667019e-38
0 0 0 0
0.5976476669 1.675606847 0 1.447471389e-38
0.613139689 1.648678422 0 1.410593137e-38
0.6272949576 1.619774699 0 1.382934448e-38
0.6419073939 1.593574286 0 1.392154011e-38
0.6559292674 1.567277193 0 1.382934448e-38
0.668145895 1.542511582 0 1.392154011e-38
0.6798498631 1.517686725 0 1.4198127e-38
0.6914633512 1.493718386 0 1.465910515e-38
0.7025873065 1.469697952 0 1.51200833e-38
0.713665843 1.446530461 0 1.530447456e-38
0.7242789865 1.42331624 0 1.548886582e-38
0.7358220816 1.402719498 0 1.521227893e-38
0.7464905977 1.381177664 0 1.493569204e-38
0.7567392588 1.359588861 0 1.438251826e-38
0.7670662999 1.338827252 0 1.401373574e-38
0.7769954205 1.318020463 0 1.382934448e-38
0.7865276337 1.29717505 0 1.382934448e-38
0.799841702 1.276044369 0 1.392154011e-38
0.8081139326 1.255388737 0 1.401373574e-38
0.8165571094 1.235554695 0 1.429032263e-38
0.8252022266 1.216528535 0 1.456690952e-38
0.8346507549 1.199115872 0 1.539667019e-38
0.8455438614 1.184094906 0 1.641082212e-38
0.8597419858 1.173826575 0 1.724058278e-38
0.8798205256 1.171384215 0 1.484349641e-38
0.9127776027 1.185265064 0 1.309177944e-38
0.9523901939 1.206367135 0 1.216982314e-38
0.9907528758 1.224350452 0 1.161664936e-38
1.034790039 1.247738242 0 1.124786684e-38
1.081712961 1.271006823 0 1.106347558e-38
1.130726814 1.293437719 0 1.069469306e-38
0 0 0 0
0 0 0 0
0 0 0 0
0 0 0 0
2.349489212 2.352769852 0 3.687825195e-39
2.38406992 2.324889183 0 8.481997947e-39
2.419047832 2.297194719 0 9.127367356e-39
2.457381964 2.272373676 0 9.680541136e-39
2.497711182 2.248946428 0 9.680541136e-39
2.535592318 2.222870827 0 9.772736766e-39
2.571317434 2.195333242 0 9.127367356e-39
2.621378422 2.18249774 0 6.91467224e-39
0 0 0 0
0 0 0 0
0 0 0 0
0 0 0 0
0 0 0 0
0 0 0 0
0 0 0 0
0 0 0 0
0 0 0 0
0 0 0 0
0 0 0 0
2.056309462 1.243382931 0 1.475130078e-39
2.062938452 1.212737918 0 2.120499487e-39
2.076071262 1.186090112 0 2.581477636e-39
0 0 0 0
2.090740919 1.126688719 0 5.255150902e-39
2.103656054 1.100230575 0 1.014151928e-38
2.109993458 1.070459366 0 1.023371491e-38
5.200059891 2.557616949 0 8.850780467e-39
5.232256889 2.493412256 0 6.361498461e-39
0 0 0 0
0 0 0 0
5.328070641 2.289117813 0 3.780020824e-39
5.356415272 2.221984148 0 4.794172753e-39
5.384842873 2.154871464 0 5.900520311e-39
4.533527374 1.748431683 0 3.872216454e-39
4.563577175 1.69445765 0 4.148803344e-39
4.5920434 1.639668107 0 4.148803344e-39
4.619852543 1.584429979 0 4.148803344e-39
4.647947311 1.529064178 0 4.148803344e-39
4.675378323 1.473241806 0 4.056607714e-39
4.702138901 1.416971326 0 3.964412084e-39
4.728222847 1.360260487 0 3.964412084e-39
5.721283436 1.493481159 0 2.950260156e-39
5.687180042 1.559034824 0 2.581477636e-39
5.75560236 1.427564263 0 3.226847045e-39
5.791108608 1.36149168 0 3.411238305e-39
5.827809811 1.295194864 0 3.687825195e-39
5.861794472 1.227797031 0 3.872216454e-39
5.899906158 1.160723448 0 4.056607714e-39
5.931349277 1.091815114 0 4.148803344e-39
5.974798203 1.024511456 0 4.148803344e-39
6.001683712 0.9537939429 0 3.872216454e-39
6.031687737 0.8831548095 0 3.503433935e-39
6.061850071 0.8120539784 0 1.843912597e-39
5.365512848 0.6521478891 0 2.581477636e-39
5.427275658 0.5876728892 0 5.992715941e-39
5.458031654 0.5226641893 0 5.623933422e-39
0 0 0 0
5.543123245 0.3924726844 0 5.255150902e-39
5.58948946 0.326202631 0 6.269302831e-39
5.627066612 0.2584763169 0 6.269302831e-39
5.647827625 0.1893295497 0 3.872216454e-39
0 0 0 0
0.5499790907 0.004799590446 0 1.622643086e-38
