# .PCD v0.7 - Point Cloud Data file format
VERSION 0.7
FIELDS x y z rgb
SIZE 4 4 4 4
TYPE F F F F
COUNT 1 1 1 1
WIDTH 500
HEIGHT 1
VIEWPOINT 0 0 0 1 0 0 0
POINTS 500
DATA ascii
1.811893821 -0.01961707696 0 6.177107201e-39
1.804535151 -0.04095989838 0 1.373714885e-38
1.801923156 -0.06230448186 0 1.567325708e-38
1.801056862 -0.08368481696 0 1.585764834e-38
1.810918212 -0.1056951582 0 1.456690952e-38
1.832479715 -0.1287917048 0 8.574193577e-39
0 -0 0 0
0 -0 0 0
3.70716548 -0.3935843408 0 6.269302831e-39
3.729046822 -0.4407212436 0 8.389802318e-39
3.760243654 -0.4897256792 0 8.850780467e-39
3.796738148 -0.5403757095 0 8.850780467e-39
3.828759193 -0.596848309 0 8.205411058e-39
3.864456415 -0.6515645981 0 4.701977123e-39
3.904299498 -0.7081447244 0 2.950260156e-39
3.933509827 -0.7639045715 0 7.652237279e-39
3.964868784 -0.8211061954 0 7.00686787e-39
4.637056351 -1.020397544 0 3.687825195e-39
4.588995934 -1.069606185 0 5.992715941e-39
4.547231197 -1.119455218 0 4.240998974e-39
1.291273713 -0.3349149525 0 9.127367356e-39
1.280270934 -0.3490491211 0 1.751716967e-38
1.273924708 -0.3643365502 0 1.963766916e-38
1.267395973 -0.3795209527 0 2.009864731e-38
1.25869596 -0.4106830657 0 1.982206042e-38
1.262977958 -0.4294677377 0 1.890010412e-38
1.265100837 -0.4477544129 0 1.585764834e-38
1.260393739 -0.463742137 0 5.808324681e-39
7.741221428 -2.957677364 0 2.489282006e-39
0 -0 0 0
7.62577486 -3.132267475 0 2.581477636e-39
0 -0 0 0
0 -0 0 0
0 -0 0 0
0 -0 0 0
0 -0 0 0
0 -0 0 0
0 -0 0 0
0 -0 0 0
0 -0 0 0
0 -0 0 0
2.126320601 -1.243032575 0 7.560041649e-39
2.098315477 -1.262803555 0 1.23542144e-38
2.071004629 -1.282589555 0 1.309177944e-38
2.041844606 -1.300811887 0 1.346056196e-38
2.013395071 -1.319049001 0 1.382934448e-38
1.985643864 -1.337331057 0 1.401373574e-38
1.95775497 -1.355122209 0 1.4198127e-38
1.931749821 -1.371314645 0 1.438251826e-38
1.904910207 -1.38808012 0 1.456690952e-38
1.877953291 -1.404391885 0 1.475130078e-38
1.85168004 -1.420858026 0 1.493569204e-38
1.826859951 -1.438126564 0 1.502788767e-38
1.802674532 -1.455628037 0 1.51200833e-38
1.78295815 -1.47657907 0 1.502788767e-38
1.763762355 -1.497911334 0 1.207762751e-38
0 -0 0 0
0 -0 0 0
0 -0 0 0
0 -0 0 0
0 -0 0 0
0 -0 0 0
0 -0 0 0
0 -0 0 0
0 -0 0 0
0 -0 0 0
0 -0 0 0
4.257257938 -4.873355389 0 5.531737792e-39
4.189617634 -4.915870667 0 7.00686787e-39
4.122853756 -4.958999634 0 7.191259129e-39
4.055664539 -5.001230717 0 7.191259129e-39
3.92265296 -5.097393036 0 5.531737792e-39
3.989918709 -5.044915676 0 6.82247661e-39
0 -0 0 0
6.255587578 -8.559791565 0 2.304890747e-39
6.151360512 -8.639907837 0 2.765868896e-39
0 -0 0 0
0 -0 0 0
0 -0 0 0
0 -0 0 0
0 -0 0 0
0 -0 0 0
0 -0 0 0
0 -0 0 0
0 -0 0 0
0 -0 0 0
0 -0 0 0
0 -0 0 0
0 -0 0 0
0 -0 0 0
0 -0 0 0
0 -0 0 0
0 -0 0 0
0 -0 0 0
0 -0 0 0
0 -0 0 0
0 -0 0 0
0 -0 0 0
0 -0 0 0
0 -0 0 0
0 -0 0 0
0 -0 0 0
0 -0 0 0
2.398075342 -8.676706314 0 4.609781493e-39
2.290876627 -8.707691193 0 4.978564013e-39
1.487524509 -5.952962875 0 8.297606688e-39
1.175427079 -4.964753628 0 3.319042675e-39
1.027801037 -4.594441414 0 4.056607714e-39
0.9668163061 -4.619920254 0 8.205411058e-39
0.9106101394 -4.641518116 0 8.666389207e-39
0.8538333774 -4.661447048 0 8.666389207e-39
0.796869278 -4.681666374 0 8.850780467e-39
0.7398402095 -4.703165054 0 8.666389207e-39
0.6823986173 -4.723966599 0 8.574193577e-39
0.6248096228 -4.746048927 0 8.481997947e-39
0 -0 0 0
0 -0 0 0
0 -0 0 0
0 -0 0 0
0 -0 0 0
0 -0 0 0
0 -0 0 0
0 -0 0 0
0 -0 0 0
0 -0 0 0
-0.009058371186 -1.672975421 0 9.864932395e-39
-0.0287210308 -1.628746748 0 1.161664936e-38
-0.04855717719 -1.626275301 0 1.465910515e-38
-0.06846416742 -1.626559854 0 1.594984397e-38
-0.08887288719 -1.635587215 0 1.613423523e-38
-0.1094466448 -1.643359423 0 1.631862649e-38
-0.1302234977 -1.650871873 0 1.631862649e-38
-0.1530265957 -1.658957124 0 1.622643086e-38
-0.1753003895 -1.667812586 0 1.613423523e-38
-0.1978236586 -1.676367998 0 1.585764834e-38
-0.22046417 -1.68362689 0 1.576545271e-38
-0.2433215231 -1.690579295 0 1.548886582e-38
-0.2665458322 -1.698209167 0 1.530447456e-38
-0.2903398871 -1.707491279 0 1.502788767e-38
-0.3151340783 -1.720375419 0 1.521227893e-38
-0.3404951096 -1.7338835 0 1.521227893e-38
-0.3650206327 -1.741149426 0 1.502788767e-38
-0.3904390633 -1.750997782 0 1.429032263e-38
-0.4166264832 -1.762425423 0 1.207762751e-38
-0.4398390949 -1.758837819 0 4.701977123e-39
-1.363411784 -5.178525925 0 2.950260156e-39
-1.405619144 -5.082200527 0 4.333194604e-39
-0.255376786 -0.8807222843 0 5.900520311e-39
-0.2610441744 -0.8602656126 0 1.438251826e-38
-0.2668489814 -0.8417128921 0 1.622643086e-38
-0.2728624344 -0.825049758 0 1.631862649e-38
-0.2791564167 -0.8102596402 0 1.659521338e-38
-0.2851260304 -0.7954421043 0 1.677960464e-38
-0.2907722294 -0.780602634 0 1.705619152e-38
-0.2960946858 -0.7657473087 0 1.733277841e-38
-0.301466912 -0.751809597 0 1.770156093e-38
-0.3070548177 -0.7376437783 0 1.807034345e-38
-0.3127202392 -0.7243804336 0 1.85313216e-38
-0.3176837265 -0.7101837993 0 1.890010412e-38
-0.322750181 -0.6968904734 0 1.908449538e-38
-0.327955544 -0.684489727 0 1.926888664e-38
-0.3324486613 -0.671177268 0 1.936108227e-38
-0.3366502523 -0.6578660011 0 1.94532779e-38
-0.3410279453 -0.6454455256 0 1.94532779e-38
-0.3456178904 -0.6339024305 0 1.94532779e-38
-0.3499644399 -0.62235111 0 1.954547353e-38
-0.3540687561 -0.6107956171 0 1.982206042e-38
-0.3584440053 -0.6000990272 0 2.009864731e-38
-0.3624973893 -0.5894570351 0 2.03752342e-38
-0.3661344945 -0.5789391398 0 2.065182109e-38
-0.3695648313 -0.5684239268 0 2.102060361e-38
-0.3733451962 -0.5587462187 0 2.12971905e-38
-0.376940906 -0.5490642786 0 2.148158176e-38
-0.3803530633 -0.5393807292 0 2.166597302e-38
-0.3835819066 -0.5296988487 0 2.157377739e-38
-0.3866278231 -0.5200220346 0 2.148158176e-38
-0.3894919157 -0.5103529096 0 2.138938613e-38
-0.3921743631 -0.5006947517 0 2.12971905e-38
-0.3953028917 -0.4918298423 0 2.12971905e-38
-0.3982708156 -0.4829661846 0 2.120499487e-38
-0.4016580582 -0.4736156762 0 2.12971905e-38
-0.4047016501 -0.4644055963 0 2.148158176e-38
-0.4095719755 -0.4574350715 0 2.175816865e-38
-0.4129741788 -0.4489457905 0 2.194255991e-38
-0.4162228405 -0.4404481649 0 2.22191468e-38
-0.4193181396 -0.4319447875 0 2.231134243e-38
-0.4222604036 -0.4234384596 0 2.240353806e-38
-0.4250504673 -0.4149314165 0 2.258792932e-38
-0.4276885688 -0.4064264596 0 2.240353806e-38
-0.4301754236 -0.3979260623 0 2.240353806e-38
-0.4332547486 -0.390101701 0 2.231134243e-38
-0.4354497194 -0.3816078305 0 2.22191468e-38
-0.4375604093 -0.373049438 0 2.22191468e-38
-0.4398426116 -0.3656809032 0 2.231134243e-38
-0.4420097172 -0.3583133221 0 2.240353806e-38
-0.444062084 -0.3509485126 0 2.277232058e-38
-0.4467924237 -0.3441984057 0 2.31411031e-38
-0.4486241937 -0.3368343115 0 2.341768999e-38
-0.4503424168 -0.3294779658 0 2.350988562e-38
-0.4519476295 -0.3221309781 0 2.350988562e-38
-0.4542616606 -0.3153653741 0 2.350988562e-38
-0.4564777315 -0.3085920513 0 2.350988562e-38
-0.4585960507 -0.3018123507 0 2.332549436e-38
-0.4621923864 -0.2869045436 0 2.304890747e-38
-0.4597744048 -0.2944885194 0 2.31411031e-38
-0.4636083245 -0.2807691395 0 2.295671184e-38
-0.4649454057 -0.2746375799 0 2.286451621e-38
-0.4662038982 -0.2685104907 0 2.304890747e-38
-0.4682561457 -0.2628786564 0 2.332549436e-38
-0.4702409506 -0.2572343051 0 2.350988562e-38
-0.4712758064 -0.2511077523 0 2.350988562e-38
-0.472233057 -0.2449897081 0 2.350988562e-38
-0.4740055501 -0.2393319011 0 2.350988562e-38
-0.4757108092 -0.2336646616 0 2.350988562e-38
-0.4764466286 -0.2275579572 0 2.350988562e-38
-0.47801283 -0.2218845636 0 2.350988562e-38
-0.4812518954 -0.2147688121 0 2.350988562e-38
-0.4829580784 -0.2083926946 0 2.332549436e-38
-0.4845802486 -0.2020073384 0 2.323329873e-38
-0.4861184955 -0.1956138611 0 2.304890747e-38
-0.488505125 -0.1895751059 0 2.295671184e-38
-0.489880085 -0.1831570417 0 2.295671184e-38
-0.4921120703 -0.1770726442 0 2.304890747e-38
-0.4933234155 -0.1706341505 0 2.31411031e-38
-0.4953999519 -0.1645080447 0 2.341768999e-38
-0.4964475632 -0.1580533087 0 2.350988562e-38
-0.498367995 -0.1518893391 0 2.350988562e-38
-0.5022458434 -0.1385285407 0 2.350988562e-38
-0.5002118349 -0.1457022727 0 2.350988562e-38
-0.5039238334 -0.1322943419 0 2.350988562e-38
-0.5055244565 -0.1260398179 0 2.350988562e-38
-0.5070474744 -0.1197659373 0 2.350988562e-38
-0.508492589 -0.1134736687 0 2.350988562e-38
-0.5108383298 -0.1073696613 0 2.341768999e-38
-0.5131106377 -0.1012249142 0 2.31411031e-38
-0.5153089762 -0.09504030645 0 2.295671184e-38
-0.5223605633 -0.08966261894 0 2.231134243e-38
-0 -0 0 0
-3.084196091 -0.451025784 0 8.666389207e-39
-3.09648633 -0.4137011468 0 8.758584837e-39
-3.108127117 -0.3777668476 0 8.758584837e-39
-3.122569799 -0.3397620022 0 8.758584837e-39
-3.138537884 -0.3016450107 0 8.758584837e-39
-3.154038906 -0.2631794214 0 8.666389207e-39
-3.169066906 -0.2243724763 0 8.574193577e-39
-3.183615923 -0.1852292717 0 8.574193577e-39
-3.198678732 -0.1458012909 0 8.481997947e-39
-3.213251114 -0.1060246676 0 8.481997947e-39
-3.227327108 -0.0659032315 0 8.481997947e-39
-3.238900185 -0.02542981133 0 8.481997947e-39
-3.246963978 0.01530992799 0 8.574193577e-39
-3.261512995 0.0563692674 0 8.574193577e-39
-3.248449087 0.1003932506 0 8.574193577e-39
-3.213011742 0.1386058629 0 8.574193577e-39
-3.238037348 0.179341957 0 8.481997947e-39
-1.010689974 0.06837309152 0 7.00686787e-39
-0.9958236814 0.07960005105 0 1.447471389e-38
-0.9878064394 0.09111709893 0 1.85313216e-38
-0.9846304655 0.1029702947 0 1.908449538e-38
-0.9803192616 0.1146431193 0 1.908449538e-38
-0.8558700085 0.1107047498 0 1.899229975e-38
-0.8366319537 0.118625693 0 1.890010412e-38
-0.8222722411 0.1268558353 0 1.908449538e-38
-0.8127700686 0.1355757713 0 1.926888664e-38
-0.8088555932 0.1464127749 0 1.94532779e-38
-0.8029707074 0.1560836881 0 1.963766916e-38
-0.7989296913 0.1660341024 0 1.982206042e-38
-0.796718657 0.1763386279 0 1.991425605e-38
-0.7953482866 0.1868422478 0 1.991425605e-38
-0.7957803011 0.1978223473 0 1.991425605e-38
-0.8008972406 0.210113436 0 1.982206042e-38
-0.8077558279 0.2231020331 0 1.94532779e-38
-0.826896131 0.2399245352 0 1.410593137e-38
-0 0 0 0
-0 0 0 0
-0 0 0 0
-0 0 0 0
-0 0 0 0
-3.726042032 1.396084785 0 3.595629565e-39
-3.795132637 1.475856662 0 1.567325708e-39
-3.803449392 1.533614516 0 5.716129052e-39
-3.823831081 1.597201467 0 6.54588972e-39
-3.852394104 1.665493727 0 6.45369409e-39
-2.496793747 1.116353512 0 2.489282006e-39
-2.482768774 1.147206783 0 7.099063499e-39
-2.473777771 1.180467963 0 8.850780467e-39
-2.467033625 1.21500814 0 8.481997947e-39
-2.464270592 1.251825094 0 8.297606688e-39
-2.459584713 1.295701623 0 7.099063499e-39
-1.537636518 0.8355681896 0 6.177107201e-39
-1.510141134 0.8460699916 0 1.115567121e-38
-1.487829804 0.8590033054 0 1.263080129e-38
-1.475751996 0.8776361942 0 1.272299692e-38
-1.470264077 0.9002773762 0 1.272299692e-38
-1.486432314 0.9367858171 0 1.170884499e-38
-1.49518621 0.9695060849 0 1.069469306e-38
-1.508330584 1.005936027 0 1.041810617e-38
-1.505109668 1.032119274 0 1.041810617e-38
-1.503097296 1.059537411 0 1.023371491e-38
-1.504930615 1.121745467 0 8.942976097e-39
-1.502245069 1.088248372 0 1.014151928e-38
-1.535395861 1.174328923 0 5.255150902e-39
-4.478001118 3.513740301 0 3.964412084e-39
-3.941003561 3.172061443 0 3.780020824e-39
-0 0 0 0
-0 0 0 0
-3.803772211 3.301921606 0 3.411238305e-39
-0 0 0 0
-0 0 0 0
-0 0 0 0
-2.091657162 2.005835056 0 4.148803344e-39
-2.061649323 2.026692629 0 1.032591054e-38
-2.026130199 2.046752691 0 1.124786684e-38
-1.99158144 2.062351465 0 1.161664936e-38
-1.956959486 2.077408552 0 1.161664936e-38
-1.923623562 2.093399525 0 1.161664936e-38
-1.892863989 2.111862183 0 1.069469306e-38
-0.6140657067 0.7024332285 0 6.91467224e-39
-0.599475503 0.7031395435 0 1.585764834e-38
-0.5856019258 0.704362452 0 2.028303857e-38
-0.5705317855 0.7037965059 0 2.083621235e-38
-0.5555661917 0.7029667497 0 2.102060361e-38
-0.5407099128 0.7018752098 0 2.120499487e-38
-0.5129901767 0.7014285922 0 2.138938613e-38
-0.5265673399 0.7013243437 0 2.138938613e-38
-0.4990364015 0.7004018426 0 2.148158176e-38
-0.4846178591 0.6983162761 0 2.157377739e-38
-0.4714479744 0.6976394653 0 2.175816865e-38
-0.4583703279 0.6967443228 0 2.203475554e-38
-0.4459267855 0.696475625 0 2.231134243e-38
-0.4330324829 0.6951574683 0 2.258792932e-38
-0.4207578003 0.694483161 0 2.268012495e-38
-0.4085672498 0.6936121583 0 2.277232058e-38
-0.3969598711 0.6934146285 0 2.277232058e-38
-0.3849345744 0.6921628118 0 2.268012495e-38
-0.3734773099 0.6916001439 0 2.258792932e-38
-0.3607664108 0.6915544271 0 2.240353806e-38
-0.3503037393 0.6901907325 0 2.240353806e-38
-0.3399169147 0.6886802316 0 2.240353806e-38
-0.3296080828 0.6870244741 0 2.258792932e-38
-0.3198012114 0.6861313581 0 2.277232058e-38
-0.3100556433 0.685105443 0 2.304890747e-38
-0.300373286 0.6839479804 0 2.332549436e-38
-0.2907556593 0.6826603413 0 2.341768999e-38
-0.2823492289 0.6840167642 0 2.332549436e-38
-0.2732064128 0.6834136844 0 2.332549436e-38
-0.2641125023 0.6826921105 0 2.304890747e-38
-0.255068928 0.6818532348 0 2.295671184e-38
-0.2440558672 0.6816250682 0 2.286451621e-38
-0.2342890203 0.6808146834 0 2.304890747e-38
-0.2245801538 0.6798674464 0 2.323329873e-38
-0.2149308026 0.6787847877 0 2.332549436e-38
-0.2053430825 0.6775678992 0 2.350988562e-38
-0.1960967034 0.6771787405 0 2.350988562e-38
-0.1868918091 0.6766649485 0 2.350988562e-38
-0.1774754375 0.6750603914 0 2.350988562e-38
-0.1683700979 0.6742970347 0 2.350988562e-38
-0.1593108922 0.6734122038 0 2.341768999e-38
-0.1505178809 0.6733827591 0 2.323329873e-38
-0.1417498142 0.6732391715 0 2.304890747e-38
-0.1326978505 0.6720240116 0 2.277232058e-38
-0.1239972785 0.6716499925 0 2.277232058e-38
-0.1153259948 0.671163857 0 2.286451621e-38
-0.1066862568 0.6705662608 0 2.304890747e-38
-0.09807916731 0.6698578 0 2.323329873e-38
-0.08950597048 0.6690393686 0 2.332549436e-38
-0.08096776903 0.6681116819 0 2.350988562e-38
-0.07257474214 0.6680695415 0 2.350988562e-38
-0.0640995279 0.6669267416 0 2.323329873e-38
-0.05574682727 0.6666733623 0 2.304890747e-38
-0.04741057754 0.6663154364 0 2.286451621e-38
-0.02967458963 0.6663395762 0 2.240353806e-38
-0.03909176961 0.6658534408 0 2.268012495e-38
-0.02112957835 0.6686662436 0 2.22191468e-38
-0.01267838385 0.6788816452 0 2.120499487e-38
-0 0 0 0
0 0 0 0
0 0 0 0
0 0 0 0
0.1129747704 2.459406376 0 4.425390233e-39
0.1438480169 2.442768335 0 4.517585863e-39
0.1745957285 2.429735184 0 3.411238305e-39
0.6533932686 7.700328827 0 3.780020824e-39
0.7567852736 7.732052803 0 5.255150902e-39
0 0 0 0
0 0 0 0
1.157466292 7.80059433 0 4.886368383e-39
1.06529057 7.848029137 0 3.964412084e-39
0 0 0 0
0 0 0 0
0 0 0 0
0 0 0 0
0.4181843996 1.969083786 0 5.623933422e-39
0.4383760095 1.945215225 0 9.311758616e-39
0.456880182 1.916288137 0 1.170884499e-38
0.4936375618 1.851317883 0 1.253860566e-38
0.4737598002 1.883325696 0 1.216982314e-38
0.5104834437 1.819754601 0 1.281519255e-38
0.5271636844 1.789987326 0 1.309177944e-38
0.5431602001 1.760096908 0 1.382934448e-38
0.5590881705 1.73199904 0 1.429032263e-38
0.5740634203 1.702838898 0 1.447471389e-38
0.5887108445 1.674528122 0 1.438251826e-38
0.6037554145 1.648943663 0 1.4198127e-38
0.6178835034 1.622318029 0 1.392154011e-38
0.6317927837 1.596535921 0 1.382934448e-38
0.6451402307 1.570667982 0 1.382934448e-38
0.658318758 1.545644283 0 1.392154011e-38
0.6712247133 1.520427942 0 1.4198127e-38
0.6833707094 1.497437954 0 1.475130078e-38
0.6946251988 1.473477721 0 1.521227893e-38
0.7058289051 1.45037055 0 1.539667019e-38
0.7165676355 1.427214026 0 1.60420396e-38
0.7273017168 1.404904366 0 1.521227893e-38
0.7380653024 1.383431673 0 1.475130078e-38
0.7484089136 1.361910462 0 1.429032263e-38
0.7583334446 1.340347052 0 1.401373574e-38
0.7688466907 1.32047677 0 1.382934448e-38
0.7794979215 1.30141151 0 1.382934448e-38
0.7887467146 1.28058362 0 1.392154011e-38
0.8000174761 1.258194447 0 1.392154011e-38
0.8095299006 1.238976002 0 1.429032263e-38
0.8198051453 1.221376419 0 1.447471389e-38
0.8303363323 1.20453763 0 1.502788767e-38
0.8411543965 1.188442349 0 1.585764834e-38
0.8552284837 1.177119136 0 1.751716967e-38
0.8733361959 1.171240687 0 1.548886582e-38
0.9066196084 1.184949279 0 1.355275759e-38
0.944696188 1.203515291 0 1.253860566e-38
0.9846234918 1.222872376 0 1.198543188e-38
0 0 0 0
0 0 0 0
0 0 0 0
0 0 0 0
0 0 0 0
0 0 0 0
0 0 0 0
2.239805222 2.253131628 0 4.701977123e-39
2.298460484 2.250815153 0 9.403954246e-39
2.340082407 2.230763197 0 1.032591054e-38
2.379378319 2.207957268 0 1.060249743e-38
2.417739868 2.183826208 0 8.205411058e-39
4.292161465 3.773403883 0 2.581477636e-39
4.512686729 3.86100769 0 1.014151928e-39
4.555261135 3.796642542 0 1.567325708e-39
4.590316296 3.730445147 0 1.475130078e-39
0 0 0 0
0 0 0 0
0 0 0 0
0 0 0 0
0 0 0 0
0 0 0 0
4.823397636 3.269367695 0 1.936108227e-39
0 0 0 0
0 0 0 0
0 0 0 0
0 0 0 0
0 0 0 0
0 0 0 0
0 0 0 0
2.114907265 1.13875854 0 5.070759642e-39
2.111322641 1.102832913 0 9.772736766e-39
2.118769407 1.073052168 0 1.041810617e-38
5.198699474 2.551314116 0 9.127367356e-39
5.234864712 2.487931967 0 6.361498461e-39
5.272074699 2.424878836 0 4.609781493e-39
0 0 0 0
5.38223362 2.156006098 0 6.177107201e-39
5.355639458 2.223852634 0 4.886368383e-39
5.32859087 2.290440798 0 4.148803344e-39
4.532917023 1.750013232 0 3.780020824e-39
4.560173512 1.695004463 0 4.148803344e-39
4.586762905 1.639586806 0 4.148803344e-39
4.615516186 1.584742665 0 4.240998974e-39
4.645513535 1.530059814 0 4.240998974e-39
4.673910618 1.474572062 0 4.056607714e-39
4.72486496 1.361079335 0 3.780020824e-39
4.69877243 1.417744994 0 3.872216454e-39
5.758538723 1.424028158 0 3.226847045e-39
5.726122379 1.494741082 0 3.134651415e-39
4.784990311 1.313511133 0 1.106347558e-39
5.796926498 1.358588457 0 3.411238305e-39
5.833593845 1.292209625 0 3.780020824e-39
5.867544651 1.224725127 0 3.872216454e-39
5.903657913 1.157183528 0 4.148803344e-39
5.938011169 1.088758349 0 4.240998974e-39
5.971569538 1.019665837 0 4.148803344e-39
6.003335476 0.9497622252 0 3.964412084e-39
6.035271168 0.8793752789 0 3.595629565e-39
6.067370892 0.8084845543 0 1.936108227e-39
5.367952347 0.6486438513 0 2.304890747e-39
5.458753109 0.5256176591 0 5.716129052e-39
5.425184727 0.5884053111 0 5.808324681e-39
0 0 0 0
5.540061951 0.3932286501 0 4.886368383e-39
5.586494923 0.3260278702 0 6.54588972e-39
5.627111435 0.2574932575 0 6.45369409e-39
5.652890682 0.1875249445 0 4.148803344e-39
6.019722939 0.12399216 0 2.397086376e-39
6.051805019 0.04858709872 0 3.411238305e-39
