# .PCD v0.7 - Point Cloud Data file format
VERSION 0.7
FIELDS x y z rgb
SIZE 4 4 4 4
TYPE F F F F
COUNT 1 1 1 1
WIDTH 500
HEIGHT 1
VIEWPOINT 0 0 0 1 0 0 0
POINTS 500
DATA ascii
2.277962208 -0.01313211117 0 1.410593137e-38
2.27068758 -0.03766428679 0 1.401373574e-38
2.269147635 -0.06220500544 0 1.364495322e-38
2.268341541 -0.08675611019 0 1.161664936e-38
2.335188389 -0.1146310568 0 8.297606688e-39
0 -0 0 0
0 -0 0 0
0 -0 0 0
0 -0 0 0
0 -0 0 0
0 -0 0 0
0 -0 0 0
0 -0 0 0
0 -0 0 0
6.35500288 -1.061218977 0 5.347346532e-39
6.332507133 -1.138291717 0 6.269302831e-39
6.309078693 -1.214970112 0 6.269302831e-39
6.283743858 -1.291041613 0 6.45369409e-39
6.259447098 -1.367104888 0 5.531737792e-39
0.4939452708 -0.1143113971 0 1.152445373e-38
0.4847198129 -0.1185230464 0 2.000645168e-38
0.4783720374 -0.1232727543 0 2.240353806e-38
0.4682039917 -0.1339925826 0 2.350988562e-38
0.4719817638 -0.1278835386 0 2.332549436e-38
0.4634394646 -0.1395702362 0 2.350988562e-38
0.4576573074 -0.1447403729 0 2.350988562e-38
0.4537197351 -0.1504073888 0 2.350988562e-38
0.4506580532 -0.156321153 0 2.350988562e-38
0.4484599233 -0.1625198871 0 2.350988562e-38
0.4471119344 -0.169041127 0 2.350988562e-38
0.4465995729 -0.1759227514 0 2.350988562e-38
0.4459820986 -0.1828222573 0 2.350988562e-38
0.447098881 -0.1905218512 0 2.350988562e-38
0.4517452419 -0.1999055743 0 2.350988562e-38
0.4562164247 -0.2094530314 0 2.350988562e-38
0.4622379243 -0.2201819867 0 2.277232058e-38
0 -0 0 0
0 -0 0 0
0 -0 0 0
0 -0 0 0
0 -0 0 0
0 -0 0 0
0 -0 0 0
0 -0 0 0
0 -0 0 0
0 -0 0 0
0 -0 0 0
0 -0 0 0
0 -0 0 0
0 -0 0 0
7.281217575 -5.274652004 0 4.333194604e-39
7.222521782 -5.369839668 0 5.162955272e-39
4.912597179 -3.747856855 0 3.595629565e-39
4.404321671 -3.447259903 0 1.382934448e-39
4.047018051 -3.24926877 0 2.397086376e-39
3.62973094 -2.988956451 0 4.056607714e-39
3.603110075 -3.042737961 0 8.574193577e-39
3.574200392 -3.095008373 0 9.035171727e-39
3.508564949 -3.204914093 0 9.403954246e-39
3.543800354 -3.146362782 0 9.219562986e-39
3.477501631 -3.257637978 0 9.219562986e-39
3.444946527 -3.309391499 0 9.219562986e-39
3.41306138 -3.362245083 0 8.850780467e-39
3.381095409 -3.415528059 0 5.623933422e-39
0 -0 0 0
0 -0 0 0
0 -0 0 0
0 -0 0 0
0 -0 0 0
0 -0 0 0
0 -0 0 0
0 -0 0 0
0 -0 0 0
1.062165618 -1.385756135 0 1.041810617e-38
1.015949249 -1.360533357 0 1.060249743e-38
0.9705383778 -1.334374428 0 1.170884499e-38
0.9461797476 -1.335856557 0 1.484349641e-38
0.9293189645 -1.347640634 0 1.751716967e-38
0.9173266292 -1.366684914 0 1.733277841e-38
0.905549109 -1.386476398 0 1.751716967e-38
0.8939537406 -1.40703094 0 1.751716967e-38
0.88250947 -1.428362131 0 1.733277841e-38
0.8701550961 -1.448768497 0 1.714838715e-38
0.8561432362 -1.469836593 0 1.696399589e-38
0.8451029658 -1.488873839 0 1.696399589e-38
0.8327742815 -1.506096959 0 1.677960464e-38
0.819691658 -1.522349 0 1.668740901e-38
0.8072785139 -1.540266991 0 1.668740901e-38
0.7995634079 -1.567896128 0 1.687180026e-38
0.7926643491 -1.598230004 0 1.687180026e-38
0.7808423638 -1.619595408 0 1.668740901e-38
0.7690662146 -1.641799569 0 1.650301775e-38
0.7548204064 -1.659389973 0 1.493569204e-38
0.7342191339 -1.663143396 0 7.283454759e-39
1.972512722 -4.769183636 0 4.794172753e-39
2.067276716 -4.828029633 0 3.134651415e-39
1.891675472 -4.741580963 0 3.964412084e-39
0 -0 0 0
0.3266167641 -0.8824978471 0 2.581477636e-39
0.3114779294 -0.8752271533 0 1.180104062e-38
0.2972212434 -0.8696094155 0 1.751716967e-38
0.2825320661 -0.8618727922 0 1.825473471e-38
0.2680847943 -0.8539060354 0 1.862351723e-38
0.2535958588 -0.8447563052 0 1.890010412e-38
0.2399303019 -0.8373018503 0 1.908449538e-38
0.2262300551 -0.8286742568 0 1.917669101e-38
0.2132862657 -0.8217723966 0 1.926888664e-38
0.1998418719 -0.8148522973 0 1.936108227e-38
0.1858337075 -0.8068765998 0 1.954547353e-38
0.1720914543 -0.7986698151 0 1.954547353e-38
0.1586192399 -0.790237844 0 1.963766916e-38
0.1454198509 -0.7815869451 0 1.963766916e-38
0.132834807 -0.7746940851 0 1.954547353e-38
0.1204743907 -0.7676033974 0 1.963766916e-38
0.1083416268 -0.7603197098 0 1.963766916e-38
0.09669288993 -0.7548320889 0 1.982206042e-38
0.08522114903 -0.7491684556 0 2.000645168e-38
0.07392936945 -0.743332684 0 2.009864731e-38
0.05278761312 -0.7310967445 0 2.028303857e-38
0.06281939894 -0.7373287678 0 2.028303857e-38
0.04285948724 -0.7257354856 0 2.046742983e-38
0.03303528205 -0.7192417383 0 2.03752342e-38
0.02342093363 -0.7136157155 0 2.046742983e-38
0.01393985096 -0.7068625689 0 2.055962546e-38
0.00464656204 -0.7009845376 0 2.065182109e-38
-0.004490786698 -0.6949855089 0 2.065182109e-38
-0.01348984241 -0.6898680925 0 2.074401672e-38
-0.02235538885 -0.6846351027 0 2.092840798e-38
-0.03108660318 -0.6792890429 0 2.102060361e-38
-0.03968173265 -0.6738325953 0 2.102060361e-38
-0.04813907295 -0.6682683825 0 2.111279924e-38
-0.05807700753 -0.6624591351 0 2.138938613e-38
-0.06642729044 -0.659663856 0 2.148158176e-38
-0.07448902726 -0.6547765732 0 2.166597302e-38
-0.08205873519 -0.6468155384 0 2.148158176e-38
-0.09012804925 -0.6437211037 0 2.148158176e-38
-0.09782830626 -0.6385496855 0 2.166597302e-38
-0.105410412 -0.6332871914 0 2.175816865e-38
-0.1130499244 -0.6289203167 0 2.175816865e-38
-0.1204044074 -0.6234803796 0 2.175816865e-38
-0.1276373565 -0.6179560423 0 2.185036428e-38
-0.1349633485 -0.6133261323 0 2.185036428e-38
-0.1421905458 -0.6086105704 0 2.185036428e-38
-0.149213478 -0.6038371325 0 2.185036428e-38
-0.1562422216 -0.5989569426 0 2.175816865e-38
-0.1631702036 -0.5939961672 0 2.175816865e-38
-0.1702735722 -0.5899177194 0 2.175816865e-38
-0.1770089269 -0.5847981572 0 2.185036428e-38
-0.183942616 -0.5805567503 0 2.194255991e-38
-0.1907969266 -0.5762339234 0 2.22191468e-38
-0.1975698322 -0.5718314052 0 2.231134243e-38
-0.2039221972 -0.5664095283 0 2.240353806e-38
-0.2105187774 -0.5618557334 0 2.258792932e-38
-0.2170318663 -0.5572263002 0 2.258792932e-38
-0.2234603614 -0.5525228381 0 2.268012495e-38
-0.2299993038 -0.5487489104 0 2.268012495e-38
-0.2359853983 -0.5440219641 0 2.268012495e-38
-0.2418900877 -0.5392311215 0 2.277232058e-38
-0.2477121204 -0.5343778729 0 2.286451621e-38
-0.2534514368 -0.5294632912 0 2.286451621e-38
-0.259550035 -0.5253853798 0 2.277232058e-38
-0.265586257 -0.5212378502 0 2.277232058e-38
-0.2715596557 -0.5170215964 0 2.286451621e-38
-0.2774696946 -0.5127373338 0 2.304890747e-38
-0.2838020921 -0.5092596412 0 2.31411031e-38
-0.2895930707 -0.5048364997 0 2.323329873e-38
-0.3018417358 -0.4952691793 0 2.350988562e-38
-0.2953180969 -0.5003480911 0 2.332549436e-38
-0.3076123893 -0.4917058051 0 2.350988562e-38
-0.3128007054 -0.4872337282 0 2.350988562e-38
-0.3184768856 -0.4835426211 0 2.350988562e-38
-0.3241095245 -0.4797853827 0 2.350988562e-38
-0.3296975791 -0.4759626985 0 2.350988562e-38
-0.3346617818 -0.471259445 0 2.350988562e-38
-0.3401494622 -0.4673139751 0 2.350988562e-38
-0.3455905914 -0.4633045793 0 2.350988562e-38
-0.3509847522 -0.4592316747 0 2.350988562e-38
-0.3557141423 -0.454308778 0 2.350988562e-38
-0.3610023558 -0.4501181245 0 2.350988562e-38
-0.3673292994 -0.4449698925 0 2.350988562e-38
-0.3732759953 -0.4399932623 0 2.350988562e-38
-0.3798122704 -0.4356910288 0 2.341768999e-38
-0.386967361 -0.4320373237 0 2.295671184e-38
-0.3968012929 -0.4312131405 0 2.185036428e-38
-2.17973423 -2.305794477 0 9.864932395e-39
-2.215399981 -2.28131628 0 8.481997947e-39
-2.251507998 -2.257001638 0 8.389802318e-39
-2.288792372 -2.233524799 0 8.297606688e-39
-2.328026056 -2.211518764 0 8.297606688e-39
-2.366346598 -2.188180208 0 8.297606688e-39
-2.444970131 -2.138135672 0 8.205411058e-39
-2.404457808 -2.16421032 0 8.297606688e-39
-2.481930017 -2.116759062 0 8.113215428e-39
-2.519501209 -2.095433712 0 8.113215428e-39
-2.556924582 -2.073499918 0 8.113215428e-39
-2.59418869 -2.050959349 0 8.113215428e-39
-2.629700899 -2.026591301 0 8.297606688e-39
-2.662607431 -1.999855399 0 8.297606688e-39
-2.693639755 -1.971433043 0 8.389802318e-39
-2.71949029 -1.939064622 0 8.481997947e-39
-2.743309498 -1.905217171 0 8.481997947e-39
-2.753454208 -1.862113357 0 8.574193577e-39
-2.756271124 -1.814654231 0 8.666389207e-39
-2.769455671 -1.770447254 0 8.389802318e-39
-2.783539295 -1.731240511 0 8.113215428e-39
-2.797077417 -1.691957235 0 7.928824168e-39
-2.797141075 -1.6450001 0 6.73028098e-39
-0 -0 0 0
-0 -0 0 0
-0 -0 0 0
-0 -0 0 0
-0 -0 0 0
-1.577382684 -0.7761623263 0 1.004932366e-38
-1.587781906 -0.7569869161 0 7.928824168e-39
-1.600672007 -0.7389303446 0 6.82247661e-39
-1.620379925 -0.7221115828 0 5.623933422e-39
-0 -0 0 0
-2.24432683 -0.9342153072 0 9.680541136e-39
-2.244595766 -0.9018591046 0 1.198543188e-38
-2.255599022 -0.8739759922 0 1.263080129e-38
-0 -0 0 0
-0 -0 0 0
-1.861167669 -0.6426628828 0 4.333194604e-39
-1.867089987 -0.6189216375 0 9.403954246e-39
-1.874616027 -0.5957381129 0 1.226201877e-38
-1.89429152 -0.5762460828 0 1.216982314e-38
-1.957115293 -0.5390729904 0 1.124786684e-38
-1.920491457 -0.5583122969 0 1.198543188e-38
-2.010951281 -0.527556777 0 9.496149876e-39
-2.767285347 -0.6899530888 0 5.347346532e-39
-2.789132595 -0.6593143344 0 8.481997947e-39
-2.813569784 -0.6288987398 0 8.297606688e-39
-2.837677956 -0.5979838967 0 7.928824168e-39
-2.857524157 -0.5657964349 0 6.45369409e-39
-1.768876553 -0.3278366625 0 6.45369409e-39
-1.740231276 -0.3005846441 0 1.087908432e-38
-1.74476099 -0.2794599831 0 1.244641003e-38
-1.761894703 -0.2601689696 0 1.198543188e-38
-1.795662165 -0.2427779883 0 1.014151928e-38
-1.822703004 -0.2205659747 0 9.219562986e-39
-1.898348093 -0.1814472824 0 9.588345506e-39
-1.872057676 -0.2027040124 0 9.311758616e-39
-1.919413447 -0.1591478586 0 9.680541136e-39
-0 -0 0 0
-0.7846968174 -0.04524304345 0 1.465910515e-38
-0.7772114873 -0.03501887992 0 1.908449538e-38
-0.7755912542 -0.02518495359 0 2.046742983e-38
-0.7728470564 -0.01537702512 0 2.055962546e-38
-0.7749893665 0.004059961531 0 2.102060361e-38
-0.7729792595 -0.005664218217 0 2.092840798e-38
-0.7768768668 0.01383376401 0 2.102060361e-38
-0.7826305628 0.02405027859 0 2.083621235e-38
-0.7892599702 0.03418582678 0 2.092840798e-38
-0.8027462959 0.04488250241 0 1.991425605e-38
-0.8250650764 0.05653868243 0 1.594984397e-38
-0 0 0 0
-0 0 0 0
-0.7258935571 0.07732126117 0 1.668740901e-38
-0.71096313 0.08477887511 0 1.899229975e-38
-0.7029018402 0.09279002249 0 2.000645168e-38
-0.6997010112 0.1013288796 0 2.03752342e-38
-0.6954090595 0.1096460745 0 2.065182109e-38
-0.6939763427 0.1183759272 0 2.074401672e-38
-0.6943119764 0.1279330105 0 2.083621235e-38
-0.6985361576 0.1378089488 0 2.083621235e-38
-0.7026206851 0.1478112191 0 2.055962546e-38
-0.7114428878 0.1590282768 0 2.055962546e-38
-0.7239848971 0.1714116037 0 2.03752342e-38
-0 0 0 0
-0.8335546851 0.2196144462 0 2.074401672e-38
-0.8239831924 0.2282032222 0 2.120499487e-38
-0.8152887225 0.2368654162 0 2.157377739e-38
-0.8055509925 0.2450543493 0 2.166597302e-38
-0.7947841287 0.2527332604 0 2.175816865e-38
-0.772733748 0.2683403492 0 2.212695117e-38
-0.7839527726 0.2601806521 0 2.185036428e-38
-0.7627655268 0.2755171657 0 2.212695117e-38
-0.7527393103 0.2824881673 0 2.22191468e-38
-0.7426582575 0.2892537415 0 2.231134243e-38
-0.7334535718 0.2961873114 0 2.22191468e-38
-0.7232691646 0.302551955 0 2.22191468e-38
-0.7139585018 0.3091072738 0 2.240353806e-38
-0.7036845684 0.3150699735 0 2.240353806e-38
-0.694280982 0.3212459087 0 2.249573369e-38
-0.6848332882 0.3272375464 0 2.268012495e-38
-0.6762412786 0.3334872425 0 2.286451621e-38
-0.6676004529 0.3395742774 0 2.304890747e-38
-0.6609634757 0.3480463624 0 2.286451621e-38
-0.6506932974 0.3524176776 0 2.286451621e-38
-0.6421594024 0.3575699925 0 2.277232058e-38
-0.6335946321 0.3625712395 0 2.277232058e-38
-0.627587378 0.3689417541 0 2.286451621e-38
-0.6119881272 0.3793027401 0 2.286451621e-38
-0.6198058724 0.3741880059 0 2.286451621e-38
-0.6041358709 0.384286195 0 2.304890747e-38
-0.5962511897 0.3891381919 0 2.31411031e-38
-0.5883361101 0.3938586116 0 2.323329873e-38
-0.5803925991 0.398447454 0 2.323329873e-38
-0.5658603311 0.4103694558 0 2.350988562e-38
-0.5732405782 0.4034801424 0 2.332549436e-38
-0.5583252311 0.4155585766 0 2.350988562e-38
-0.5507487655 0.4206242859 0 2.350988562e-38
-0.5431329012 0.4255663157 0 2.350988562e-38
-0.5354794264 0.4303843975 0 2.350988562e-38
-0.5285619497 0.4357146025 0 2.350988562e-38
-0.5208311677 0.4402940273 0 2.350988562e-38
-0.5138241053 0.4454041123 0 2.350988562e-38
-0.5067704916 0.4504083395 0 2.350988562e-38
-0.4996719062 0.4553064406 0 2.350988562e-38
-0.4925301671 0.460097909 0 2.350988562e-38
-0.4853465259 0.4647824466 0 2.350988562e-38
-0.478015095 0.4708954692 0 2.350988562e-38
-0.473180145 0.477162987 0 2.350988562e-38
-0.4766133726 0.4920007586 0 2.268012495e-38
-0.4928225875 0.5207830071 0 2.065182109e-38
-0 0 0 0
-0 0 0 0
-0 0 0 0
-0 0 0 0
-0 0 0 0
-3.496087074 4.256223202 0 3.411238305e-39
-3.45608902 4.309295654 0 2.858064526e-39
-1.507305145 1.925111771 0 3.042455785e-39
-1.474634171 1.936442733 0 5.255150902e-39
-1.438606262 1.938506722 0 4.425390233e-39
-4.466671467 6.177295685 0 3.780020824e-39
-4.411087513 6.262419701 0 3.503433935e-39
-4.351815701 6.343811512 0 3.964412084e-39
-0 0 0 0
-0 0 0 0
-4.199107647 6.637228966 0 4.240998974e-39
-4.125974655 6.704082489 0 5.347346532e-39
-4.035394669 6.742681026 0 4.148803344e-39
-0 0 0 0
-0 0 0 0
-0.9603111148 1.755506516 0 5.162955272e-39
-0.9263347387 1.748812318 0 9.588345506e-39
-0.8922582865 1.740635276 0 1.309177944e-38
-0.8567932844 1.728278399 0 1.373714885e-38
-0.8213919997 1.714385152 0 1.410593137e-38
-0.7852609158 1.697134376 0 1.438251826e-38
-0.751375556 1.682879686 0 1.456690952e-38
-0.7184119225 1.668943763 0 1.530447456e-38
-0.68710953 1.657201409 0 1.576545271e-38
-0.656625092 1.645851612 0 1.594984397e-38
-0.6269289255 1.634919286 0 1.594984397e-38
-0.5979917645 1.624428034 0 1.576545271e-38
-0.5685558319 1.612713337 0 1.567325708e-38
-0.5426295996 1.599460602 0 1.548886582e-38
-0.517408669 1.586773157 0 1.567325708e-38
-0.4928653836 1.574669361 0 1.576545271e-38
-0.4686824083 1.562209368 0 1.594984397e-38
-0.4454180002 1.551321626 0 1.641082212e-38
-0.4216845334 1.537211061 0 1.677960464e-38
-0.3988559544 1.52469337 0 1.687180026e-38
-0.3768677413 1.513793349 0 1.687180026e-38
-0.3556543589 1.504535198 0 1.622643086e-38
-0.3347149789 1.494988203 0 1.539667019e-38
-0.3138458431 1.484179735 0 1.493569204e-38
-0.2911604047 1.47452867 0 1.475130078e-38
-0.2703249454 1.464255929 0 1.465910515e-38
-0.2499576658 1.454681039 0 1.465910515e-38
-0.2300274968 1.445815802 0 1.465910515e-38
-0.2103559077 1.436681747 0 1.465910515e-38
-0.1910786778 1.428275108 0 1.484349641e-38
-0.1720414758 1.419613123 0 1.493569204e-38
-0.1534653306 1.412688732 0 1.558106145e-38
-0.1354700476 1.409504771 0 1.576545271e-38
-0.1179932803 1.411075354 0 1.714838715e-38
-0.1014217287 1.425396323 0 1.51200833e-38
-0.06764533371 1.495470881 0 1.290738818e-38
-0.08562679589 1.458488584 0 1.364495322e-38
-0.05008769035 1.534182549 0 1.244641003e-38
-0.03160794079 1.574682832 0 1.198543188e-38
-0.01214044262 1.617954493 0 1.161664936e-38
0.008414493874 1.661978602 0 1.115567121e-38
0 0 0 0
0 0 0 0
0 0 0 0
0 0 0 0
0 0 0 0
0.2572785318 3.190643787 0 8.481997947e-39
0.3413950205 3.178719521 0 1.014151928e-38
0.2965158224 3.178197861 0 1.014151928e-38
0.3824248612 3.188145399 0 9.864932395e-39
0.424004823 3.199023247 0 1.004932366e-38
0.4661985338 3.211336613 0 8.021019798e-39
0.8840580583 5.600655556 0 2.581477636e-39
0.9887006879 5.796280861 0 9.219562986e-40
1.058647871 5.773747921 0 1.475130078e-39
0 0 0 0
0 0 0 0
0 0 0 0
0 0 0 0
0 0 0 0
0 0 0 0
1.549279451 5.590289116 0 1.567325708e-39
1.6206429 5.563770771 0 2.858064526e-39
0 0 0 0
0 0 0 0
0 0 0 0
0.7790012956 2.231961727 0 2.397086376e-39
0.80609864 2.21593523 0 3.319042675e-39
0.8389307857 2.215481043 0 3.595629565e-39
0 0 0 0
0.8799843788 2.152034521 0 8.758584837e-39
0.905344069 2.133887529 0 1.087908432e-38
0.9333335757 2.114145279 0 2.397086376e-39
2.376020908 5.20646286 0 1.078688869e-38
2.445899487 5.188378811 0 6.54588972e-39
0 0 0 0
0 0 0 0
2.643479824 5.106321335 0 2.581477636e-39
2.703258514 5.066995144 0 3.780020824e-39
2.765837908 5.033109188 0 6.177107201e-39
2.361174583 4.173353672 0 2.858064526e-39
2.417237759 4.151551247 0 3.872216454e-39
2.472606421 4.128142357 0 3.872216454e-39
2.527765512 4.103998661 0 4.148803344e-39
2.589820385 4.074605942 0 4.148803344e-39
2.644806623 4.046301365 0 4.148803344e-39
2.699489355 4.01725769 0 3.780020824e-39
2.753862619 3.987475157 0 3.595629565e-39
2.808493376 3.957773924 0 2.581477636e-39
3.518512487 4.69986248 0 2.304890747e-39
3.452456713 4.736228943 0 2.304890747e-39
3.661278248 4.639303684 0 2.673673266e-39
3.589074373 4.668925762 0 2.397086376e-39
3.733308077 4.608597755 0 2.673673266e-39
3.946742535 4.509908676 0 2.858064526e-39
3.874830723 4.541649818 0 2.858064526e-39
3.805144787 4.576808929 0 2.858064526e-39
4.018239021 4.479964256 0 2.858064526e-39
4.09026432 4.449682236 0 2.858064526e-39
4.160778522 4.416847706 0 2.397086376e-39
3.656022549 3.787240982 0 8.297606688e-40
3.785005331 3.826180696 0 2.397086376e-39
3.848554134 3.796507597 0 3.042455785e-39
3.931389093 3.784577608 0 1.843912597e-39
3.994096041 3.752012253 0 1.843912597e-39
4.060275555 3.721857786 0 3.503433935e-39
4.12631321 3.690641165 0 4.056607714e-39
4.203493595 3.66822648 0 3.503433935e-39
0 0 0 0
4.599195004 3.804781675 0 2.489282006e-39
0 0 0 0
4.753384113 3.737853527 0 1.475130078e-39
0 0 0 0
0 0 0 0
0 0 0 0
5.476840496 3.883557558 0 2.673673266e-39
5.587901115 3.859150887 0 2.489282006e-39
0 0 0 0
0 0 0 0
0 0 0 0
0 0 0 0
0.4953908324 0.2977783382 0 1.290738818e-38
0.4913222492 0.2869903147 0 2.074401672e-38
0.4888015091 0.2773392498 0 2.22191468e-38
0.4869926572 0.2682799697 0 2.295671184e-38
0.4859160483 0.2597818375 0 2.350988562e-38
0.4873666465 0.2527346015 0 2.350988562e-38
0.4869302511 0.2447937131 0 2.350988562e-38
0.4881697893 0.2377797812 0 2.350988562e-38
0.491119206 0.2316266298 0 2.350988562e-38
0.4949008822 0.2258520871 0 2.350988562e-38
0.5061275959 0.2152554244 0 2.350988562e-38
0.516156137 0.2120068371 0 2.332549436e-38
0.4995296001 0.2204227298 0 2.350988562e-38
0.5252511501 0.2081735134 0 2.258792932e-38
0.5390000939 0.2059317827 0 2.092840798e-38
0 0 0 0
0 0 0 0
0 0 0 0
0 0 0 0
0 0 0 0
0 0 0 0
7.958748817 2.273115635 0 2.489282006e-39
0 0 0 0
0 0 0 0
0 0 0 0
0 0 0 0
0 0 0 0
0 0 0 0
0 0 0 0
0 0 0 0
1.238847017 0.2068674415 0 3.411238305e-39
1.221549034 0.1884511709 0 1.281519255e-38
1.215869546 0.172177732 0 1.797814782e-38
1.21592617 0.156842351 0 1.917669101e-38
1.215789676 0.1415320784 0 1.954547353e-38
1.218598723 0.1250697374 0 1.982206042e-38
1.230033755 0.1106427759 0 1.908449538e-38
1.247279525 0.09641045332 0 1.622643086e-38
1.275336146 0.08247180283 0 5.070759642e-39
2.320857286 0.1208177358 0 1.336836633e-38
2.310201645 0.09117098898 0 1.382934448e-38
2.300168991 0.06183806434 0 1.392154011e-38
2.289765358 0.03277171776 0 1.410593137e-38
2.280996323 0.003980118316 0 1.410593137e-38
