# .PCD v0.7 - Point Cloud Data file format
VERSION 0.7
FIELDS x y z rgb
SIZE 4 4 4 4
TYPE F F F F
COUNT 1 1 1 1
WIDTH 499
HEIGHT 1
VIEWPOINT 0 0 0 1 0 0 0
POINTS 499
DATA ascii
2.268867016 -0.02456465177 0 1.392154011e-38
2.266388893 -0.05263042822 0 1.392154011e-38
2.264549255 -0.08107047528 0 1.253860566e-38
2.325259686 -0.1129233539 0 9.035171727e-39
0 -0 0 0
0 -0 0 0
0 -0 0 0
0 -0 0 0
0 -0 0 0
0 -0 0 0
0 -0 0 0
0 -0 0 0
0 -0 0 0
6.320304394 -1.214844108 0 6.177107201e-39
6.33763504 -1.126654744 0 6.361498461e-39
6.297603607 -1.288166046 0 6.45369409e-39
6.245762348 -1.432800174 0 6.45369409e-39
6.272099972 -1.360693455 0 6.361498461e-39
6.226374626 -1.506351948 0 6.177107201e-39
6.217749119 -1.582608223 0 2.858064526e-39
10.18055153 -2.850182056 0 2.765868896e-39
0 -0 0 0
0 -0 0 0
0 -0 0 0
0 -0 0 0
0 -0 0 0
0 -0 0 0
0 -0 0 0
0 -0 0 0
0 -0 0 0
0 -0 0 0
0 -0 0 0
0 -0 0 0
0 -0 0 0
0 -0 0 0
0 -0 0 0
0 -0 0 0
0 -0 0 0
0 -0 0 0
0 -0 0 0
0 -0 0 0
0 -0 0 0
0 -0 0 0
0 -0 0 0
0 -0 0 0
0 -0 0 0
0 -0 0 0
0 -0 0 0
0 -0 0 0
7.264024258 -5.306785583 0 4.886368383e-39
7.3326087 -5.199516773 0 3.595629565e-39
7.196764469 -5.397648335 0 4.148803344e-39
0 -0 0 0
4.114784241 -3.250859261 0 2.212695117e-39
3.65956831 -2.966661215 0 2.950260156e-39
3.623537302 -3.013692856 0 7.928824168e-39
3.593748569 -3.066128969 0 8.942976097e-39
3.56396699 -3.118947983 0 9.127367356e-39
3.533422709 -3.171503067 0 9.311758616e-39
3.503591299 -3.225134134 0 9.219562986e-39
3.47224021 -3.277830362 0 9.035171727e-39
3.43939805 -3.32955122 0 8.850780467e-39
3.405804396 -3.380960941 0 6.91467224e-39
0 -0 0 0
0 -0 0 0
0 -0 0 0
0 -0 0 0
0 -0 0 0
0 -0 0 0
0 -0 0 0
0 -0 0 0
0 -0 0 0
1.075912118 -1.391579628 0 1.060249743e-38
1.026340008 -1.363992333 0 1.041810617e-38
0.9795748591 -1.338922739 0 1.115567121e-38
0.9507200122 -1.333857417 0 1.382934448e-38
0.9341182113 -1.345536113 0 1.714838715e-38
0.9207339883 -1.361978292 0 1.779375656e-38
0.9081839919 -1.379965782 0 1.76093653e-38
0.8969476223 -1.40037632 0 1.770156093e-38
0.8858721852 -1.421567798 0 1.751716967e-38
0.8738907576 -1.441842914 0 1.733277841e-38
0.862048924 -1.462899685 0 1.705619152e-38
0.8498185873 -1.483882904 0 1.687180026e-38
0.8352556229 -1.501290202 0 1.677960464e-38
0.8045892119 -1.541673422 0 1.659521338e-38
0.8208664656 -1.519443035 0 1.668740901e-38
0.7922062278 -1.56154108 0 1.650301775e-38
0.7874298096 -1.597471595 0 1.668740901e-38
0.7737269998 -1.616357207 0 1.668740901e-38
0.7605332732 -1.636952639 0 1.641082212e-38
0.7494347095 -1.662926197 0 1.493569204e-38
0.7386366129 -1.690692425 0 1.115567121e-38
2.051713228 -4.847697258 0 2.581477636e-39
1.968438506 -4.804384708 0 4.240998974e-39
1.888650179 -4.765383244 0 4.609781493e-39
1.817176938 -4.743866444 0 2.304890747e-39
0 -0 0 0
0.3136714101 -0.8818765283 0 8.113215428e-39
0.297922194 -0.8746533394 0 1.696399589e-38
0.2824253142 -0.8671677709 0 1.807034345e-38
0.2668872476 -0.8584707975 0 1.825473471e-38
0.2519182265 -0.8504741192 0 1.871571286e-38
0.2372129261 -0.8422321677 0 1.899229975e-38
0.2230333984 -0.8347167969 0 1.917669101e-38
0.2090996057 -0.8269742131 0 1.936108227e-38
0.1954138875 -0.8190100193 0 1.94532779e-38
0.1817622483 -0.809853375 0 1.954547353e-38
0.1688041985 -0.8024370074 0 1.954547353e-38
0.1560779214 -0.7948205471 0 1.954547353e-38
0.1431758702 -0.7870836258 0 1.963766916e-38
0.1319110543 -0.7799233794 0 1.963766916e-38
0.1210004091 -0.773594141 0 1.972986479e-38
0.1102663502 -0.7671155334 0 1.982206042e-38
0.09958232939 -0.7594993711 0 1.982206042e-38
0.08910418302 -0.7517376542 0 1.982206042e-38
0.07893852144 -0.7448286414 0 1.991425605e-38
0.06905166805 -0.7387799621 0 2.000645168e-38
0.0594076626 -0.7335984707 0 2.019084294e-38
0.04990239441 -0.728292346 0 2.028303857e-38
0.0404818207 -0.7218657732 0 2.046742983e-38
0.01907829754 -0.709743619 0 2.074401672e-38
0.03122858517 -0.7153186798 0 2.055962546e-38
0.01042620093 -0.7029227018 0 2.083621235e-38
0.001946409349 -0.6979973316 0 2.074401672e-38
-0.006403652951 -0.6919703484 0 2.092840798e-38
-0.01462990884 -0.6868441701 0 2.083621235e-38
-0.02270030975 -0.6806215048 0 2.092840798e-38
-0.03066803329 -0.6753039956 0 2.092840798e-38
-0.0385113284 -0.6698939204 0 2.102060361e-38
-0.04622817412 -0.6643936634 0 2.102060361e-38
-0.05406307802 -0.6617953777 0 2.120499487e-38
-0.06165530533 -0.6571138501 0 2.148158176e-38
-0.06914234906 -0.652346015 0 2.166597302e-38
-0.07765378058 -0.6473591328 0 2.175816865e-38
-0.08536835015 -0.6423521042 0 2.175816865e-38
-0.09311207384 -0.6382437944 0 2.185036428e-38
-0.100608401 -0.6330552101 0 2.194255991e-38
-0.1081572548 -0.6287654638 0 2.194255991e-38
-0.1154308394 -0.6234033704 0 2.194255991e-38
-0.1227803528 -0.6189393997 0 2.194255991e-38
-0.1298278868 -0.6134114861 0 2.203475554e-38
-0.1369738579 -0.6087808609 0 2.203475554e-38
-0.1440232992 -0.6040681005 0 2.194255991e-38
-0.1509747058 -0.5992750525 0 2.185036428e-38
-0.1580843925 -0.5953698754 0 2.185036428e-38
-0.1649530083 -0.5903892517 0 2.185036428e-38
-0.1718219072 -0.585300982 0 2.185036428e-38
-0.1785860062 -0.580134511 0 2.194255991e-38
-0.1855508685 -0.5758436322 0 2.212695117e-38
-0.1924343556 -0.5714700222 0 2.22191468e-38
-0.1992352605 -0.5670152903 0 2.22191468e-38
-0.2062961906 -0.5634198189 0 2.240353806e-38
-0.2129413635 -0.558802247 0 2.240353806e-38
-0.2195008695 -0.5541077256 0 2.240353806e-38
-0.2259743363 -0.5493373871 0 2.240353806e-38
-0.2323606759 -0.5444929004 0 2.258792932e-38
-0.2386587709 -0.539575696 0 2.268012495e-38
-0.2450978607 -0.5355819464 0 2.268012495e-38
-0.2510463595 -0.5306078792 0 2.286451621e-38
-0.2573468983 -0.5264680386 0 2.304890747e-38
-0.2635830343 -0.5222537518 0 2.31411031e-38
-0.2697533965 -0.5179663301 0 2.323329873e-38
-0.2758573592 -0.5136066079 0 2.332549436e-38
-0.281894356 -0.5091754198 0 2.341768999e-38
-0.2878632545 -0.5046738386 0 2.350988562e-38
-0.2937630713 -0.5001031756 0 2.350988562e-38
-0.300110966 -0.4963198602 0 2.350988562e-38
-0.3058817685 -0.4916068614 0 2.350988562e-38
-0.3121201396 -0.4876699746 0 2.350988562e-38
-0.3157330453 -0.4841452837 0 2.350988562e-38
-0.3217081726 -0.4801956415 0 2.350988562e-38
-0.3276337385 -0.4761724174 0 2.350988562e-38
-0.3335091472 -0.4720758796 0 2.350988562e-38
-0.3393333852 -0.4679069221 0 2.350988562e-38
-0.3451052904 -0.4636662006 0 2.350988562e-38
-0.3508243859 -0.4593541622 0 2.350988562e-38
-0.3564894795 -0.4549717307 0 2.350988562e-38
-0.3620999455 -0.4505192935 0 2.350988562e-38
-0.3676546812 -0.4459978342 0 2.350988562e-38
-0.373798728 -0.442171365 0 2.350988562e-38
-0.379904151 -0.4382611215 0 2.341768999e-38
-0.3879068196 -0.4352210164 0 2.341768999e-38
-0.4033288658 -0.4401531816 0 1.807034345e-38
-2.182563782 -2.316874027 0 8.389802318e-39
-2.21847415 -2.29087162 0 8.297606688e-39
-2.254787922 -2.265027285 0 8.297606688e-39
-2.292239666 -2.240013838 0 8.389802318e-39
-2.329429626 -2.214396954 0 8.297606688e-39
-2.367815495 -2.189537525 0 8.389802318e-39
-2.408188343 -2.16604495 0 8.389802318e-39
-0.7172726393 -0.6274782419 0 2.489282006e-39
-0.7151926756 -0.6084573865 0 1.170884499e-38
-0.7196614146 -0.5953515172 0 1.908449538e-38
-0.7266762257 -0.5867688656 0 2.019084294e-38
-0.7338914871 -0.5777190328 0 2.009864731e-38
-0.7409937978 -0.5685808659 0 2.019084294e-38
-0.7495843172 -0.5605527163 0 2.019084294e-38
-0.7580891252 -0.5523992777 0 2.028303857e-38
-0.768137753 -0.5452782512 0 2.03752342e-38
-0.7814158201 -0.5402677655 0 2.046742983e-38
-0.7963459492 -0.5361278653 0 2.055962546e-38
-0.8154739141 -0.5344412327 0 1.963766916e-38
-0 -0 0 0
-0.6729707122 -0.4175816476 0 1.484349641e-38
-0.6709963679 -0.3917816281 0 2.138938613e-38
-0.6669630408 -0.4024938047 0 1.714838715e-38
-0.6740601063 -0.3824499547 0 2.157377739e-38
-0.6804991364 -0.375033319 0 2.148158176e-38
-0.6877391934 -0.3679874241 0 2.175816865e-38
-0.6957962513 -0.3612803519 0 2.166597302e-38
-0.706471622 -0.355779171 0 2.175816865e-38
-0.7117246985 -0.3474362791 0 2.175816865e-38
-0.7186874151 -0.3398726583 0 2.185036428e-38
-0.7246621251 -0.3317736983 0 2.175816865e-38
-0.72963202 -0.3231733739 0 2.175816865e-38
-0.7344999909 -0.3145009577 0 2.175816865e-38
-0.7374165654 -0.3049930632 0 2.175816865e-38
-0.7405195236 -0.2946859598 0 2.175816865e-38
-0.7441143394 -0.285487026 0 2.148158176e-38
-0.74947083 -0.2769378424 0 2.12971905e-38
-0.7594406009 -0.2699739933 0 2.083621235e-38
-0.7740833759 -0.26442191 0 2.028303857e-38
-0.7944049835 -0.2604164481 0 1.954547353e-38
-0.8156975508 -0.256247133 0 1.576545271e-38
-1.85884285 -0.5587345958 0 1.106347558e-38
-1.878118634 -0.5392459035 0 1.216982314e-38
-1.898159862 -0.5196279883 0 1.170884499e-38
-1.920904279 -0.5003516674 0 1.134006247e-38
-1.994460821 -0.4652207494 0 9.219562986e-39
-1.948313475 -0.4817920625 0 1.069469306e-38
-0 -0 0 0
-0 -0 0 0
-1.777727842 -0.3455499113 0 4.609781493e-39
-1.743500352 -0.3165286183 0 9.957128025e-39
-1.745316744 -0.2945665121 0 1.207762751e-38
-1.755749106 -0.2739965618 0 1.216982314e-38
-1.781776667 -0.2554832697 0 1.106347558e-38
-1.80959475 -0.2366266996 0 9.496149876e-39
-1.853104591 -0.2189963311 0 9.403954246e-39
-1.892471313 -0.1999035031 0 9.588345506e-39
-1.931892753 -0.1537347436 0 9.403954246e-39
-1.910734177 -0.1779210865 0 9.496149876e-39
-1.957686901 -0.1300240606 0 8.574193577e-39
-2.000163078 -0.1065691411 0 5.439542162e-39
-0 -0 0 0
-0 -0 0 0
-0 -0 0 0
-0 -0 0 0
-5.071621418 0.06197737902 0 3.872216454e-39
-5.055380821 0.127978757 0 3.780020824e-39
-0 0 0 0
-5.029325485 0.259187758 0 2.304890747e-39
-5.020512581 0.3246743977 0 6.54588972e-39
-2.942858696 0.232132405 0 5.255150902e-39
-2.940752506 0.2686719894 0 7.836628538e-39
-2.926255941 0.3039551675 0 7.099063499e-39
-2.899419069 0.3375329077 0 7.191259129e-39
-2.872203112 0.3704926968 0 6.91467224e-39
-0.9495264292 0.1344636977 0 5.992715941e-39
-0.9408692718 0.1451521367 0 1.447471389e-38
-0.9311075807 0.1554820985 0 1.899229975e-38
-0.9182829857 0.165061906 0 1.94532779e-38
-0.9043835998 0.1741589606 0 1.972986479e-38
-0.8913810849 0.1831386983 0 1.991425605e-38
-0.8792735338 0.1920364201 0 2.009864731e-38
-0.866697073 0.2023269683 0 2.028303857e-38
-0.8546708822 0.2096131146 0 2.046742983e-38
-0.8425912857 0.2166563421 0 2.055962546e-38
-0.8323934674 0.2239758372 0 2.074401672e-38
-0.821175456 0.2308242023 0 2.102060361e-38
-0.8108692169 0.2377313524 0 2.12971905e-38
-0.8014682531 0.2447295934 0 2.148158176e-38
-0.7910599709 0.2512450218 0 2.166597302e-38
-0.7815567851 0.2578720748 0 2.175816865e-38
-0.7710590363 0.2639943957 0 2.194255991e-38
-0.7624076605 0.2705837786 0 2.212695117e-38
-0.7432288527 0.2850032449 0 2.231134243e-38
-0.7527673841 0.2766681314 0 2.22191468e-38
-0.7331358194 0.2916039526 0 2.22191468e-38
-0.7239188552 0.2983797789 0 2.231134243e-38
-0.7146474123 0.304972291 0 2.231134243e-38
-0.7044097185 0.3109773695 0 2.22191468e-38
-0.6950436831 0.3171911538 0 2.231134243e-38
-0.6856327057 0.3232209384 0 2.258792932e-38
-0.6761797667 0.3290666044 0 2.268012495e-38
-0.6675818563 0.3351767063 0 2.277232058e-38
-0.6589369774 0.3411246538 0 2.286451621e-38
-0.6502478123 0.3469102979 0 2.295671184e-38
-0.644146502 0.3539778292 0 2.286451621e-38
-0.6357888579 0.3607401848 0 2.286451621e-38
-0.6278796792 0.3664643764 0 2.295671184e-38
-0.6199260354 0.3720493019 0 2.286451621e-38
-0.6119300127 0.3774951994 0 2.304890747e-38
-0.6038940549 0.3828013837 0 2.31411031e-38
-0.5958203673 0.3879679739 0 2.323329873e-38
-0.5885422826 0.3935505152 0 2.332549436e-38
-0.5803925991 0.398447454 0 2.332549436e-38
-0.5730290413 0.4037804902 0 2.350988562e-38
-0.5656223893 0.4089930654 0 2.350988562e-38
-0.5581741333 0.4140852988 0 2.350988562e-38
-0.5506862402 0.4190568626 0 2.350988562e-38
-0.5422716141 0.425044179 0 2.350988562e-38
-0.5354042053 0.4304780066 0 2.350988562e-38
-0.5277144313 0.4351706505 0 2.350988562e-38
-0.5199906826 0.4397393465 0 2.350988562e-38
-0.5129908323 0.4448386431 0 2.350988562e-38
-0.5051971078 0.4491679966 0 2.350988562e-38
-0.4981145263 0.4540462494 0 2.350988562e-38
-0.4909885526 0.4588183165 0 2.350988562e-38
-0.4845433831 0.4641752839 0 2.350988562e-38
-0.478754282 0.4701439738 0 2.350988562e-38
-0.4771202505 0.480297029 0 2.350988562e-38
-0.485050261 0.5005349517 0 2.323329873e-38
-0.4966233671 0.5268217921 0 2.055962546e-38
-0 0 0 0
-0 0 0 0
-0 0 0 0
-0 0 0 0
-0.4611310959 0.5542554855 0 8.574193577e-39
-0.4466677904 0.5506076813 0 1.862351723e-38
-0.4354682565 0.5506100059 0 2.055962546e-38
-0.4255593121 0.5520039201 0 2.12971905e-38
-0.4174849391 0.5556359291 0 2.175816865e-38
-0.408795476 0.5583459735 0 2.203475554e-38
-0.4006839693 0.5617405176 0 2.212695117e-38
-0.3921337128 0.566526413 0 2.194255991e-38
-0.3822351992 0.5852326751 0 2.138938613e-38
-0.3856009543 0.5734046698 0 2.175816865e-38
-0.3802267015 0.599606216 0 2.102060361e-38
-0.381044656 0.6191397309 0 2.065182109e-38
-0 0 0 0
-0 0 0 0
-0 0 0 0
-0 0 0 0
-0.925014317 1.757425547 0 4.978564013e-39
-0.894959867 1.757222533 0 1.226201877e-38
-0.8580096364 1.742177725 0 1.336836633e-38
-0.8279166222 1.733434439 0 1.318397507e-38
-0.2980040908 0.6455343366 0 1.078688869e-38
-0.2874926627 0.6448131204 0 1.94532779e-38
-0.2782372236 0.6466838717 0 2.065182109e-38
-0.2685990036 0.6474994421 0 2.111279924e-38
-0.2589874268 0.6481739879 0 2.148158176e-38
-0.2497631609 0.6496416926 0 2.175816865e-38
-0.2408916503 0.6519173384 0 2.194255991e-38
-0.2326719463 0.6559571028 0 2.185036428e-38
-0.2247097343 0.6608400345 0 2.166597302e-38
-0.2182069123 0.6703810096 0 2.138938613e-38
-0.2117895782 0.6808187962 0 2.083621235e-38
-0.2061940432 0.6961034536 0 1.936108227e-38
-0 0 0 0
-0.4163004458 1.540749788 0 1.631862649e-38
-0.3932302892 1.528219104 0 1.724058278e-38
-0.3712355494 1.518272996 0 1.714838715e-38
-0.3497635126 1.508995175 0 1.631862649e-38
-0.3283553421 1.498445511 0 1.539667019e-38
-0.3074554205 1.488580227 0 1.493569204e-38
-0.2868404388 1.478431225 0 1.475130078e-38
-0.2666933239 1.468987346 0 1.456690952e-38
-0.246815756 1.459274411 0 1.465910515e-38
-0.2272111326 1.449297786 0 1.475130078e-38
-0.2056221068 1.439387202 0 1.475130078e-38
-0.1862206608 1.429925203 0 1.484349641e-38
-0.1672016978 1.421198368 0 1.530447456e-38
-0.148742035 1.415204883 0 1.567325708e-38
-0.1306411326 1.410964847 0 1.558106145e-38
-0.1130674556 1.411478639 0 1.687180026e-38
-0.09590524435 1.417760015 0 1.567325708e-38
-0.08003888279 1.449792266 0 1.401373574e-38
-0.06360669434 1.486639977 0 1.299958381e-38
-0.04627247155 1.523297429 0 1.244641003e-38
-0.02811215818 1.563747406 0 1.216982314e-38
-0.008984298445 1.608974814 0 1.161664936e-38
0.01239243615 1.650953531 0 1.106347558e-38
0 0 0 0
0 0 0 0
0 0 0 0
0 0 0 0
0 0 0 0
0.2509070933 3.138988018 0 5.255150902e-39
0.2891469598 3.140718222 0 8.389802318e-39
0.3305765092 3.171819687 0 9.403954246e-39
0.374183774 3.21429348 0 9.772736766e-39
0.8687204719 5.605078697 0 2.858064526e-39
0.4163094461 3.236333609 0 8.574193577e-39
0.4595781863 3.261782169 0 4.425390233e-39
0.9764795899 5.82268858 0 7.375650389e-40
1.047492862 5.804236412 0 1.567325708e-39
0 0 0 0
0 0 0 0
0 0 0 0
0 0 0 0
0 0 0 0
0 0 0 0
1.521491408 5.599988461 0 1.290738818e-39
1.583638787 5.555701256 0 2.304890747e-39
1.491613984 4.997130394 0 6.45369409e-40
1.587500334 4.865569592 0 5.531737792e-40
0 0 0 0
0 0 0 0
0 0 0 0
0 0 0 0
0 0 0 0
0.8860240579 2.157124281 0 7.375650389e-39
0.9091633558 2.137697458 0 1.115567121e-38
0.9335688353 2.121691227 0 8.850780467e-39
2.369246483 5.208450794 0 1.032591054e-38
2.436581373 5.185027599 0 8.666389207e-39
0 0 0 0
0 0 0 0
2.6343472 5.093031883 0 4.148803344e-39
2.701961279 5.068820477 0 3.042455785e-39
2.765044689 5.035826683 0 5.623933422e-39
2.357750177 4.170694828 0 2.858064526e-39
2.415284157 4.151531219 0 3.964412084e-39
2.471165657 4.129004955 0 4.148803344e-39
2.52580905 4.104028225 0 4.148803344e-39
2.580212116 4.078330517 0 4.240998974e-39
2.634367943 4.051912308 0 4.148803344e-39
2.688262463 4.02477932 0 3.872216454e-39
2.743019342 3.998580456 0 3.687825195e-39
2.805622339 3.968385696 0 3.042455785e-39
3.44018054 4.740211487 0 2.028303857e-39
3.507019281 4.708445072 0 2.212695117e-39
3.571773767 4.673366547 0 2.489282006e-39
3.637430668 4.638978958 0 2.489282006e-39
3.703408957 4.604459286 0 2.489282006e-39
3.783091068 4.585983753 0 2.581477636e-39
3.852544546 4.554023266 0 2.581477636e-39
3.923095226 4.522553921 0 2.765868896e-39
3.994786739 4.49152565 0 2.765868896e-39
4.064285755 4.457197189 0 2.765868896e-39
3.631483316 3.7789433 0 1.290738818e-39
4.134910583 4.423294544 0 2.489282006e-39
3.772103786 3.830484152 0 1.198543188e-39
3.834244728 3.799601078 0 2.858064526e-39
3.90050745 3.771938324 0 2.581477636e-39
3.978297472 3.754203796 0 1.014151928e-39
4.047406673 3.72699666 0 3.226847045e-39
4.113465786 3.695984364 0 3.872216454e-39
4.189893246 3.673142433 0 3.780020824e-39
0 0 0 0
4.574769974 3.816968203 0 2.028303857e-39
4.645104885 3.780359507 0 2.673673266e-39
4.732456207 3.756277084 0 1.290738818e-39
0 0 0 0
0 0 0 0
0 0 0 0
5.443586349 3.887170076 0 2.581477636e-39
5.537308693 3.8513937 0 2.765868896e-39
0 0 0 0
0 0 0 0
0 0 0 0
3.116408587 1.945834756 0 4.886368383e-39
3.170197725 1.925234795 0 5.716129052e-39
3.223948717 1.903599143 0 6.177107201e-39
3.28198266 1.883413196 0 6.084911571e-39
3.342701197 1.855176091 0 5.439542162e-39
0 0 0 0
3.467399359 1.813480258 0 2.858064526e-39
3.525276661 1.788472533 0 6.269302831e-39
3.581266165 1.761423469 0 5.255150902e-39
0 0 0 0
0 0 0 0
0 0 0 0
4.244380951 1.832310557 0 1.382934448e-39
4.293525696 1.790737152 0 5.992715941e-39
4.377537727 1.762419581 0 7.00686787e-39
4.469887733 1.735549092 0 7.00686787e-39
4.558098793 1.700574875 0 6.91467224e-39
4.641880989 1.666604042 0 5.808324681e-39
0 0 0 0
7.753565311 2.568746567 0 1.659521338e-39
0 0 0 0
0 0 0 0
7.947391987 2.308925867 0 2.581477636e-39
0 0 0 0
8.051522255 2.231368303 0 2.673673266e-39
0 0 0 0
0 0 0 0
0 0 0 0
0.5775738358 0.1204509512 0 6.177107201e-39
0.5653018951 0.1104978994 0 1.770156093e-38
0.5577918887 0.1017701626 0 2.22191468e-38
0.5531110764 0.09375021607 0 2.31411031e-38
0.549305737 0.08601884544 0 2.350988562e-38
0.5453941226 0.07839803398 0 2.350988562e-38
0.5443531871 0.071278736 0 2.350988562e-38
0.5432196259 0.06419800222 0 2.350988562e-38
0.5429890156 0.05726193264 0 2.350988562e-38
0.5436657071 0.05043418333 0 2.350988562e-38
0.5462501645 0.04375816882 0 2.350988562e-38
0.5487523675 0.03702514619 0 2.350988562e-38
0.5561901927 0.0300247632 0 2.350988562e-38
0.5635094047 0.0235193409 0 2.350988562e-38
0.5727507472 0.01689880528 0 2.350988562e-38
0.5859125853 0.01012474112 0 2.240353806e-38
0 0 0 0
