# .PCD v0.7 - Point Cloud Data file format
VERSION 0.7
FIELDS x y z rgb
SIZE 4 4 4 4
TYPE F F F F
COUNT 1 1 1 1
WIDTH 501
HEIGHT 1
VIEWPOINT 0 0 0 1 0 0 0
POINTS 501
DATA ascii
2.279997826 -0.003195935162 0 1.410593137e-38
2.270839691 -0.02696419135 0 1.382934448e-38
2.264434814 -0.05060805008 0 1.382934448e-38
2.262780905 -0.07428585738 0 1.226201877e-38
0 -0 0 0
0 -0 0 0
0 -0 0 0
0 -0 0 0
0 -0 0 0
0 -0 0 0
0 -0 0 0
0 -0 0 0
0 -0 0 0
0 -0 0 0
6.345637798 -1.098397493 0 6.177107201e-39
6.364686489 -1.020629764 0 6.084911571e-39
6.321708679 -1.175115943 0 6.45369409e-39
6.27107954 -1.327275515 0 6.54588972e-39
6.295873165 -1.251218557 0 6.361498461e-39
6.252200127 -1.404441833 0 6.177107201e-39
10.21988773 -2.717448235 0 2.765868896e-39
6.252802372 -1.486200213 0 2.673673266e-39
0 -0 0 0
0 -0 0 0
0 -0 0 0
0 -0 0 0
0 -0 0 0
0 -0 0 0
0 -0 0 0
0 -0 0 0
0 -0 0 0
0 -0 0 0
0 -0 0 0
0 -0 0 0
0 -0 0 0
0 -0 0 0
0 -0 0 0
0 -0 0 0
0 -0 0 0
0 -0 0 0
0 -0 0 0
0 -0 0 0
0 -0 0 0
0 -0 0 0
0 -0 0 0
0 -0 0 0
0 -0 0 0
0 -0 0 0
0 -0 0 0
0 -0 0 0
7.280518532 -5.272208214 0 3.687825195e-39
7.219445705 -5.365596771 0 4.886368383e-39
7.15399456 -5.45585537 0 4.148803344e-39
0 -0 0 0
4.093597889 -3.285491943 0 2.489282006e-39
3.631796598 -2.989593744 0 3.134651415e-39
3.602878332 -3.041462421 0 8.297606688e-39
3.573227882 -3.093075752 0 9.127367356e-39
3.539009571 -3.148742437 0 9.219562986e-39
3.507288218 -3.200380564 0 9.311758616e-39
3.476286411 -3.253083944 0 9.219562986e-39
3.443792343 -3.304817915 0 9.035171727e-39
3.410544395 -3.356249332 0 8.758584837e-39
3.37584424 -3.406654119 0 6.63808535e-39
0 -0 0 0
0 -0 0 0
0 -0 0 0
0 -0 0 0
0 -0 0 0
0 -0 0 0
0 -0 0 0
0 -0 0 0
0 -0 0 0
1.065934777 -1.389166713 0 1.069469306e-38
1.019056439 -1.363205075 0 1.060249743e-38
0.9741799831 -1.337908149 0 1.14322581e-38
0.9463006854 -1.334545255 0 1.410593137e-38
0.9300244451 -1.347153783 0 1.724058278e-38
0.9174842834 -1.365374446 0 1.76093653e-38
0.9057275653 -1.385165215 0 1.751716967e-38
0.8936167955 -1.40487504 0 1.76093653e-38
0.8811528683 -1.424497962 0 1.724058278e-38
0.8685998917 -1.445036292 0 1.705619152e-38
0.8584721088 -1.465001583 0 1.687180026e-38
0.8480058312 -1.484919548 0 1.677960464e-38
0.836228013 -1.50303793 0 1.677960464e-38
0.8231984377 -1.519318342 0 1.677960464e-38
0.8108414412 -1.53726387 0 1.677960464e-38
0.7981856465 -1.555121779 0 1.659521338e-38
0.7963988185 -1.595254779 0 1.668740901e-38
0.7833344936 -1.613946438 0 1.659521338e-38
0.7708029747 -1.634353638 0 1.659521338e-38
0.7583289742 -1.655589938 0 1.530447456e-38
2.073064089 -4.84621954 0 2.489282006e-39
0.7434455156 -1.672180891 0 9.864932395e-39
1.978413224 -4.790550232 0 4.701977123e-39
1.895483851 -4.758363724 0 4.425390233e-39
0 -0 0 0
0 -0 0 0
0.3126935661 -0.8801015615 0 9.496149876e-39
0.2980571687 -0.8735507131 0 1.714838715e-38
0.2833247781 -0.8658222556 0 1.843912597e-38
0.2685348094 -0.8569090366 0 1.85313216e-38
0.2543016076 -0.8487206101 0 1.871571286e-38
0.2403171957 -0.8403116465 0 1.890010412e-38
0.2265839279 -0.8316872716 0 1.908449538e-38
0.2130698711 -0.8238945603 0 1.936108227e-38
0.1997476369 -0.8169344664 0 1.94532779e-38
0.186648339 -0.8097674847 0 1.954547353e-38
0.1737743318 -0.8023985624 0 1.963766916e-38
0.1613276899 -0.7958123684 0 1.963766916e-38
0.1490870416 -0.7890386581 0 1.963766916e-38
0.1368817985 -0.7810968757 0 1.963766916e-38
0.1250732839 -0.7739590406 0 1.972986479e-38
0.1136248931 -0.7676362395 0 1.972986479e-38
0.1023668051 -0.7611472011 0 1.972986479e-38
0.09130068868 -0.7544959784 0 1.982206042e-38
0.08042989671 -0.7476864457 0 1.991425605e-38
0.07040124387 -0.7406616807 0 2.000645168e-38
0.0606421344 -0.7345008254 0 2.009864731e-38
0.05111653358 -0.7292106152 0 2.028303857e-38
0.04167316481 -0.7227996588 0 2.03752342e-38
0.03244246542 -0.7172666788 0 2.03752342e-38
0.02335532941 -0.7116168141 0 2.046742983e-38
0.01441288553 -0.7058528662 0 2.065182109e-38
0.005624922924 -0.700977385 0 2.083621235e-38
-0.003035291564 -0.6949933767 0 2.083621235e-38
-0.01156310365 -0.6899030805 0 2.083621235e-38
-0.01996524632 -0.6847089529 0 2.092840798e-38
-0.03203477338 -0.674239397 0 2.102060361e-38
-0.02824111097 -0.6794133186 0 2.102060361e-38
-0.0399710983 -0.6688066125 0 2.111279924e-38
-0.04799537361 -0.6662735343 0 2.120499487e-38
-0.05554359034 -0.6586622 0 2.138938613e-38
-0.06339406967 -0.6559437513 0 2.138938613e-38
-0.07096943259 -0.6511438489 0 2.138938613e-38
-0.07843704522 -0.6462574005 0 2.138938613e-38
-0.08579623699 -0.6412862539 0 2.138938613e-38
-0.09304574877 -0.6362322569 0 2.157377739e-38
-0.1003414318 -0.6320850849 0 2.148158176e-38
-0.1075494587 -0.6278551817 0 2.148158176e-38
-0.1146688759 -0.6235439777 0 2.148158176e-38
-0.1224562824 -0.6190035939 0 2.166597302e-38
-0.1299346387 -0.613388896 0 2.175816865e-38
-0.1375050247 -0.6086611152 0 2.185036428e-38
-0.144971922 -0.603841126 0 2.203475554e-38
-0.1523342282 -0.5989308953 0 2.212695117e-38
-0.159590587 -0.593932569 0 2.212695117e-38
-0.1667405516 -0.5888476968 0 2.194255991e-38
-0.1737828255 -0.583678484 0 2.212695117e-38
-0.1810143441 -0.5793814063 0 2.22191468e-38
-0.1881621629 -0.5749956369 0 2.231134243e-38
-0.1955483556 -0.5714690089 0 2.231134243e-38
-0.2025376707 -0.5669060946 0 2.240353806e-38
-0.2088508904 -0.5624778271 0 2.240353806e-38
-0.2214338928 -0.5533381104 0 2.249573369e-38
-0.2151826769 -0.5579429865 0 2.249573369e-38
-0.2279863507 -0.549588263 0 2.258792932e-38
-0.2401007116 -0.540030241 0 2.295671184e-38
-0.234085083 -0.5448423028 0 2.277232058e-38
-0.2460322082 -0.535153389 0 2.295671184e-38
-0.2580817044 -0.5261082053 0 2.286451621e-38
-0.2523085475 -0.5311161876 0 2.277232058e-38
-0.2642208636 -0.5219313502 0 2.295671184e-38
-0.282427609 -0.5088797808 0 2.332549436e-38
-0.2763056755 -0.5133655071 0 2.31411031e-38
-0.2702958584 -0.5176834464 0 2.304890747e-38
-0.2882154882 -0.5044727921 0 2.350988562e-38
-0.2939378619 -0.5000004768 0 2.350988562e-38
-0.300110966 -0.4963198602 0 2.350988562e-38
-0.3062381446 -0.4925628603 0 2.350988562e-38
-0.3123181164 -0.488730371 0 2.350988562e-38
-0.3178014755 -0.4839867949 0 2.350988562e-38
-0.3237742782 -0.4800116718 0 2.350988562e-38
-0.329128176 -0.475140661 0 2.350988562e-38
-0.3349905014 -0.4710258842 0 2.350988562e-38
-0.3408015966 -0.4668385983 0 2.350988562e-38
-0.3465601206 -0.4625798166 0 2.350988562e-38
-0.3523456752 -0.4581883252 0 2.350988562e-38
-0.3579963446 -0.4537869692 0 2.350988562e-38
-0.3635918498 -0.4493160844 0 2.350988562e-38
-0.3691317439 -0.444776088 0 2.350988562e-38
-0.3746147454 -0.4401679337 0 2.341768999e-38
-0.3813554347 -0.4369989038 0 2.323329873e-38
-0.3907418847 -0.4367113411 0 2.31411031e-38
-0.402207315 -0.4384681284 0 1.94532779e-38
-2.176429749 -2.314407587 0 8.481997947e-39
-2.209106207 -2.291579962 0 8.297606688e-39
-2.238738537 -2.265452385 0 7.375650389e-39
-0.6554393768 -0.6470240951 0 1.087908432e-38
-0.6627443433 -0.6366561055 0 1.908449538e-38
-0.6684277058 -0.6248435974 0 2.009864731e-38
-0.6761320829 -0.6150133014 0 2.03752342e-38
-0.6844416857 -0.6057520509 0 2.055962546e-38
-0.6926243901 -0.5963785648 0 2.046742983e-38
-0.700678885 -0.5868944526 0 2.065182109e-38
-0.7078280449 -0.5766700506 0 2.092840798e-38
-0.7148290873 -0.5663597584 0 2.111279924e-38
-0.7200962901 -0.5547453165 0 2.102060361e-38
-0.7227787971 -0.5412945747 0 2.12971905e-38
-0.7260379791 -0.5284627676 0 2.138938613e-38
-0.7315319777 -0.5173751712 0 2.12971905e-38
-0.7368587255 -0.5062363148 0 2.111279924e-38
-0.7439931631 -0.49749282 0 2.102060361e-38
-0.7552151084 -0.4913767576 0 2.092840798e-38
-0.7689351439 -0.4866608977 0 2.083621235e-38
-0.7852094173 -0.4832496047 0 2.055962546e-38
-0.8058085442 -0.4820721149 0 1.641082212e-38
-0 -0 0 0
-0 -0 0 0
-1.565259337 -0.8580139875 0 2.120499487e-39
-1.575917602 -0.8382771611 0 7.467846019e-39
-1.587215662 -0.8188665509 0 1.106347558e-38
-1.597380161 -0.798856914 0 1.207762751e-38
-1.608192682 -0.7791567445 0 1.032591054e-38
-1.619534731 -0.7600187063 0 1.05103018e-38
-0 -0 0 0
-0 -0 0 0
-0 -0 0 0
-0 -0 0 0
-0 -0 0 0
-0 -0 0 0
-0 -0 0 0
-0 -0 0 0
-1.784965038 -0.6059081554 0 5.808324681e-39
-1.803745985 -0.587459743 0 9.680541136e-39
-1.821982026 -0.5664322376 0 1.318397507e-38
-1.8381598 -0.5476247072 0 1.299958381e-38
-1.855108261 -0.5287858844 0 1.253860566e-38
-1.874761343 -0.5104103684 0 1.216982314e-38
-1.897141814 -0.4923952222 0 1.170884499e-38
-1.927122951 -0.475838691 0 1.115567121e-38
-1.962816715 -0.4600072205 0 1.087908432e-38
-1.993520379 -0.442312479 0 6.73028098e-39
-0 -0 0 0
-1.777798057 -0.3503967524 0 3.595629565e-39
-1.746430874 -0.3227309585 0 8.942976097e-39
-1.743239999 -0.3007918596 0 1.170884499e-38
-1.748954415 -0.2785669863 0 1.216982314e-38
-1.775028825 -0.2602094412 0 1.124786684e-38
-1.805868983 -0.2419118583 0 9.957128025e-39
-1.843473077 -0.2237322628 0 9.403954246e-39
-1.890839815 -0.2057398111 0 9.496149876e-39
-1.910165906 -0.1839225739 0 9.588345506e-39
-1.929238796 -0.1616586298 0 9.496149876e-39
-1.951043129 -0.1391625404 0 8.942976097e-39
-1.991550446 -0.1172684729 0 6.91467224e-39
-0 -0 0 0
-0 -0 0 0
-0 -0 0 0
-0 -0 0 0
-5.059925556 0.02739189565 0 3.687825195e-39
-5.070148468 0.0929390192 0 4.425390233e-39
-0 0 0 0
-0 0 0 0
-5.019812584 0.2868169844 0 5.716129052e-39
-5.013694763 0.3514853418 0 6.54588972e-39
-2.947839975 0.2449541837 0 7.099063499e-39
-2.930494785 0.281666398 0 7.375650389e-39
-2.908719301 0.3175368905 0 7.283454759e-39
-2.88253808 0.3524067998 0 6.82247661e-39
-0.9465863109 0.1407953501 0 1.226201877e-38
-0.9622216225 0.1302711964 0 2.950260156e-39
-0.9348440766 0.1512467861 0 1.843912597e-38
-0.9220056534 0.1612500846 0 1.899229975e-38
-0.9080831409 0.1707660854 0 1.94532779e-38
-0.896030426 0.1803482622 0 1.982206042e-38
-0.882904768 0.1894418001 0 2.009864731e-38
-0.8696945906 0.1982307434 0 2.03752342e-38
-0.8573775887 0.2069486529 0 2.046742983e-38
-0.8449811935 0.2153852433 0 2.065182109e-38
-0.833476305 0.2237994969 0 2.083621235e-38
-0.8228580952 0.232227385 0 2.102060361e-38
-0.812161684 0.2404213399 0 2.120499487e-38
-0.800132513 0.2490622848 0 2.138938613e-38
-0.7893315554 0.256623596 0 2.148158176e-38
-0.7794151902 0.264274478 0 2.166597302e-38
-0.7694321871 0.2717168331 0 2.185036428e-38
-0.7593864202 0.278950423 0 2.194255991e-38
-0.7492812276 0.2859747708 0 2.212695117e-38
-0.739120543 0.2927898169 0 2.231134243e-38
-0.7298329473 0.2997746468 0 2.231134243e-38
-0.7195672393 0.3061813116 0 2.240353806e-38
-0.7101719379 0.3127808273 0 2.249573369e-38
-0.7007252574 0.3191929162 0 2.249573369e-38
-0.6912303567 0.3254175782 0 2.268012495e-38
-0.6812272072 0.3324056864 0 2.277232058e-38
-0.6730029583 0.337751478 0 2.286451621e-38
-0.6647447944 0.3429553211 0 2.286451621e-38
-0.6564549208 0.3480170667 0 2.295671184e-38
-0.6481356025 0.3529365957 0 2.304890747e-38
-0.6424072385 0.3591781557 0 2.295671184e-38
-0.6348858476 0.3643404543 0 2.304890747e-38
-0.6247446537 0.367857486 0 2.31411031e-38
-0.6188847423 0.3737789094 0 2.31411031e-38
-0.6112703681 0.3785624504 0 2.304890747e-38
-0.6036267877 0.383222729 0 2.304890747e-38
-0.5959559083 0.3877596855 0 2.304890747e-38
-0.5872991681 0.3936098814 0 2.31411031e-38
-0.5799054503 0.399156183 0 2.332549436e-38
-0.5724648237 0.4045799971 0 2.350988562e-38
-0.5649791956 0.409881115 0 2.350988562e-38
-0.5574505925 0.4150588214 0 2.350988562e-38
-0.5498806238 0.4201133847 0 2.350988562e-38
-0.5422716141 0.425044179 0 2.350988562e-38
-0.5354042053 0.4304780066 0 2.350988562e-38
-0.5277144313 0.4351706505 0 2.350988562e-38
-0.5207542181 0.4403850436 0 2.350988562e-38
-0.513746202 0.4454939067 0 2.350988562e-38
-0.5066917539 0.4504968822 0 2.350988562e-38
-0.49879691 0.4562648237 0 2.350988562e-38
-0.4916458428 0.4610427022 0 2.350988562e-38
-0.4851742685 0.4664063752 0 2.350988562e-38
-0.4793574214 0.4723826945 0 2.350988562e-38
-0.4748742878 0.4797076583 0 2.350988562e-38
-0.4834811985 0.5006614923 0 2.323329873e-38
-0 0 0 0
-0 0 0 0
-0 0 0 0
-0 0 0 0
-0.7921637297 0.9291487932 0 1.318397507e-38
-0.8029651046 0.9658070803 0 1.788595219e-38
-0.7920244932 0.9773746133 0 1.751716967e-38
-0.7860514522 0.9949609041 0 1.705619152e-38
-0.7828144431 1.016508937 0 1.106347558e-38
-0 0 0 0
-0 0 0 0
-0.7067750692 0.9919643402 0 4.333194604e-39
-0.6830262542 0.9842149019 0 1.134006247e-38
-0.6606992483 0.9776892662 0 1.539667019e-38
-0.6452361345 0.9807886481 0 1.659521338e-38
-0.633032918 0.9887089133 0 1.687180026e-38
-0.6217902303 0.9981747866 0 1.687180026e-38
-0.6145553589 1.014355779 0 1.650301775e-38
-0.6100540161 1.041481256 0 1.502788767e-38
-0.6107658744 1.073401093 0 9.035171727e-39
-0 0 0 0
-0.9375374317 1.748507738 0 4.609781493e-39
-0.9104158878 1.75039196 0 1.115567121e-38
-0.8775425553 1.740264416 0 1.318397507e-38
-0.8433131576 1.725996494 0 1.382934448e-38
-0.8095833063 1.711146951 0 1.401373574e-38
-0.7763608694 1.695726633 0 1.429032263e-38
-0.7440609336 1.68065989 0 1.475130078e-38
-0.7126572132 1.665972352 0 1.530447456e-38
-0.6828867793 1.653537631 0 1.576545271e-38
-0.6539129615 1.641550064 0 1.576545271e-38
-0.6264244914 1.631899714 0 1.576545271e-38
-0.5985897779 1.619944215 0 1.567325708e-38
-0.5711554885 1.607550025 0 1.548886582e-38
-0.5441284776 1.59472537 0 1.558106145e-38
-0.5178260803 1.582428813 0 1.576545271e-38
-0.4919194579 1.569726229 0 1.576545271e-38
-0.4669893384 1.55854094 0 1.60420396e-38
-0.4424182773 1.546980023 0 1.641082212e-38
-0.41768682 1.533120632 0 1.687180026e-38
-0.3943771422 1.522759199 0 1.714838715e-38
-0.3718710542 1.513998985 0 1.733277841e-38
-0.3501740694 1.504793406 0 1.613423523e-38
-0.3282824457 1.494366288 0 1.502788767e-38
-0.306904912 1.484609604 0 1.493569204e-38
-0.2858208716 1.4745543 0 1.475130078e-38
-0.2652117014 1.465190649 0 1.475130078e-38
-0.2447129339 1.454558611 0 1.475130078e-38
-0.2246717066 1.444633722 0 1.484349641e-38
-0.2050564438 1.435427427 0 1.484349641e-38
-0.1857040972 1.425958633 0 1.502788767e-38
-0.1668511629 1.418218851 0 1.539667019e-38
-0.148428455 1.412221193 0 1.567325708e-38
-0.1304567307 1.408973336 0 1.622643086e-38
-0.1125742719 1.411517978 0 1.687180026e-38
-0.09501861781 1.42683959 0 1.465910515e-38
-0.07830890268 1.464908481 0 1.355275759e-38
-0.06053773314 1.50077951 0 1.281519255e-38
-0.04194973782 1.540428877 0 1.226201877e-38
-0.02237616479 1.582841754 0 1.198543188e-38
-0.001699533314 1.624999166 0 1.152445373e-38
0 0 0 0
0 0 0 0
0 0 0 0
0.2994394004 5.83031559 0 3.780020824e-39
0 0 0 0
0 0 0 0
0.2842206955 3.13514328 0 7.191259129e-39
0.3243831694 3.144311666 0 8.942976097e-39
0.3686077595 3.185745955 0 9.403954246e-39
0.4126358032 3.216641188 0 9.127367356e-39
0.4580434859 3.250890017 0 7.00686787e-39
0.8980807066 5.848447323 0 2.304890747e-39
0.9307901859 5.598147869 0 2.120499487e-39
1.039385915 5.805693626 0 1.382934448e-39
1.108800173 5.779601097 0 2.028303857e-39
0 0 0 0
0 0 0 0
0 0 0 0
0 0 0 0
0 0 0 0
0 0 0 0
1.593032241 5.566538334 0 1.659521338e-39
1.65854764 5.531713009 0 2.673673266e-39
0 0 0 0
0 0 0 0
0 0 0 0
0 0 0 0
0 0 0 0
0 0 0 0
0 0 0 0
0 0 0 0
0 0 0 0
2.325123072 5.23705101 0 7.099063499e-39
2.389838934 5.207837105 0 1.078688869e-38
2.459327459 5.188667774 0 5.623933422e-39
0 0 0 0
0 0 0 0
2.657860756 5.107870579 0 2.858064526e-39
2.713392258 5.060441494 0 4.333194604e-39
2.775889874 5.02643013 0 5.347346532e-39
2.370898485 4.170137882 0 3.226847045e-39
2.433664799 4.143102646 0 3.872216454e-39
2.488953829 4.119475365 0 3.964412084e-39
2.544560194 4.095961094 0 4.148803344e-39
2.599424839 4.070858479 0 4.148803344e-39
2.654057264 4.045024395 0 3.964412084e-39
2.70788908 4.017631054 0 3.780020824e-39
2.762589693 3.991167307 0 3.503433935e-39
2.817626238 3.964779377 0 2.120499487e-39
3.454698086 4.735831738 0 2.212695117e-39
3.519711256 4.701463699 0 2.304890747e-39
3.589882135 4.67334938 0 2.397086376e-39
3.657418966 4.641073704 0 2.581477636e-39
3.731311321 4.601205349 0 2.581477636e-39
3.80722332 4.577681541 0 2.765868896e-39
3.875337601 4.543847084 0 2.765868896e-39
3.945827246 4.512037754 0 2.858064526e-39
4.01678896 4.479921818 0 2.858064526e-39
4.086880684 4.44600153 0 2.858064526e-39
4.160178661 4.414665222 0 2.397086376e-39
3.626080275 3.753598452 0 9.219562986e-40
3.782082558 3.819224596 0 2.581477636e-39
3.854053259 3.796626329 0 2.950260156e-39
3.923876047 3.770750761 0 2.581477636e-39
4.070926189 3.714657545 0 3.687825195e-39
3.997293472 3.747143984 0 2.765868896e-39
4.140651703 3.686589003 0 3.964412084e-39
4.223882198 3.669174433 0 3.319042675e-39
0 0 0 0
4.602064133 3.804451227 0 2.489282006e-39
0 0 0 0
4.747095585 3.732908487 0 1.659521338e-39
0 0 0 0
0 0 0 0
0 0 0 0
5.477388382 3.889696598 0 2.765868896e-39
0 0 0 0
0 0 0 0
0 0 0 0
3.097654581 1.96810472 0 3.687825195e-39
3.137965918 1.939558864 0 5.439542162e-39
3.189185381 1.917012453 0 5.992715941e-39
3.247231007 1.897527933 0 6.084911571e-39
3.303539753 1.875906944 0 5.808324681e-39
3.36155653 1.854146481 0 3.964412084e-39
0 0 0 0
3.483670235 1.810391545 0 4.794172753e-39
3.546913147 1.787789464 0 5.900520311e-39
3.605631828 1.761700273 0 3.134651415e-39
0 0 0 0
0 0 0 0
0 0 0 0
4.266132355 1.819658518 0 3.687825195e-39
4.329960823 1.783796549 0 6.54588972e-39
4.418638706 1.756603956 0 7.099063499e-39
4.503563404 1.726049423 0 6.91467224e-39
4.586522102 1.692966104 0 6.361498461e-39
4.644842148 1.649388194 0 3.780020824e-39
0 0 0 0
7.74917841 2.537312031 0 2.304890747e-39
0 0 0 0
0.7405904531 0.2214832157 0 9.496149876e-39
0.7299616933 0.2079347968 0 1.871571286e-38
0.7239337564 0.1960099787 0 2.102060361e-38
0.7215945125 0.1852737367 0 2.212695117e-38
0.722014308 0.1753405035 0 2.286451621e-38
0.7222980857 0.1654281169 0 2.350988562e-38
0.7234240174 0.1557489038 0 2.350988562e-38
0.7263809443 0.1464639008 0 2.350988562e-38
0.7311842442 0.1374977529 0 2.332549436e-38
0.7398171425 0.1291185617 0 2.277232058e-38
0.7493420243 0.1206957698 0 2.185036428e-38
0.7627289891 0.1126298457 0 1.991425605e-38
0 0 0 0
2.388371706 0.2907165289 0 1.309177944e-38
2.376924753 0.2590560019 0 1.336836633e-38
2.365061283 0.2277293056 0 1.346056196e-38
2.352788448 0.1967419237 0 1.355275759e-38
2.342107773 0.166240707 0 1.364495322e-38
2.331033707 0.1360391378 0 1.373714885e-38
2.319572687 0.1061422676 0 1.382934448e-38
2.309729576 0.07662131637 0 1.392154011e-38
2.299512148 0.04736455157 0 1.401373574e-38
2.289926052 0.01838474162 0 1.410593137e-38
