# .PCD v0.7 - Point Cloud Data file format
VERSION 0.7
FIELDS x y z rgb
SIZE 4 4 4 4
TYPE F F F F
COUNT 1 1 1 1
WIDTH 500
HEIGHT 1
VIEWPOINT 0 0 0 1 0 0 0
POINTS 500
DATA ascii
2.274935961 -0.01708511449 0 1.392154011e-38
2.267618895 -0.04157209769 0 1.364495322e-38
2.262038469 -0.06596320122 0 1.318397507e-38
2.293166876 -0.09171489626 0 1.032591054e-38
0 -0 0 0
0 -0 0 0
0 -0 0 0
0 -0 0 0
0 -0 0 0
0 -0 0 0
0 -0 0 0
0 -0 0 0
0.8026269674 -0.1162364259 0 1.106347558e-38
0.7932005525 -0.1250672489 0 1.908449538e-38
0.785651803 -0.1340156496 0 2.148158176e-38
0.7819386125 -0.1435167044 0 2.240353806e-38
0.7771297097 -0.1527527869 0 2.286451621e-38
0.773191452 -0.1620955914 0 2.323329873e-38
0.7701173425 -0.1715814173 0 2.323329873e-38
0.7698470354 -0.1817044169 0 2.277232058e-38
0.7742949724 -0.1930576265 0 2.240353806e-38
0.7892885208 -0.2185970396 0 2.028303857e-38
0.7785781026 -0.2045510709 0 2.166597302e-38
0 -0 0 0
0 -0 0 0
0 -0 0 0
0 -0 0 0
0 -0 0 0
0 -0 0 0
0 -0 0 0
0 -0 0 0
0 -0 0 0
0 -0 0 0
0 -0 0 0
0 -0 0 0
0 -0 0 0
0 -0 0 0
0 -0 0 0
0 -0 0 0
0 -0 0 0
0 -0 0 0
0 -0 0 0
0 -0 0 0
0 -0 0 0
0 -0 0 0
0 -0 0 0
0 -0 0 0
0 -0 0 0
0 -0 0 0
0 -0 0 0
7.270384789 -5.29976511 0 4.886368383e-39
7.204956532 -5.390047073 0 5.255150902e-39
4.861793995 -3.73197031 0 2.581477636e-39
4.409785748 -3.472687244 0 1.475130078e-39
0 -0 0 0
3.624695539 -3.002903461 0 5.162955272e-39
3.595589399 -3.054711103 0 8.758584837e-39
3.565756083 -3.106256008 0 9.035171727e-39
3.532631159 -3.161898136 0 9.219562986e-39
3.501284599 -3.212866068 0 9.403954246e-39
3.470671654 -3.264913559 0 9.219562986e-39
3.440026283 -3.317387342 0 9.219562986e-39
3.409321785 -3.370305777 0 8.758584837e-39
3.408036947 -3.453576565 0 4.425390233e-39
0 -0 0 0
0 -0 0 0
0 -0 0 0
0 -0 0 0
0 -0 0 0
0 -0 0 0
0 -0 0 0
0 -0 0 0
1.106706381 -1.409420133 0 1.115567121e-38
1.056943417 -1.380938649 0 1.05103018e-38
1.012247205 -1.357057214 0 1.060249743e-38
0.9465245008 -1.336837769 0 1.521227893e-38
0.9700726271 -1.334713101 0 1.170884499e-38
0.930454433 -1.349287152 0 1.733277841e-38
0.9192382097 -1.369015098 0 1.770156093e-38
0.9076743126 -1.388671398 0 1.76093653e-38
0.8957636952 -1.408250213 0 1.751716967e-38
0.8829807639 -1.426894784 0 1.724058278e-38
0.8681314588 -1.449982047 0 1.687180026e-38
0.8551060557 -1.471596956 0 1.668740901e-38
0.8406812549 -1.491374969 0 1.659521338e-38
0.8254039288 -1.510148764 0 1.659521338e-38
0.8079068065 -1.525241852 0 1.659521338e-38
0.785133779 -1.530347943 0 1.668740901e-38
0.7890530825 -1.588858485 0 1.677960464e-38
0.7746838927 -1.612571239 0 1.705619152e-38
0.7594059706 -1.635271072 0 1.668740901e-38
0.7440748811 -1.658757448 0 1.576545271e-38
0.7266694903 -1.678449392 0 1.318397507e-38
1.945109844 -4.838675022 0 3.780020824e-39
0.7046367526 -1.687817574 0 3.503433935e-39
1.857055068 -4.79280138 0 4.794172753e-39
1.7844491 -4.782966137 0 3.503433935e-39
0 -0 0 0
0.3086221814 -0.8952996135 0 4.794172753e-39
0.2913810611 -0.8810681105 0 1.475130078e-38
0.2766627967 -0.8732203245 0 1.779375656e-38
0.2621870637 -0.8651438355 0 1.807034345e-38
0.247681424 -0.8558824658 0 1.834693034e-38
0.2337159812 -0.8473593593 0 1.871571286e-38
0.2202585042 -0.8395892382 0 1.899229975e-38
0.2067917138 -0.8306462765 0 1.926888664e-38
0.1935852766 -0.8214990497 0 1.94532779e-38
0.1822121292 -0.8138517737 0 1.94532779e-38
0.1712422073 -0.8070322871 0 1.963766916e-38
0.1604472101 -0.800070405 0 1.954547353e-38
0.1494583786 -0.7910039425 0 1.94532779e-38
0.1390413493 -0.7837623954 0 1.954547353e-38
0.1289693415 -0.7773743868 0 1.963766916e-38
0.1189041659 -0.7698718905 0 1.972986479e-38
0.1091648266 -0.7632326484 0 1.982206042e-38
0.09958840907 -0.756472826 0 2.000645168e-38
0.09029619396 -0.750588119 0 2.019084294e-38
0.0811483413 -0.7445911765 0 2.019084294e-38
0.07021199167 -0.7386705875 0 2.009864731e-38
0.06022188812 -0.7325287461 0 2.019084294e-38
0.05039942637 -0.7262533307 0 2.019084294e-38
0.04074672982 -0.7198477387 0 2.03752342e-38
0.03126584366 -0.7133151293 0 2.046742983e-38
0.02198879607 -0.7076584697 0 2.065182109e-38
0.01286099199 -0.7018821836 0 2.083621235e-38
0.003884627717 -0.6959891319 0 2.092840798e-38
-0.004947308917 -0.6909822822 0 2.102060361e-38
-0.01363113895 -0.6848643422 0 2.092840798e-38
-0.02219220996 -0.6796377897 0 2.083621235e-38
-0.03075876646 -0.6773018837 0 2.083621235e-38
-0.03640641272 -0.6700116396 0 2.083621235e-38
-0.04437308758 -0.6645201445 0 2.102060361e-38
-0.05244594812 -0.6619254947 0 2.120499487e-38
-0.0602786839 -0.6572415829 0 2.148158176e-38
-0.06800406426 -0.6524657011 0 2.175816865e-38
-0.07561978698 -0.6475999355 0 2.194255991e-38
-0.08312542737 -0.6426462531 0 2.194255991e-38
-0.0905206129 -0.6376065016 0 2.185036428e-38
-0.09780313075 -0.6324828267 0 2.166597302e-38
-0.104972668 -0.6272771955 0 2.157377739e-38
-0.1122055799 -0.6229758859 0 2.166597302e-38
-0.1193483919 -0.6185919046 0 2.175816865e-38
-0.1273643076 -0.6139277816 0 2.194255991e-38
-0.1349541396 -0.6092318296 0 2.212695117e-38
-0.1426708251 -0.6054164171 0 2.22191468e-38
-0.1500664055 -0.6005340219 0 2.22191468e-38
-0.1573569477 -0.5955625772 0 2.212695117e-38
-0.1645410955 -0.5905041695 0 2.212695117e-38
-0.1716176122 -0.5853609443 0 2.203475554e-38
-0.1788802147 -0.5810902119 0 2.212695117e-38
-0.1860588789 -0.5767304897 0 2.240353806e-38
-0.1931530237 -0.5722830296 0 2.258792932e-38
-0.2001613975 -0.5677494407 0 2.268012495e-38
-0.2141111791 -0.558355093 0 2.268012495e-38
-0.2070826441 -0.5631312728 0 2.268012495e-38
-0.2202745527 -0.5538006425 0 2.258792932e-38
-0.226357758 -0.549179554 0 2.231134243e-38
-0.2327531725 -0.5454126596 0 2.22191468e-38
-0.2386859208 -0.5406570435 0 2.231134243e-38
-0.2445369065 -0.535838306 0 2.258792932e-38
-0.2507316768 -0.5318623781 0 2.268012495e-38
-0.2564277053 -0.5269163847 0 2.295671184e-38
-0.2624887228 -0.5228046179 0 2.323329873e-38
-0.2684870362 -0.5186238289 0 2.341768999e-38
-0.2744223475 -0.514374733 0 2.341768999e-38
-0.2802934349 -0.510058403 0 2.323329873e-38
-0.2873876989 -0.506095171 0 2.304890747e-38
-0.2930446863 -0.5016829371 0 2.31411031e-38
-0.2991517484 -0.4980654716 0 2.323329873e-38
-0.3046890795 -0.4935226142 0 2.341768999e-38
-0.3101601303 -0.4889189005 0 2.350988562e-38
-0.3161099851 -0.4850932658 0 2.350988562e-38
-0.3220128715 -0.4811950922 0 2.350988562e-38
-0.327301234 -0.4764010012 0 2.350988562e-38
-0.3330970705 -0.4723667204 0 2.350988562e-38
-0.338842988 -0.468262136 0 2.350988562e-38
-0.3445385993 -0.4640874565 0 2.350988562e-38
-0.3501825035 -0.4598436654 0 2.350988562e-38
-0.3566484451 -0.4548470974 0 2.350988562e-38
-0.3622571826 -0.4503928721 0 2.350988562e-38
-0.3678105474 -0.4458692968 0 2.350988562e-38
-0.3739530146 -0.4420408607 0 2.350988562e-38
-0.3800570965 -0.4381285012 0 2.350988562e-38
-0.3874508739 -0.4356269538 0 2.304890747e-38
-0.3988831639 -0.4374428093 0 2.009864731e-38
-2.166139603 -2.317201376 0 8.481997947e-39
-2.201605082 -2.297402382 0 8.389802318e-39
-2.23410964 -2.27422452 0 8.113215428e-39
-0 -0 0 0
-0.6680548191 -0.6310814619 0 1.834693034e-38
-0.6686908603 -0.6477758288 0 1.502788767e-38
-0.6731187105 -0.6183099151 0 1.954547353e-38
-0.6809401512 -0.6081854105 0 1.991425605e-38
-0.6886101961 -0.5979631543 0 2.028303857e-38
-0.6968920231 -0.5882902741 0 2.055962546e-38
-0.7058109045 -0.5791372061 0 2.074401672e-38
-0.7130463719 -0.568602562 0 2.102060361e-38
-0.7201253772 -0.5579788685 0 2.120499487e-38
-0.7262476683 -0.5466674566 0 2.12971905e-38
-0.731387794 -0.5347035527 0 2.120499487e-38
-0.7363359332 -0.5227030516 0 2.111279924e-38
-0.7419154048 -0.51123631 0 2.092840798e-38
-0.74937433 -0.5020379424 0 2.083621235e-38
-0.7579643726 -0.4944845438 0 2.074401672e-38
-0.7740784883 -0.4916212261 0 2.046742983e-38
-0.7902345657 -0.4884366393 0 2.046742983e-38
-0.8089976311 -0.4864759147 0 1.85313216e-38
-0.8304184675 -0.4856430292 0 9.772736766e-39
-1.562405467 -0.8631998897 0 2.950260156e-39
-0 -0 0 0
-1.571072459 -0.8431015015 0 7.744432909e-39
-1.59030962 -0.8040143847 0 1.23542144e-38
-1.5803684 -0.8233831525 0 1.152445373e-38
-1.619481325 -0.7648275495 0 1.115567121e-38
-1.601809382 -0.7854061127 0 1.032591054e-38
-0 -0 0 0
-0 -0 0 0
-0 -0 0 0
-0 -0 0 0
-0 -0 0 0
-0 -0 0 0
-0 -0 0 0
-1.731503487 -0.6165549755 0 7.560041649e-39
-1.790102124 -0.6125341654 0 6.63808535e-39
-1.815606713 -0.5962327123 0 1.180104062e-38
-1.830486417 -0.5760909319 0 1.263080129e-38
-1.846683383 -0.5540255904 0 1.253860566e-38
-1.866678357 -0.5356081128 0 1.244641003e-38
-1.888424397 -0.5173171163 0 1.207762751e-38
-1.910966277 -0.4988316 0 1.170884499e-38
-1.935275078 -0.4803602993 0 1.115567121e-38
-1.973041058 -0.4645834863 0 1.014151928e-38
-2.00094223 -0.4457910359 0 4.609781493e-39
-0 -0 0 0
-1.77957654 -0.3517148495 0 3.872216454e-39
-1.745334864 -0.3231580555 0 9.127367356e-39
-1.742202044 -0.3009254634 0 1.170884499e-38
-1.750636578 -0.2807148397 0 1.226201877e-38
-1.77700758 -0.260499537 0 1.124786684e-38
-1.805869102 -0.2419114262 0 9.680541136e-39
-1.846451283 -0.2240937054 0 9.219562986e-39
-1.891833901 -0.2058475316 0 9.403954246e-39
-1.911161184 -0.1840184182 0 9.496149876e-39
-1.930235505 -0.1617416739 0 9.588345506e-39
-1.957028031 -0.1395894289 0 8.850780467e-39
-1.994545341 -0.1174443364 0 6.54588972e-39
-0 -0 0 0
-0 -0 0 0
-0 -0 0 0
-0 -0 0 0
-5.076959133 0.02039318159 0 3.226847045e-39
-5.071211815 0.08941600472 0 4.148803344e-39
-0 0 0 0
-0 0 0 0
-5.021404266 0.2939409614 0 6.177107201e-39
-2.954307556 0.2133296579 0 3.042455785e-39
-2.950133562 0.2534413934 0 7.560041649e-39
-2.933474064 0.2922899723 0 7.099063499e-39
-2.906369686 0.329605341 0 7.191259129e-39
-2.87086153 0.3652271032 0 6.91467224e-39
-0.9525673389 0.1343856156 0 5.992715941e-39
-0.9427440166 0.1461154372 0 1.336836633e-38
-0.9320667386 0.1558097005 0 1.862351723e-38
-0.920193553 0.1657371521 0 1.908449538e-38
-0.9072377682 0.175201714 0 1.936108227e-38
-0.8951705098 0.1845688671 0 1.972986479e-38
-0.8820359707 0.193446517 0 2.009864731e-38
-0.8688213229 0.2020235807 0 2.03752342e-38
-0.8565031886 0.2105383873 0 2.065182109e-38
-0.8450778127 0.2190263718 0 2.083621235e-38
-0.833575666 0.2272610366 0 2.092840798e-38
-0.8220014572 0.2352415621 0 2.111279924e-38
-0.8103597164 0.2429675013 0 2.120499487e-38
-0.7996090055 0.2507377863 0 2.138938613e-38
-0.7906202674 0.2526254058 0 2.166597302e-38
-0.7807882428 0.2601899505 0 2.194255991e-38
-0.7708910704 0.267549932 0 2.212695117e-38
-0.7609324455 0.2747049332 0 2.212695117e-38
-0.750915885 0.2816545963 0 2.22191468e-38
-0.7417768836 0.2887613475 0 2.212695117e-38
-0.7316504717 0.2953108847 0 2.194255991e-38
-0.722399354 0.3020399809 0 2.212695117e-38
-0.712176919 0.308188349 0 2.231134243e-38
-0.7019139528 0.3141301572 0 2.249573369e-38
-0.6925216913 0.3202853501 0 2.268012495e-38
-0.6830855608 0.3262562454 0 2.277232058e-38
-0.6729898453 0.3355422914 0 2.286451621e-38
-0.6636229157 0.3407647908 0 2.277232058e-38
-0.6551114321 0.3462802172 0 2.286451621e-38
-0.6465633512 0.351641655 0 2.286451621e-38
-0.6379806995 0.356849581 0 2.295671184e-38
-0.6319669485 0.36339885 0 2.304890747e-38
-0.6241659522 0.3688386381 0 2.304890747e-38
-0.616325438 0.3741443753 0 2.295671184e-38
-0.6084471941 0.3793165386 0 2.295671184e-38
-0.6005336046 0.3843544424 0 2.304890747e-38
-0.5934222937 0.3898075819 0 2.31411031e-38
-0.5854374766 0.3945870399 0 2.323329873e-38
-0.5780361891 0.4001039267 0 2.350988562e-38
-0.5697027445 0.4050182402 0 2.350988562e-38
-0.5621452928 0.4103762805 0 2.350988562e-38
-0.5545434952 0.4156086445 0 2.350988562e-38
-0.5468992591 0.4207151532 0 2.350988562e-38
-0.5399996042 0.4263150096 0 2.350988562e-38
-0.5322687626 0.4311785698 0 2.350988562e-38
-0.5245014429 0.4359153509 0 2.350988562e-38
-0.5174604058 0.4411742985 0 2.350988562e-38
-0.5103701353 0.4463253617 0 2.350988562e-38
-0.4960489273 0.456302017 0 2.350988562e-38
-0.5032324791 0.4513680041 0 2.350988562e-38
-0.4890623391 0.4608708918 0 2.350988562e-38
-0.4833138287 0.4668958783 0 2.350988562e-38
-0.4782018363 0.4735524952 0 2.341768999e-38
-0.4744023383 0.4815790951 0 2.295671184e-38
-0.4940357506 0.5140988827 0 2.185036428e-38
-0 0 0 0
-0 0 0 0
-0 0 0 0
-0 0 0 0
-0 0 0 0
-0 0 0 0
-0 0 0 0
-3.474387646 4.307410717 0 3.134651415e-39
-0 0 0 0
-0 0 0 0
-4.472845554 6.165415287 0 3.687825195e-39
-0.5971959233 0.8453294635 0 7.099063499e-39
-0.5774593353 0.839584291 0 1.548886582e-38
-0.5607442856 0.8376334906 0 1.76093653e-38
-0.5468996167 0.8395860195 0 1.825473471e-38
-0.5352357626 0.8447027206 0 1.880790849e-38
-0.5235295892 0.8496592045 0 1.908449538e-38
-0.512811482 0.8561707735 0 1.899229975e-38
-0.5035214424 0.8651400208 0 1.890010412e-38
-0.4970393479 0.8792336583 0 1.797814782e-38
-0.4922064841 0.8968064785 0 1.548886582e-38
-0.5105135441 0.9585258365 0 9.035171727e-39
-0.4947567284 0.9577576518 0 1.401373574e-38
-0.4786526859 0.9558517933 0 1.705619152e-38
-0.4639847279 0.956392765 0 1.770156093e-38
-0.4519298375 0.9621477127 0 1.807034345e-38
-0.4402179122 0.9686610103 0 1.816253908e-38
-0.4308267236 0.9805250168 0 1.797814782e-38
-0.4231601655 0.9969073534 0 1.751716967e-38
-0.4170447588 1.017876983 0 1.613423523e-38
-0.4130405486 1.045358062 0 1.014151928e-38
-0.6173126698 1.622535229 0 1.521227893e-38
-0.5889673233 1.608566761 0 1.539667019e-38
-0.5617354512 1.596031785 0 1.548886582e-38
-0.5355531573 1.584964275 0 1.558106145e-38
-0.5091221333 1.571591139 0 1.567325708e-38
-0.4834091961 1.558762193 0 1.585764834e-38
-0.4342890084 1.535776377 0 1.687180026e-38
-0.4589523673 1.548414588 0 1.641082212e-38
-0.4105362296 1.524697065 0 1.714838715e-38
-0.3876266479 1.515203476 0 1.705619152e-38
-0.3652569056 1.506348968 0 1.631862649e-38
-0.3429478109 1.496199131 0 1.539667019e-38
-0.3131688833 1.48738873 0 1.502788767e-38
-0.2919995785 1.477420926 0 1.475130078e-38
-0.2713068724 1.468142271 0 1.475130078e-38
-0.2507204413 1.457593918 0 1.475130078e-38
-0.2305947542 1.447750688 0 1.484349641e-38
-0.2110419571 1.439613223 0 1.493569204e-38
-0.1915929765 1.430224061 0 1.502788767e-38
-0.172410056 1.420575857 0 1.530447456e-38
-0.1538203955 1.413656116 0 1.548886582e-38
-0.1357155442 1.409481168 0 1.567325708e-38
-0.1181562021 1.410058141 0 1.650301775e-38
-0.1011016443 1.41739881 0 1.521227893e-38
-0.08318938315 1.451618314 0 1.392154011e-38
-0.06720393896 1.491486788 0 1.336836633e-38
-0.05015897006 1.528177142 0 1.281519255e-38
-0.03232942894 1.56966722 0 1.23542144e-38
-0.01350260526 1.611943364 0 1.170884499e-38
0.006380081642 1.660987735 0 1.106347558e-38
0.02742677368 1.707779765 0 1.060249743e-38
0.04973009229 1.758296847 0 9.680541136e-39
0.07331293821 1.809515476 0 5.531737792e-39
0 0 0 0
0 0 0 0
0.2858537436 3.14704442 0 8.574193577e-39
0.2423035502 3.134649038 0 5.439542162e-39
0.373393029 3.212371826 0 9.680541136e-39
0.3281570375 3.170060396 0 9.588345506e-39
0.4180798531 3.241146803 0 8.113215428e-39
0.8341627717 5.883156776 0 3.595629565e-39
0.9743088484 5.815954685 0 8.297606688e-40
0.869821012 5.625146389 0 2.397086376e-39
1.04553926 5.793411255 0 1.475130078e-39
0 0 0 0
0 0 0 0
0 0 0 0
0 0 0 0
0 0 0 0
0 0 0 0
0 0 0 0
0 0 0 0
0 0 0 0
0 0 0 0
0 0 0 0
0 0 0 0
0 0 0 0
0 0 0 0
0 0 0 0
0.9103008509 2.13830018 0 1.134006247e-38
0.8856202364 2.150802851 0 7.744432909e-39
0.9346796274 2.121201992 0 8.021019798e-39
2.372465134 5.205886364 0 1.078688869e-38
2.442382097 5.185614109 0 8.297606688e-39
0 0 0 0
0 0 0 0
2.649890661 5.116514683 0 3.411238305e-39
2.70596838 5.067815781 0 3.042455785e-39
2.768472672 5.031660557 0 5.808324681e-39
2.368525505 4.179533958 0 2.581477636e-39
2.421866655 4.151168346 0 3.964412084e-39
2.531680346 4.103934288 0 4.148803344e-39
2.477957249 4.12726593 0 4.148803344e-39
2.586087942 4.078160286 0 4.240998974e-39
2.639701366 4.050827503 0 4.148803344e-39
2.690806627 4.019468784 0 3.872216454e-39
2.744372606 3.991585493 0 3.595629565e-39
2.794199705 3.95808959 0 3.042455785e-39
3.440392971 4.747469425 0 1.936108227e-39
3.503730536 4.710892677 0 2.304890747e-39
3.573363304 4.682219028 0 2.489282006e-39
3.641590595 4.65096426 0 2.673673266e-39
3.709588051 4.618736744 0 2.673673266e-39
3.781159639 4.590167999 0 2.765868896e-39
3.857162714 4.55142355 0 2.858064526e-39
3.927039146 4.519129276 0 2.858064526e-39
3.997373343 4.486544609 0 2.858064526e-39
4.065474987 4.450696468 0 2.858064526e-39
4.142185688 4.423335075 0 2.673673266e-39
3.607343674 3.757759094 0 1.382934448e-39
3.772871733 3.83393836 0 2.304890747e-39
3.84139514 3.808012962 0 3.042455785e-39
3.912727833 3.783756018 0 1.843912597e-39
3.983319998 3.757623672 0 1.843912597e-39
4.053123474 3.729645014 0 3.503433935e-39
4.200020313 3.660036802 0 3.503433935e-39
4.124330521 3.701845646 0 3.964412084e-39
0 0 0 0
4.591254234 3.804964066 0 2.581477636e-39
0 0 0 0
4.759545803 3.749427319 0 1.475130078e-39
0 0 0 0
0 0 0 0
0 0 0 0
5.472632408 3.88775754 0 2.765868896e-39
5.565618038 3.850938082 0 2.397086376e-39
0 0 0 0
0 0 0 0
3.086313486 1.965438604 0 3.319042675e-39
3.12947154 1.938084006 0 5.347346532e-39
3.185276985 1.9176898 0 6.084911571e-39
3.241922379 1.896701217 0 6.361498461e-39
3.294191122 1.872118354 0 6.177107201e-39
3.354228973 1.850867033 0 4.886368383e-39
0 0 0 0
3.47777462 1.806555986 0 4.333194604e-39
3.538605928 1.782052279 0 5.808324681e-39
3.602959633 1.758056045 0 4.333194604e-39
0 0 0 0
0 0 0 0
0 0 0 0
4.251035213 1.819361448 0 2.489282006e-39
4.319461346 1.785645127 0 6.54588972e-39
4.405344486 1.757552505 0 7.00686787e-39
4.486517906 1.725806713 0 6.91467224e-39
4.574135303 1.694747329 0 6.73028098e-39
4.661663055 1.661775351 0 4.886368383e-39
0 0 0 0
7.760321617 2.551463366 0 2.397086376e-39
0 0 0 0
0 0 0 0
0.9599633813 0.2765346467 0 7.00686787e-39
0.9473310709 0.2586269379 0 1.659521338e-38
0.9407415986 0.2445182949 0 2.028303857e-38
0.938804388 0.231808722 0 2.12971905e-38
0.9405927062 0.2200940102 0 2.185036428e-38
0.9432113767 0.2085866928 0 2.166597302e-38
0.9486261606 0.1976596415 0 2.138938613e-38
0.9578400254 0.1873994023 0 2.055962546e-38
0.9708782434 0.1776638329 0 1.899229975e-38
0.9917064309 0.1689806432 0 1.502788767e-38
10.06340218 1.588484168 0 2.397086376e-39
2.387907982 0.3470804989 0 4.425390233e-39
2.385030985 0.3169588745 0 1.180104062e-38
2.378546 0.2802565098 0 1.309177944e-38
2.367956638 0.2488820702 0 1.318397507e-38
2.356956482 0.2178182453 0 1.346056196e-38
2.345551729 0.1870703399 0 1.364495322e-38
2.334746599 0.1567106247 0 1.373714885e-38
2.323550701 0.1266521662 0 1.382934448e-38
2.312969446 0.09694181383 0 1.392154011e-38
2.30300951 0.06754676998 0 1.401373574e-38
2.292678118 0.03841741011 0 1.401373574e-38
2.283979893 0.009566771798 0 1.401373574e-38
