# .PCD v0.7 - Point Cloud Data file format
VERSION 0.7
FIELDS x y z rgb
SIZE 4 4 4 4
TYPE F F F F
COUNT 1 1 1 1
WIDTH 500
HEIGHT 1
VIEWPOINT 0 0 0 1 0 0 0
POINTS 500
DATA ascii
2.267935991 -0.01703362353 0 1.373714885e-38
2.266558886 -0.04471941292 0 1.226201877e-38
0 -0 0 0
0 -0 0 0
0 -0 0 0
0 -0 0 0
0 -0 0 0
0 -0 0 0
0 -0 0 0
0 -0 0 0
0.8181997538 -0.1132479757 0 5.531737792e-39
0.7978624701 -0.1210968271 0 1.594984397e-38
0.7814751267 -0.1404730529 0 2.231134243e-38
0.7883160114 -0.1302263886 0 2.046742983e-38
0.7776581645 -0.1500393301 0 2.31411031e-38
0.7737247348 -0.1595308483 0 2.332549436e-38
0.7706525922 -0.1691613197 0 2.350988562e-38
0.7694089413 -0.179192394 0 2.31411031e-38
0.7699763179 -0.1896983236 0 2.268012495e-38
0.7762075067 -0.2017570883 0 2.203475554e-38
0.7832195759 -0.2142686099 0 2.074401672e-38
0.7958039641 -0.2286483496 0 1.770156093e-38
0 -0 0 0
0 -0 0 0
0 -0 0 0
0 -0 0 0
0 -0 0 0
0 -0 0 0
0 -0 0 0
0 -0 0 0
0 -0 0 0
0 -0 0 0
0 -0 0 0
0 -0 0 0
0 -0 0 0
0 -0 0 0
0 -0 0 0
0 -0 0 0
0 -0 0 0
0 -0 0 0
0 -0 0 0
0 -0 0 0
0 -0 0 0
0 -0 0 0
0 -0 0 0
0 -0 0 0
0 -0 0 0
0 -0 0 0
7.321604729 -5.216722488 0 3.687825195e-39
7.256728649 -5.315064907 0 4.886368383e-39
7.185369015 -5.402829647 0 3.964412084e-39
0 -0 0 0
4.117081165 -3.26085043 0 2.120499487e-39
3.652835608 -2.968608856 0 3.226847045e-39
3.622157097 -3.020038605 0 8.021019798e-39
3.591519833 -3.071816921 0 9.035171727e-39
3.560152531 -3.123301268 0 9.127367356e-39
3.529545546 -3.175817013 0 9.311758616e-39
3.498912573 -3.228735447 0 9.219562986e-39
3.467507124 -3.281382799 0 9.311758616e-39
3.396238565 -3.382072687 0 6.54588972e-39
3.43460989 -3.333053827 0 9.035171727e-39
0 -0 0 0
0 -0 0 0
0 -0 0 0
0 -0 0 0
0 -0 0 0
0 -0 0 0
0 -0 0 0
0 -0 0 0
0 -0 0 0
0 -0 0 0
0.9832179546 -1.339972496 0 1.134006247e-38
1.025613666 -1.362035871 0 1.041810617e-38
0.952930212 -1.333508611 0 1.373714885e-38
0.9360984564 -1.345377564 0 1.705619152e-38
0.9224821925 -1.36200273 0 1.751716967e-38
0.9107987881 -1.381835938 0 1.76093653e-38
0.8987603188 -1.401590109 0 1.770156093e-38
0.8863690495 -1.421258092 0 1.751716967e-38
0.8741424084 -1.441690326 0 1.733277841e-38
0.862048924 -1.462899685 0 1.705619152e-38
0.8495602608 -1.484030724 0 1.687180026e-38
0.8352174163 -1.502455592 0 1.677960464e-38
0.8205456734 -1.520752788 0 1.668740901e-38
0.8074737787 -1.541293621 0 1.668740901e-38
0.7973809242 -1.565641284 0 1.687180026e-38
0.7890524268 -1.594439507 0 1.687180026e-38
0.7766972184 -1.616041541 0 1.677960464e-38
0.7635270953 -1.636662006 0 1.641082212e-38
0.7520457506 -1.661747098 0 1.493569204e-38
0.7408895493 -1.688614488 0 1.060249743e-38
2.06010747 -4.846309185 0 2.581477636e-39
1.972937703 -4.793889046 0 4.425390233e-39
1.893543482 -4.755907059 0 4.425390233e-39
0 -0 0 0
0 -0 0 0
0.3144408166 -0.8816025257 0 8.481997947e-39
0.2994486392 -0.8741318583 0 1.677960464e-38
0.284694463 -0.8664254546 0 1.788595219e-38
0.2701822519 -0.8584879041 0 1.807034345e-38
0.2559146583 -0.8503244519 0 1.85313216e-38
0.2418954223 -0.8419397473 0 1.890010412e-38
0.2281282991 -0.8333387971 0 1.917669101e-38
0.2148674875 -0.825494349 0 1.94532779e-38
0.2016009688 -0.8164790869 0 1.954547353e-38
0.1890500039 -0.8092101216 0 1.963766916e-38
0.1769291759 -0.8027328849 0 1.954547353e-38
0.1647987068 -0.7951008677 0 1.94532779e-38
0.1530257165 -0.7872655988 0 1.954547353e-38
0.1416507512 -0.7802461386 0 1.94532779e-38
0.1306402832 -0.7740530968 0 1.963766916e-38
0.1198048815 -0.7677081227 0 1.982206042e-38
0.109147355 -0.7612147331 0 2.000645168e-38
0.09866895527 -0.7545763254 0 2.019084294e-38
0.08848935366 -0.7487894297 0 2.028303857e-38
0.07836375386 -0.7418727279 0 2.03752342e-38
0.06851566583 -0.7358170152 0 2.028303857e-38
0.05882977322 -0.7296321392 0 2.028303857e-38
0.04930812865 -0.7233213186 0 2.019084294e-38
0.02993681096 -0.7113703489 0 2.03752342e-38
0.04000762478 -0.7178860307 0 2.028303857e-38
0.02094176784 -0.705689311 0 2.055962546e-38
0.01209147274 -0.6998955607 0 2.092840798e-38
0.003393549472 -0.6949917078 0 2.102060361e-38
-0.005180983804 -0.6899805665 0 2.120499487e-38
-0.01363113895 -0.6848643422 0 2.120499487e-38
-0.02195530757 -0.6796454787 0 2.120499487e-38
-0.03015193343 -0.674326241 0 2.102060361e-38
-0.03822014108 -0.6689090133 0 2.111279924e-38
-0.04636699706 -0.6663888097 0 2.120499487e-38
-0.05429438874 -0.6617764831 0 2.12971905e-38
-0.0621140115 -0.6570706964 0 2.157377739e-38
-0.07028104365 -0.6522243619 0 2.185036428e-38
-0.07787973434 -0.6473320127 0 2.203475554e-38
-0.08536835015 -0.6423521042 0 2.203475554e-38
-0.09274528176 -0.6372866631 0 2.194255991e-38
-0.1000101864 -0.6321375966 0 2.185036428e-38
-0.1143796593 -0.622580409 0 2.148158176e-38
-0.1073302999 -0.627892673 0 2.166597302e-38
-0.1215068176 -0.6181715727 0 2.148158176e-38
-0.1354860067 -0.6091137528 0 2.185036428e-38
-0.1285429597 -0.6136820316 0 2.166597302e-38
-0.1564784944 -0.5947600603 0 2.212695117e-38
-0.1490911096 -0.5997464657 0 2.212695117e-38
-0.1423356682 -0.604467988 0 2.203475554e-38
-0.163654983 -0.5897126794 0 2.212695117e-38
-0.170724228 -0.5845804214 0 2.194255991e-38
-0.1779781431 -0.5803212523 0 2.194255991e-38
-0.1851488203 -0.5759730339 0 2.203475554e-38
-0.1922348738 -0.5715371966 0 2.22191468e-38
-0.1992352605 -0.5670152903 0 2.231134243e-38
-0.206148684 -0.5624088049 0 2.258792932e-38
-0.2129746675 -0.5577192903 0 2.258792932e-38
-0.2197117209 -0.5529482961 0 2.277232058e-38
-0.2267410904 -0.5490213633 0 2.268012495e-38
-0.2333105803 -0.5440865755 0 2.268012495e-38
-0.2400707155 -0.5389489532 0 2.258792932e-38
-0.2463123649 -0.5350244641 0 2.249573369e-38
-0.2520642579 -0.5301250815 0 2.258792932e-38
-0.2581735253 -0.5260631442 0 2.277232058e-38
-0.2642208636 -0.5219313502 0 2.295671184e-38
-0.2702052593 -0.5177307129 0 2.323329873e-38
-0.2761264741 -0.5134619474 0 2.350988562e-38
-0.2819834352 -0.5091260672 0 2.350988562e-38
-0.2877751589 -0.5047240853 0 2.350988562e-38
-0.2935011983 -0.5002569556 0 2.350988562e-38
-0.2996776998 -0.4965815544 0 2.350988562e-38
-0.3058082461 -0.4928299189 0 2.350988562e-38
-0.3119501472 -0.4877787232 0 2.332549436e-38
-0.3179703653 -0.4838758409 0 2.341768999e-38
-0.323941797 -0.4798986316 0 2.350988562e-38
-0.3292939663 -0.475025773 0 2.350988562e-38
-0.3351550996 -0.470908761 0 2.350988562e-38
-0.3409645259 -0.4667195976 0 2.350988562e-38
-0.346721828 -0.4624586403 0 2.350988562e-38
-0.3524256349 -0.4581268132 0 2.350988562e-38
-0.3580755293 -0.4537244737 0 2.350988562e-38
-0.3636702597 -0.4492526352 0 2.350988562e-38
-0.369209379 -0.4447116554 0 2.341768999e-38
-0.3746915758 -0.4401025772 0 2.323329873e-38
-0.3807739317 -0.4361791015 0 2.323329873e-38
-0.3885286748 -0.4333237708 0 2.332549436e-38
-0.4030483365 -0.4376952052 0 1.972986479e-38
-2.184258461 -2.309773684 0 8.481997947e-39
-2.220276594 -2.286337852 0 8.481997947e-39
-2.256762981 -2.263059139 0 8.389802318e-39
-2.294451714 -2.240611553 0 8.389802318e-39
-2.331216335 -2.2168715 0 8.297606688e-39
-2.367753267 -2.192549467 0 8.297606688e-39
-2.404796362 -2.168316603 0 8.297606688e-39
-2.443115711 -2.144804716 0 8.205411058e-39
-2.483512402 -2.122605801 0 8.113215428e-39
-2.524480581 -2.098829985 0 8.113215428e-39
-2.563500881 -2.078091145 0 8.113215428e-39
-2.601607084 -2.056087494 0 8.113215428e-39
-2.637976408 -2.032235146 0 8.205411058e-39
-2.672552109 -2.006596565 0 8.297606688e-39
-2.702861547 -1.977458119 0 8.389802318e-39
-2.731228828 -1.946716547 0 8.481997947e-39
-2.75432086 -1.912152052 0 8.481997947e-39
-2.765376568 -1.869475007 0 8.481997947e-39
-2.768282175 -1.821869612 0 8.481997947e-39
-2.770435572 -1.774482012 0 8.113215428e-39
-2.798197508 -1.693969131 0 7.652237279e-39
-2.782875776 -1.734198332 0 7.836628538e-39
-0 -0 0 0
-0 -0 0 0
-0 -0 0 0
-1.62433064 -0.8749713898 0 9.403954246e-39
-1.611267686 -0.8419858217 0 1.198543188e-38
-1.593175769 -0.8072093129 0 1.23542144e-38
-1.543051004 -0.7575978041 0 1.060249743e-38
-1.51361537 -0.7196836472 0 9.496149876e-39
-1.523447871 -0.7010247111 0 9.496149876e-39
-1.539445758 -0.6850779653 0 1.032591054e-38
-1.576709628 -0.6514774561 0 5.531737792e-39
-1.55711937 -0.6696298718 0 1.078688869e-38
-0 -0 0 0
-0 -0 0 0
-0 -0 0 0
-1.823711753 -0.6497472525 0 1.05103018e-38
-1.845814466 -0.6319571137 0 1.106347558e-38
-1.901955128 -0.6249572039 0 9.496149876e-39
-3.940242052 -1.240828276 0 3.780020824e-39
-3.973506689 -1.197390556 0 5.070759642e-39
-4.037049294 -1.162168741 0 6.084911571e-39
-2.766655684 -0.7594582438 0 4.056607714e-39
-2.787464619 -0.7281498909 0 8.113215428e-39
-2.810590029 -0.6939806938 0 8.297606688e-39
-2.842806578 -0.662579 0 8.205411058e-39
-2.876632214 -0.6308810115 0 7.836628538e-39
-2.902275085 -0.5967987776 0 6.177107201e-39
-1.784399748 -0.3426467776 0 3.411238305e-39
-1.750338554 -0.3124079108 0 8.850780467e-39
-1.74638474 -0.2881675959 0 1.180104062e-38
-1.755939364 -0.2661828399 0 1.216982314e-38
-1.781065822 -0.2461874932 0 1.106347558e-38
-1.806958318 -0.2257038504 0 9.680541136e-39
-1.8534863 -0.2069139183 0 9.219562986e-39
-1.910249352 -0.1607384384 0 9.496149876e-39
-1.894848585 -0.1864541173 0 9.496149876e-39
-1.928978205 -0.1392810941 0 9.496149876e-39
-1.956448197 -0.1179423258 0 8.758584837e-39
-1.99167037 -0.09635845572 0 6.45369409e-39
-0 -0 0 0
-0 -0 0 0
-0 -0 0 0
-0 -0 0 0
-5.07569313 0.0558267571 0 3.226847045e-39
-5.073673248 0.1160368621 0 4.240998974e-39
-0 0 0 0
-5.022773743 0.3045799434 0 6.084911571e-39
-0 0 0 0
-2.94614172 0.2153251171 0 2.581477636e-39
-2.943247318 0.2518156469 0 7.191259129e-39
-2.929948807 0.2872916758 0 7.00686787e-39
-2.907278776 0.3214877248 0 7.099063499e-39
-2.887191772 0.3555330634 0 6.63808535e-39
-0.9651488066 0.1310103238 0 4.333194604e-39
-0.9476245642 0.1406114846 0 1.318397507e-38
-0.9339621067 0.1504348963 0 1.871571286e-38
-0.9221740961 0.160284102 0 1.917669101e-38
-0.908320725 0.1694978625 0 1.936108227e-38
-0.8943824172 0.1783930063 0 1.954547353e-38
-0.881146729 0.1880996525 0 1.982206042e-38
-0.8690980673 0.1963402033 0 2.000645168e-38
-0.8579521775 0.2045535445 0 2.028303857e-38
-0.8457648754 0.2122867852 0 2.055962546e-38
-0.8344833255 0.2200148553 0 2.083621235e-38
-0.8231386542 0.227505371 0 2.120499487e-38
-0.811735034 0.2347579747 0 2.138938613e-38
-0.8012336493 0.2420612574 0 2.138938613e-38
-0.7916280031 0.2494496107 0 2.157377739e-38
-0.7810108066 0.256332159 0 2.175816865e-38
-0.771288991 0.2633216381 0 2.194255991e-38
-0.7615123987 0.2701164186 0 2.22191468e-38
-0.7512969375 0.2777659595 0 2.240353806e-38
-0.7412621975 0.2845459282 0 2.258792932e-38
-0.7321049571 0.2914897501 0 2.258792932e-38
-0.7219658494 0.2978696823 0 2.258792932e-38
-0.7127017379 0.3044359088 0 2.258792932e-38
-0.703386426 0.3108190298 0 2.231134243e-38
-0.6949330568 0.3174335659 0 2.231134243e-38
-0.6855198741 0.3234602511 0 2.240353806e-38
-0.676963985 0.3297405243 0 2.268012495e-38
-0.6683583856 0.3358587325 0 2.286451621e-38
-0.6597056985 0.341814816 0 2.304890747e-38
-0.651008904 0.3476080894 0 2.31411031e-38
-0.6418382525 0.3540235162 0 2.323329873e-38
-0.6356629729 0.3609620929 0 2.304890747e-38
-0.6276876926 0.3667930663 0 2.277232058e-38
-0.6196660995 0.372482121 0 2.277232058e-38
-0.611600399 0.3780290186 0 2.277232058e-38
-0.6034929156 0.3834335506 0 2.295671184e-38
-0.595345974 0.3886955678 0 2.31411031e-38
-0.5871617198 0.393814832 0 2.332549436e-38
-0.5789425969 0.398791343 0 2.350988562e-38
-0.5715071559 0.4042023718 0 2.350988562e-38
-0.5640268922 0.4094907939 0 2.350988562e-38
-0.5565038323 0.414655894 0 2.350988562e-38
-0.5491592884 0.4194103479 0 2.341768999e-38
-0.5415586233 0.4243327975 0 2.350988562e-38
-0.5346999764 0.4297579527 0 2.350988562e-38
-0.5270187259 0.4344424605 0 2.350988562e-38
-0.520067513 0.4396484494 0 2.350988562e-38
-0.5130684376 0.4447491169 0 2.350988562e-38
-0.5060230494 0.4497440159 0 2.350988562e-38
-0.4989327788 0.4546329081 0 2.350988562e-38
-0.4917994738 0.459415108 0 2.350988562e-38
-0.4853465259 0.4647824466 0 2.350988562e-38
-0.4795499146 0.4707609415 0 2.350988562e-38
-0.4736796618 0.476667136 0 2.350988562e-38
-0.4891268313 0.5063308477 0 2.268012495e-38
-0 0 0 0
-0 0 0 0
-0 0 0 0
-0 0 0 0
-0 0 0 0
-0 0 0 0
-3.464675188 4.283118725 0 3.226847045e-39
-0 0 0 0
-0 0 0 0
-0 0 0 0
-4.48859024 6.157674789 0 3.595629565e-39
-4.413018227 6.2304492 0 3.411238305e-39
-4.360046864 6.332087994 0 3.226847045e-39
-0 0 0 0
-0 0 0 0
-4.18744278 6.631588936 0 3.503433935e-39
-4.110086918 6.704452515 0 4.701977123e-39
-0.5460594296 0.9178469181 0 6.73028098e-39
-0.5243397951 0.9085531831 0 1.484349641e-38
-0.5068711042 0.9058287144 0 1.724058278e-38
-0.4938581884 0.9107140303 0 1.788595219e-38
-0.4803397954 0.9145286679 0 1.807034345e-38
-0.4597690403 0.9339665174 0 1.807034345e-38
-0.4686204195 0.9217109084 0 1.816253908e-38
-0.4503130615 0.9441049695 0 1.788595219e-38
-0.4389989376 0.9505203962 0 1.770156093e-38
-0.4267787039 0.9549742937 0 1.788595219e-38
-0.4125324786 0.9546815753 0 1.807034345e-38
-0.3999002576 0.9578745961 0 1.85313216e-38
-0.3868787885 0.9599738121 0 1.871571286e-38
-0.3745912313 0.9637621641 0 1.890010412e-38
-0.3636721969 0.9711391926 0 1.890010412e-38
-0.3553400338 0.9859195948 0 1.862351723e-38
-0.3480063379 1.004420519 0 1.733277841e-38
-0.3424777389 1.029531002 0 1.336836633e-38
-0.5003647208 1.57545054 0 1.124786684e-38
-0.4786835909 1.569631457 0 1.567325708e-38
-0.4563613534 1.560644269 0 1.594984397e-38
-0.432962656 1.546537876 0 1.659521338e-38
-0.4099496603 1.532102227 0 1.696399589e-38
-0.3883169591 1.521219969 0 1.696399589e-38
-0.3674624562 1.511987805 0 1.687180026e-38
-0.346647352 1.501504779 0 1.594984397e-38
-0.3261227906 1.49074471 0 1.530447456e-38
-0.3060951233 1.480692267 0 1.493569204e-38
-0.2863427103 1.47037816 0 1.475130078e-38
-0.2670487165 1.460790873 0 1.475130078e-38
-0.2448879629 1.452500939 0 1.484349641e-38
-0.2247701436 1.443606257 0 1.484349641e-38
-0.20477359 1.43344748 0 1.484349641e-38
-0.1850681603 1.423016071 0 1.51200833e-38
-0.1660068184 1.415297389 0 1.548886582e-38
-0.1475850493 1.411304235 0 1.548886582e-38
-0.1296557784 1.411055803 0 1.641082212e-38
-0.1123880893 1.418554902 0 1.567325708e-38
-0.09621465206 1.4447999 0 1.438251826e-38
-0.07993832231 1.480844021 0 1.346056196e-38
-0.06289488822 1.519699097 0 1.272299692e-38
-0.04488750547 1.558353662 0 1.216982314e-38
-0.02345408686 1.599828124 0 1.161664936e-38
-0.002874235157 1.647997499 0 1.106347558e-38
0.01894673333 1.695894122 0 1.060249743e-38
0.04202759266 1.744493842 0 9.772736766e-39
0.06647771597 1.795770049 0 7.00686787e-39
0 0 0 0
0 0 0 0
0.2378499657 3.133987188 0 4.609781493e-39
0.279192239 3.140614748 0 8.389802318e-39
0.3216563463 3.155648947 0 9.311758616e-39
0.3687821031 3.206864834 0 9.864932395e-39
0.4624312818 3.257339001 0 5.070759642e-39
0.414108634 3.232583523 0 8.574193577e-39
0.8663036227 5.602417469 0 2.489282006e-39
0.9749429822 5.825987816 0 8.297606688e-40
1.045464754 5.804602146 0 1.659521338e-39
1.116174936 5.785310745 0 1.475130078e-39
0 0 0 0
0 0 0 0
0 0 0 0
0 0 0 0
0 0 0 0
1.516130686 5.587973595 0 1.382934448e-39
1.583614111 5.562986851 0 2.028303857e-39
0 0 0 0
0 0 0 0
0 0 0 0
0 0 0 0
0 0 0 0
0 0 0 0
0 0 0 0
0.8743401766 2.161886692 0 7.836628538e-39
0.9006020427 2.14348793 0 1.078688869e-38
0.929325819 2.131191969 0 9.496149876e-39
2.357834339 5.214724064 0 1.023371491e-38
2.429819822 5.187095642 0 9.403954246e-39
0 0 0 0
0 0 0 0
2.615969896 5.057502747 0 4.425390233e-39
2.702844143 5.068349838 0 3.226847045e-39
2.766319513 5.033985615 0 6.63808535e-39
2.362396479 4.173810959 0 2.765868896e-39
2.418182135 4.149843693 0 3.780020824e-39
2.47373867 4.125132084 0 4.056607714e-39
2.529580116 4.100530148 0 4.148803344e-39
2.585193872 4.075174809 0 4.240998974e-39
2.640022039 4.048231125 0 4.148803344e-39
2.748163223 3.992619276 0 3.687825195e-39
2.695137739 4.021382332 0 3.872216454e-39
2.800889015 3.963159323 0 3.226847045e-39
3.43641901 4.736763477 0 1.936108227e-39
3.503808022 4.705849648 0 2.120499487e-39
3.573385954 4.677169323 0 2.489282006e-39
3.641555071 4.645910263 0 2.673673266e-39
3.709499836 4.613677025 0 2.765868896e-39
3.781653404 4.585873127 0 2.950260156e-39
3.851748705 4.554696083 0 3.042455785e-39
3.922307014 4.523237228 0 3.042455785e-39
3.990679502 4.488486767 0 3.226847045e-39
4.060811996 4.454950809 0 3.134651415e-39
4.141169548 4.416064739 0 2.858064526e-39
3.654350996 3.802735329 0 1.198543188e-39
3.769297361 3.827634335 0 1.936108227e-39
3.830695629 3.796079636 0 3.411238305e-39
3.894756794 3.766377211 0 3.042455785e-39
3.977572203 3.75351572 0 1.198543188e-39
4.045201778 3.724962234 0 3.503433935e-39
4.114209652 3.696652651 0 4.333194604e-39
4.186887264 3.670503616 0 3.964412084e-39
0 0 0 0
4.579379082 3.820809603 0 2.212695117e-39
4.737955093 3.752561331 0 1.475130078e-39
4.645882607 3.780988216 0 2.581477636e-39
0 0 0 0
0 0 0 0
0 0 0 0
5.449417114 3.892771006 0 2.397086376e-39
5.542381763 3.856359243 0 2.581477636e-39
0 0 0 0
0 0 0 0
0 0 0 0
3.110132694 1.942669034 0 5.347346532e-39
3.168151855 1.92475009 0 6.084911571e-39
3.222755432 1.903653622 0 6.45369409e-39
3.280596495 1.875773907 0 6.269302831e-39
3.334184885 1.851973772 0 5.439542162e-39
0 0 0 0
3.466765404 1.814691663 0 3.042455785e-39
3.528218031 1.791515231 0 6.63808535e-39
3.583342075 1.76399982 0 5.255150902e-39
0 0 0 0
0 0 0 0
0 0 0 0
4.247412682 1.835377812 0 1.659521338e-39
4.300282478 1.7953192 0 5.992715941e-39
4.377849102 1.764322758 0 6.91467224e-39
4.467393875 1.733682632 0 6.91467224e-39
4.556271553 1.702611208 0 6.269302831e-39
0.5486369133 0.1971967071 0 1.032591054e-38
0.5416192412 0.1870230138 0 1.972986479e-38
0.5363325477 0.1776863039 0 2.22191468e-38
0.5328041911 0.1691174954 0 2.332549436e-38
0.5301029682 0.1609562337 0 2.350988562e-38
0.5301627517 0.1537252367 0 2.350988562e-38
0.5281971693 0.1459854543 0 2.350988562e-38
0.5280556679 0.1388280392 0 2.350988562e-38
0.529758513 0.1321815103 0 2.350988562e-38
0.5323508978 0.1257439852 0 2.350988562e-38
0.5357992649 0.1196670011 0 2.350988562e-38
0.5439909101 0.1149342135 0 2.350988562e-38
0.5511630177 0.1098329574 0 2.350988562e-38
0.5612377524 0.1051339433 0 2.350988562e-38
0.5752160549 0.1009083316 0 2.240353806e-38
0 0 0 0
2.38567996 0.3620778918 0 4.148803344e-39
2.381769657 0.3334639966 0 1.097127995e-38
2.375534058 0.3047339916 0 1.299958381e-38
2.36696744 0.2759604156 0 1.336836633e-38
2.355071068 0.2471117675 0 1.355275759e-38
2.343822002 0.2186668962 0 1.382934448e-38
2.333719254 0.1844867766 0 1.382934448e-38
2.322962284 0.1530687809 0 1.382934448e-38
2.31278348 0.1220168471 0 1.392154011e-38
2.303191423 0.09129732847 0 1.392154011e-38
2.293192863 0.06084990501 0 1.401373574e-38
2.283793688 0.03069336899 0 1.410593137e-38
2.275999784 0.0007940368378 0 1.401373574e-38
