# .PCD v0.7 - Point Cloud Data file format
VERSION 0.7
FIELDS x y z rgb
SIZE 4 4 4 4
TYPE F F F F
COUNT 1 1 1 1
WIDTH 499
HEIGHT 1
VIEWPOINT 0 0 0 1 0 0 0
POINTS 499
DATA ascii
2.273887396 -0.02263456956 0 1.4198127e-38
2.267459869 -0.04948791116 0 1.401373574e-38
2.261715651 -0.07622775435 0 1.346056196e-38
2.290620804 -0.1044300869 0 9.864932395e-39
0 -0 0 0
0 -0 0 0
0 -0 0 0
0 -0 0 0
0 -0 0 0
0 -0 0 0
0 -0 0 0
0 -0 0 0
0 -0 0 0
0 -0 0 0
6.338599682 -1.143955231 0 6.177107201e-39
6.313138008 -1.220322847 0 6.54588972e-39
6.287737846 -1.296440601 0 6.54588972e-39
6.262398243 -1.372327447 0 6.54588972e-39
6.23419714 -1.447336435 0 6.269302831e-39
6.197331429 -1.519949079 0 4.333194604e-39
0 -0 0 0
10.20407009 -2.772442341 0 2.212695117e-39
0 -0 0 0
0 -0 0 0
0 -0 0 0
0 -0 0 0
0 -0 0 0
0 -0 0 0
0 -0 0 0
0 -0 0 0
0 -0 0 0
0 -0 0 0
0 -0 0 0
0 -0 0 0
0 -0 0 0
0 -0 0 0
0 -0 0 0
0 -0 0 0
0 -0 0 0
0 -0 0 0
0 -0 0 0
0 -0 0 0
0 -0 0 0
0 -0 0 0
0 -0 0 0
0 -0 0 0
0 -0 0 0
0 -0 0 0
10.73258305 -7.467750549 0 2.397086376e-39
7.314413548 -5.225081921 0 3.042455785e-39
7.253139019 -5.318272591 0 5.070759642e-39
7.188277245 -5.40894556 0 4.517585863e-39
4.810194016 -3.713753462 0 2.489282006e-39
4.118649006 -3.262092352 0 2.028303857e-39
3.654907703 -2.96923089 0 2.304890747e-39
3.623211145 -3.018774271 0 7.836628538e-39
3.591607332 -3.068637133 0 9.127367356e-39
3.561581373 -3.120154381 0 9.311758616e-39
3.494283199 -3.227852821 0 9.311758616e-39
3.530828714 -3.171397686 0 9.403954246e-39
3.461739302 -3.281655073 0 9.219562986e-39
3.42767024 -3.334456444 0 9.035171727e-39
3.392102242 -3.386220932 0 7.467846019e-39
0 -0 0 0
0 -0 0 0
0 -0 0 0
0 -0 0 0
0 -0 0 0
0 -0 0 0
1.242984653 -1.488190174 0 1.069469306e-38
1.190214276 -1.463005781 0 1.198543188e-38
1.138425708 -1.437895298 0 1.189323625e-38
1.079341054 -1.399039626 0 1.069469306e-38
1.030432463 -1.370924592 0 1.032591054e-38
0.984177351 -1.344228864 0 1.115567121e-38
0.9486304522 -1.330434442 0 1.364495322e-38
0.9324073195 -1.343071699 0 1.724058278e-38
0.9204955697 -1.362139463 0 1.779375656e-38
0.9082516432 -1.381118298 0 1.76093653e-38
0.8962135911 -1.400846243 0 1.76093653e-38
0.8838237524 -1.420487404 0 1.724058278e-38
0.8715964556 -1.440894008 0 1.696399589e-38
0.8600098491 -1.462939501 0 1.677960464e-38
0.8457187414 -1.483921766 0 1.677960464e-38
0.8342066407 -1.501873255 0 1.668740901e-38
0.8224028945 -1.519749165 0 1.668740901e-38
0.8098385334 -1.536662102 0 1.668740901e-38
0.7965455651 -1.552591443 0 1.659521338e-38
0.7946122289 -1.591675997 0 1.659521338e-38
0.782741785 -1.612010956 0 1.668740901e-38
0.7705195546 -1.63227582 0 1.650301775e-38
0.7575288415 -1.651556611 0 1.502788767e-38
0.7437989116 -1.669834375 0 1.115567121e-38
0 -0 0 0
2.007395506 -4.787153721 0 4.425390233e-39
1.915897965 -4.758806229 0 4.609781493e-39
1.851966858 -4.772251129 0 2.397086376e-39
0 -0 0 0
0.316593498 -0.8808317184 0 7.375650389e-39
0.3019098938 -0.8743428588 0 1.631862649e-38
0.2871254385 -0.8666763902 0 1.788595219e-38
0.2725811303 -0.8587785363 0 1.816253908e-38
0.258282423 -0.8506533504 0 1.85313216e-38
0.2445088178 -0.8432671428 0 1.890010412e-38
0.2309632748 -0.835670352 0 1.917669101e-38
0.217392683 -0.8269011378 0 1.94532779e-38
0.2043215334 -0.8188948035 0 1.963766916e-38
0.1905498207 -0.8098856807 0 1.963766916e-38
0.1781898141 -0.8024539948 0 1.963766916e-38
0.166251868 -0.7958198786 0 1.954547353e-38
0.1543165147 -0.7880325913 0 1.954547353e-38
0.1427836716 -0.7810562253 0 1.94532779e-38
0.1316182017 -0.7749016881 0 1.94532779e-38
0.1204743907 -0.7676033974 0 1.963766916e-38
0.1095360965 -0.7601485848 0 1.982206042e-38
0.09906364232 -0.7545245886 0 1.991425605e-38
0.08875106275 -0.7487584949 0 2.009864731e-38
0.07859844714 -0.7428534627 0 2.028303857e-38
0.0686083734 -0.7368126512 0 2.028303857e-38
0.05788999423 -0.7307104468 0 2.028303857e-38
0.04785911366 -0.7244207859 0 2.028303857e-38
0.03800253198 -0.717994988 0 2.03752342e-38
0.02832278423 -0.7114364505 0 2.03752342e-38
0.01884764433 -0.7057483196 0 2.055962546e-38
0.009526301175 -0.6999351382 0 2.074401672e-38
0.0003607164836 -0.6939999461 0 2.083621235e-38
-0.008660756983 -0.6889455318 0 2.092840798e-38
-0.01754985936 -0.6837748289 0 2.102060361e-38
-0.02630477585 -0.6784902811 0 2.102060361e-38
-0.03492471203 -0.6730945706 0 2.092840798e-38
-0.04360259324 -0.6705839038 0 2.092840798e-38
-0.0522938557 -0.6629407406 0 2.092840798e-38
-0.06050839648 -0.6572204828 0 2.102060361e-38
-0.06889665872 -0.6543831229 0 2.111279924e-38
-0.07698529959 -0.6494530439 0 2.138938613e-38
-0.08495707065 -0.6444239616 0 2.166597302e-38
-0.09281048179 -0.6392982602 0 2.185036428e-38
-0.1007006541 -0.6350656748 0 2.194255991e-38
-0.1083267778 -0.629750967 0 2.194255991e-38
-0.1158311442 -0.624346137 0 2.194255991e-38
-0.1234076694 -0.6198343039 0 2.185036428e-38
-0.1306782365 -0.6142534018 0 2.166597302e-38
-0.138044849 -0.6095643044 0 2.166597302e-38
-0.1450995207 -0.6048389077 0 2.157377739e-38
-0.151533246 -0.6001655459 0 2.166597302e-38
-0.158132866 -0.5963916183 0 2.175816865e-38
-0.1643963009 -0.5915825367 0 2.194255991e-38
-0.1708471328 -0.587669313 0 2.22191468e-38
-0.1769380718 -0.5827297568 0 2.240353806e-38
-0.183237806 -0.578682065 0 2.258792932e-38
-0.1894662231 -0.574567318 0 2.258792932e-38
-0.1952984184 -0.5694405437 0 2.258792932e-38
-0.2013716847 -0.5651986003 0 2.240353806e-38
-0.207371816 -0.5608929396 0 2.231134243e-38
-0.213297978 -0.5565249324 0 2.231134243e-38
-0.2200012058 -0.5528331399 0 2.231134243e-38
-0.226072371 -0.5482155681 0 2.249573369e-38
-0.232063055 -0.5435326695 0 2.277232058e-38
-0.23837623 -0.5397006273 0 2.295671184e-38
-0.2446304262 -0.535795629 0 2.31411031e-38
-0.2508242726 -0.5318187475 0 2.31411031e-38
-0.2565196753 -0.5268716216 0 2.31411031e-38
-0.2625797093 -0.5227589011 0 2.304890747e-38
-0.2681176364 -0.5176890492 0 2.295671184e-38
-0.2740410268 -0.5134447813 0 2.286451621e-38
-0.2799006701 -0.5091331601 0 2.295671184e-38
-0.2861879766 -0.5056257248 0 2.304890747e-38
-0.2928027213 -0.5006661415 0 2.323329873e-38
-0.2995043695 -0.4966861308 0 2.350988562e-38
-0.305624336 -0.4917669594 0 2.350988562e-38
-0.3122054935 -0.4876153469 0 2.350988562e-38
-0.3187300265 -0.4833758175 0 2.350988562e-38
-0.32519719 -0.4790488183 0 2.350988562e-38
-0.3310329616 -0.4738155603 0 2.350988562e-38
-0.3373703361 -0.4693242311 0 2.350988562e-38
-0.343647033 -0.4647480249 0 2.350988562e-38
-0.3498614132 -0.4600880444 0 2.332549436e-38
-0.3560128212 -0.4553447962 0 2.31411031e-38
-0.3688364625 -0.4463190138 0 2.323329873e-38
-0.3627264202 -0.4512987137 0 2.304890747e-38
-0.3748011589 -0.441321969 0 2.332549436e-38
-0.3813554347 -0.4369989038 0 2.350988562e-38
-0.3878611624 -0.4325791001 0 2.350988562e-38
-0.3956720531 -0.4295341671 0 2.277232058e-38
-2.176817656 -2.300294399 0 1.014151928e-38
-2.214503527 -2.278004408 0 8.574193577e-39
-2.251276731 -2.254406929 0 8.389802318e-39
-2.289246559 -2.231626987 0 8.297606688e-39
-2.328459024 -2.209610701 0 8.297606688e-39
-2.366023302 -2.185583353 0 8.297606688e-39
-2.403360605 -2.160944939 0 8.205411058e-39
-2.443464756 -2.136819124 0 8.113215428e-39
-2.480408192 -2.115461111 0 8.113215428e-39
-2.517194748 -2.093515396 0 8.113215428e-39
-2.556924582 -2.073499918 0 8.113215428e-39
-2.593404293 -2.050339222 0 8.113215428e-39
-2.631285191 -2.027812243 0 8.205411058e-39
-2.668204546 -2.004059315 0 8.297606688e-39
-2.699288607 -1.975567222 0 8.297606688e-39
-2.727632523 -1.944870234 0 8.389802318e-39
-2.750701666 -1.910351038 0 8.389802318e-39
-2.763394594 -1.868835807 0 8.389802318e-39
-2.768799782 -1.822902679 0 8.481997947e-39
-2.773668528 -1.77314043 0 8.297606688e-39
-2.783480883 -1.733226776 0 8.113215428e-39
-2.792738914 -1.693329811 0 7.652237279e-39
-2.792830944 -1.648376346 0 6.63808535e-39
-0 -0 0 0
-0 -0 0 0
-0 -0 0 0
-1.585618019 -0.8370568156 0 5.716129052e-39
-1.593661189 -0.8172668815 0 9.680541136e-39
-1.600562572 -0.7969589829 0 1.198543188e-38
-1.609007835 -0.7774719596 0 1.069469306e-38
-1.660441279 -0.7525049448 0 1.097127995e-38
-1.619932413 -0.759170711 0 9.864932395e-39
-0 -0 0 0
-0 -0 0 0
-0 -0 0 0
-0 -0 0 0
-0 -0 0 0
-0 -0 0 0
-1.807105422 -0.6367308497 0 6.73028098e-39
-1.819592595 -0.6158927083 0 1.161664936e-38
-1.831840396 -0.5948417783 0 1.272299692e-38
-1.840980411 -0.5726909637 0 1.272299692e-38
-1.872847199 -0.5285444856 0 1.244641003e-38
-1.856561899 -0.5524011254 0 1.263080129e-38
-1.890663624 -0.509072423 0 1.198543188e-38
-1.910218596 -0.4897437096 0 1.134006247e-38
-1.93249476 -0.4707277715 0 1.060249743e-38
-1.975049376 -0.4559701085 0 9.496149876e-39
-1.981374383 -0.4323658347 0 4.701977123e-39
-1.7827003 -0.3665790558 0 2.212695117e-39
-1.753602147 -0.3386377096 0 6.91467224e-39
-1.740823865 -0.3144729733 0 1.087908432e-38
-1.745470762 -0.2936522663 0 1.253860566e-38
-1.764689565 -0.2750758827 0 1.207762751e-38
-1.827484488 -0.2386411875 0 9.035171727e-39
-1.797569752 -0.2580679655 0 1.032591054e-38
-1.881942987 -0.2220709175 0 9.219562986e-39
-1.901456475 -0.2005170733 0 9.588345506e-39
-1.920722365 -0.1785125732 0 9.588345506e-39
-1.943719268 -0.156382829 0 9.127367356e-39
-1.983420372 -0.1348626614 0 8.021019798e-39
-0 -0 0 0
-0 -0 0 0
-0 -0 0 0
-5.807025433 -0.1064155996 0 2.858064526e-39
-0 -0 0 0
-5.077894211 0.03280538321 0 4.148803344e-39
-0 0 0 0
-0 0 0 0
-5.031449318 0.2364087552 0 4.701977123e-39
-5.017836094 0.3034003675 0 6.91467224e-39
-2.946949959 0.2179696113 0 5.992715941e-39
-2.93877387 0.2571168244 0 7.836628538e-39
-2.923113823 0.2953799963 0 7.191259129e-39
-2.89901042 0.3323577046 0 6.73028098e-39
-0.96806705 0.124186419 0 3.411238305e-39
-0.948489368 0.1346545517 0 1.290738818e-38
-0.9357252121 0.1456963569 0 1.85313216e-38
-0.9218514562 0.1562528014 0 1.899229975e-38
-0.9078360796 0.1666212678 0 1.917669101e-38
-0.8949078321 0.1757384837 0 1.954547353e-38
-0.8697780967 0.1933052689 0 2.009864731e-38
-0.8828735352 0.184765622 0 1.982206042e-38
-0.8585553765 0.2020067871 0 2.046742983e-38
-0.8472516537 0.2104605734 0 2.074401672e-38
-0.8349042535 0.2184120566 0 2.102060361e-38
-0.8234555721 0.2263557166 0 2.120499487e-38
-0.8119396567 0.23404935 0 2.120499487e-38
-0.8003607392 0.2414927185 0 2.12971905e-38
-0.7906307578 0.2492870688 0 2.138938613e-38
-0.7808316946 0.2568773031 0 2.148158176e-38
-0.7705506682 0.2654743195 0 2.166597302e-38
-0.7606124878 0.2726402581 0 2.194255991e-38
-0.7506159544 0.2796009481 0 2.231134243e-38
-0.741497457 0.2867168486 0 2.249573369e-38
-0.7313905358 0.2932778299 0 2.258792932e-38
-0.7212358117 0.2996329367 0 2.268012495e-38
-0.7119556665 0.3061765134 0 2.277232058e-38
-0.7026248574 0.3125368655 0 2.268012495e-38
-0.6932467222 0.3187130094 0 2.268012495e-38
-0.6847274303 0.3251343668 0 2.258792932e-38
-0.6761562228 0.3313937187 0 2.258792932e-38
-0.6585085988 0.3441154063 0 2.258792932e-38
-0.6675357223 0.3374909163 0 2.258792932e-38
-0.6502184868 0.3490843475 0 2.277232058e-38
-0.6419001222 0.3539113402 0 2.295671184e-38
-0.6361663938 0.3600740731 0 2.323329873e-38
-0.6286458969 0.3651483357 0 2.350988562e-38
-0.6210918427 0.3700998724 0 2.350988562e-38
-0.6135060191 0.3749284744 0 2.350988562e-38
-0.6058901548 0.3796341121 0 2.332549436e-38
-0.5990877748 0.3847568631 0 2.31411031e-38
-0.5914114118 0.3892256021 0 2.304890747e-38
-0.5837103128 0.3935711384 0 2.304890747e-38
-0.5686759353 0.4047366083 0 2.341768999e-38
-0.5768093467 0.3983615935 0 2.323329873e-38
-0.5611944199 0.4099827111 0 2.350988562e-38
-0.5536708236 0.4151054919 0 2.350988562e-38
-0.5461066365 0.4201054275 0 2.350988562e-38
-0.5392890573 0.4256010652 0 2.350988562e-38
-0.5324192047 0.4309927523 0 2.350988562e-38
-0.5254990458 0.4362794757 0 2.350988562e-38
-0.5185295939 0.4414613247 0 2.350988562e-38
-0.5115128756 0.4465373456 0 2.350988562e-38
-0.5037048459 0.4508408308 0 2.350988562e-38
-0.4966059625 0.4556956887 0 2.350988562e-38
-0.4836249053 0.4680127203 0 2.350988562e-38
-0.481964618 0.4782793522 0 2.350988562e-38
-0.4901926816 0.4611291289 0 2.350988562e-38
-0.4899345338 0.498563081 0 2.31411031e-38
-0 0 0 0
-0 0 0 0
-0 0 0 0
-0 0 0 0
-0.7778303623 0.897955358 0 1.696399589e-38
-0.7721786499 0.9380645752 0 1.641082212e-38
-0.7742276192 0.916827023 0 1.76093653e-38
-0.7734714746 0.9640735388 0 1.170884499e-38
-1.506577373 1.92695117 0 3.503433935e-39
-1.473014712 1.936418653 0 5.531737792e-39
-1.441164255 1.944079757 0 4.148803344e-39
-4.464020729 6.180444717 0 3.780020824e-39
-4.412412167 6.271271706 0 3.319042675e-39
-1.734762669 2.531671524 0 2.397086376e-39
-1.703813195 2.553805113 0 4.886368383e-39
-1.680751085 2.588140488 0 4.609781493e-39
-0.5940340161 0.9400359988 0 4.333194604e-39
-0.5739609599 0.9336941838 0 1.336836633e-38
-0.5561899543 0.9304347038 0 1.659521338e-38
-0.5411006212 0.9312030673 0 1.724058278e-38
-0.513333559 0.9399625659 0 1.779375656e-38
-0.5270619988 0.9334825873 0 1.770156093e-38
-0.5012883544 0.9475727081 0 1.788595219e-38
-0.4923222363 0.9612590075 0 1.76093653e-38
-0.4853011072 0.9793528318 0 1.631862649e-38
-0.4826382399 1.007347703 0 9.496149876e-39
-0.7863976359 1.698812127 0 1.429032263e-38
-0.7527788877 1.684443235 0 1.475130078e-38
-0.7196819782 1.66948545 0 1.530447456e-38
-0.6882666945 1.656721234 0 1.567325708e-38
-0.6573184729 1.643420935 0 1.576545271e-38
-0.6275635362 1.631461978 0 1.558106145e-38
-0.59928298 1.621820211 0 1.548886582e-38
-0.5713165998 1.610676408 0 1.539667019e-38
-0.5454201698 1.598511219 0 1.530447456e-38
-0.5199005604 1.5859586 0 1.558106145e-38
-0.4947630465 1.573025942 0 1.576545271e-38
-0.4464882314 1.548932552 0 1.668740901e-38
-0.4705909193 1.561635494 0 1.613423523e-38
-0.4230257273 1.536842585 0 1.705619152e-38
-0.3999200761 1.524414659 0 1.733277841e-38
-0.3781441152 1.515536547 0 1.751716967e-38
-0.3564104438 1.505383968 0 1.613423523e-38
-0.3347574174 1.493953943 0 1.493569204e-38
-0.3138458431 1.484179735 0 1.484349641e-38
-0.2913541198 1.475509644 0 1.465910515e-38
-0.2706880569 1.466222763 0 1.475130078e-38
-0.2502963841 1.456652284 0 1.475130078e-38
-0.2300274968 1.445815802 0 1.484349641e-38
-0.2103559077 1.436681747 0 1.484349641e-38
-0.1909460872 1.427284122 0 1.484349641e-38
-0.1718008518 1.417627692 0 1.502788767e-38
-0.153357327 1.411694527 0 1.539667019e-38
-0.1353743672 1.408509374 0 1.558106145e-38
-0.1179932803 1.411075354 0 1.613423523e-38
-0.1015636772 1.427391291 0 1.475130078e-38
-0.08580262214 1.461483479 0 1.364495322e-38
-0.06778089702 1.498467803 0 1.299958381e-38
-0.05015294999 1.53618145 0 1.253860566e-38
-0.03166814521 1.577682137 0 1.198543188e-38
-0.01217796002 1.622954369 0 1.134006247e-38
0.008439809084 1.666978717 0 1.087908432e-38
0.03025038168 1.71573329 0 1.032591054e-38
0 0 0 0
0.2502104044 5.847649574 0 4.333194604e-39
0 0 0 0
0 0 0 0
0.2502055764 3.1029284 0 6.73028098e-39
0.2920569479 3.130405426 0 1.14322581e-38
0.3335523009 3.126256466 0 1.023371491e-38
0.3733309209 3.130820036 0 1.023371491e-38
0.4151050448 3.148756027 0 9.957128025e-39
0.457521975 3.167123795 0 1.023371491e-38
0.4987497926 3.174053907 0 8.574193577e-39
0 0 0 0
1.057130814 5.788257599 0 1.843912597e-39
0 0 0 0
0 0 0 0
0 0 0 0
0 0 0 0
0 0 0 0
0 0 0 0
1.543765068 5.574176311 0 1.567325708e-39
1.614339709 5.538526058 0 2.397086376e-39
0 0 0 0
0 0 0 0
0 0 0 0
0 0 0 0
0 0 0 0
0 0 0 0
0 0 0 0
0 0 0 0
0 0 0 0
2.324614048 5.238370895 0 7.652237279e-39
2.38942194 5.20692873 0 1.124786684e-38
2.453378677 5.173780918 0 5.439542162e-39
0 0 0 0
0 0 0 0
2.650796175 5.085617542 0 2.673673266e-39
2.717805862 5.05807209 0 4.333194604e-39
2.785995007 5.032269478 0 5.716129052e-39
2.375991583 4.167238235 0 3.411238305e-39
2.432725668 4.144814014 0 4.056607714e-39
2.48927021 4.121620655 0 4.148803344e-39
2.599767923 4.068266392 0 4.240998974e-39
2.544560194 4.095961094 0 4.240998974e-39
2.65523386 4.040663242 0 4.056607714e-39
2.711534977 4.013964653 0 3.872216454e-39
2.76701808 3.985663652 0 3.503433935e-39
2.82221961 3.956599236 0 1.936108227e-39
3.466973066 4.731812954 0 2.397086376e-39
3.534794807 4.697645187 0 2.489282006e-39
3.605973005 4.667264938 0 2.765868896e-39
3.675087929 4.633478642 0 2.765868896e-39
3.746450663 4.601789474 0 2.950260156e-39
3.818879843 4.570567608 0 2.950260156e-39
3.892424583 4.539761543 0 2.950260156e-39
3.964353085 4.507761478 0 3.042455785e-39
4.032519817 4.473847389 0 2.950260156e-39
4.100445271 4.438941479 0 2.858064526e-39
4.169494629 4.404490471 0 2.304890747e-39
3.633931637 3.745997906 0 7.375650389e-40
3.797162056 3.819758892 0 2.950260156e-39
3.861385822 3.790596247 0 3.411238305e-39
0 0 0 0
4.006173611 3.744974375 0 2.581477636e-39
4.072312355 3.714622259 0 4.148803344e-39
4.146522999 3.690521479 0 4.148803344e-39
4.545833588 3.837446213 0 1.382934448e-39
4.212442398 3.657945871 0 2.858064526e-39
0 0 0 0
4.613110065 3.797346592 0 2.950260156e-39
0 0 0 0
0 0 0 0
5.405536652 3.914389849 0 2.304890747e-39
0 0 0 0
0 0 0 0
5.496935368 3.877658606 0 2.858064526e-39
0 0 0 0
0 0 0 0
3.096677065 1.962178826 0 4.240998974e-39
3.145252228 1.933455944 0 5.900520311e-39
3.199010611 1.912291765 0 6.361498461e-39
3.258776188 1.893604636 0 6.45369409e-39
3.312467813 1.870286584 0 6.084911571e-39
0 0 0 0
0 0 0 0
0 0 0 0
0 0 0 0
4.223424911 2.050782442 0 3.042455785e-39
4.201458931 1.976156473 0 5.900520311e-39
4.201050758 1.912754774 0 4.425390233e-39
0 0 0 0
4.27427578 1.808160424 0 4.701977123e-39
4.346343517 1.775478482 0 6.91467224e-39
4.434066296 1.747515678 0 7.099063499e-39
4.526426792 1.719425559 0 7.00686787e-39
4.606552124 1.68484509 0 6.269302831e-39
4.699712753 1.653185487 0 2.765868896e-39
0 0 0 0
7.743355274 2.509989977 0 2.581477636e-39
0 0 0 0
0 0 0 0
8.001581192 2.268741131 0 2.858064526e-39
0 0 0 0
0 0 0 0
0 0 0 0
0 0 0 0
0.6062935591 0.1296460479 0 8.389802318e-39
0.5952123404 0.1190430745 0 1.899229975e-38
0.5878911018 0.1094900146 0 2.268012495e-38
0.5833790302 0.1006622165 0 2.341768999e-38
0.5797249675 0.0921304971 0 2.350988562e-38
0.5789166689 0.08414539695 0 2.350988562e-38
0.5770076513 0.07606697828 0 2.350988562e-38
0.5759797096 0.06817162782 0 2.350988562e-38
0.5768332481 0.0605259873 0 2.350988562e-38
0.5785440803 0.05336423591 0 2.350988562e-38
0.5811545849 0.046350196 0 2.350988562e-38
0.5886685252 0.03961504251 0 2.350988562e-38
0.5951052308 0.03264624998 0 2.350988562e-38
0.6044559479 0.02565116808 0 2.350988562e-38
0.6177215576 0.0185493622 0 2.175816865e-38
0.6349013448 0.01119284984 0 1.299958381e-38
2.287968636 0.011979389 0 1.364495322e-38
