# .PCD v0.7 - Point Cloud Data file format
VERSION 0.7
FIELDS x y z rgb
SIZE 4 4 4 4
TYPE F F F F
COUNT 1 1 1 1
WIDTH 500
HEIGHT 1
VIEWPOINT 0 0 0 1 0 0 0
POINTS 500
DATA ascii
6.104937077 -0.02773571014 0 2.304890747e-39
0 -0 0 0
0 -0 0 0
0 -0 0 0
0 -0 0 0
0 -0 0 0
0 -0 0 0
3.595368385 -0.3246929348 0 3.872216454e-39
3.697574139 -0.3795191944 0 4.701977123e-39
3.714986324 -0.4318296611 0 8.021019798e-39
3.746046782 -0.4825570285 0 8.481997947e-39
3.774434805 -0.5338414311 0 8.850780467e-39
3.847833395 -0.6418557763 0 7.191259129e-39
3.809039831 -0.5869688392 0 8.481997947e-39
0 -0 0 0
3.917160749 -0.753639698 0 5.716129052e-39
3.948663712 -0.8105659485 0 7.375650389e-39
3.973488808 -0.8671079278 0 5.162955272e-39
0 -0 0 0
0 -0 0 0
4.535775661 -1.239171505 0 2.581477636e-39
0 -0 0 0
4.552528858 -1.305441022 0 6.54588972e-39
4.601847649 -1.382397294 0 7.099063499e-39
4.651848793 -1.461395502 0 7.099063499e-39
4.705332279 -1.543421626 0 6.82247661e-39
4.732875824 -1.61860764 0 4.609781493e-39
0 -0 0 0
0 -0 0 0
0 -0 0 0
0 -0 0 0
0 -0 0 0
0 -0 0 0
0.6159196496 -0.2737134397 0 5.992715941e-39
0.5951669812 -0.2734980583 0 1.60420396e-38
0.584456563 -0.2775239646 0 2.166597302e-38
0.5764337182 -0.2826449275 0 2.286451621e-38
0.5683751106 -0.2876087129 0 2.323329873e-38
0.5629431009 -0.2938026786 0 2.350988562e-38
0.5574454665 -0.2999059856 0 2.350988562e-38
0.5518834591 -0.3059176505 0 2.350988562e-38
0.5479958057 -0.3128283322 0 2.350988562e-38
0.54574579 -0.3207031786 0 2.332549436e-38
0.5450957417 -0.3296053112 0 2.31411031e-38
0.5477039814 -0.3406542242 0 2.277232058e-38
0.5506545305 -0.3528392613 0 2.231134243e-38
0.5588968396 -0.3676892519 0 2.046742983e-38
0 -0 0 0
1.950469613 -1.351590395 0 1.382934448e-38
1.924271226 -1.368028283 0 1.456690952e-38
1.897961617 -1.384031296 0 1.484349641e-38
1.872347474 -1.400199771 0 1.502788767e-38
1.848207951 -1.417168975 0 1.521227893e-38
1.824718118 -1.434379816 0 1.51200833e-38
1.803419232 -1.453112125 0 1.502788767e-38
1.785018682 -1.474087477 0 1.382934448e-38
0 -0 0 0
1.803777575 -1.526484489 0 9.772736766e-39
0 -0 0 0
0 -0 0 0
0 -0 0 0
0 -0 0 0
0 -0 0 0
0 -0 0 0
0 -0 0 0
0 -0 0 0
0 -0 0 0
4.276122093 -4.855478764 0 3.964412084e-39
4.132110119 -4.957800388 0 7.099063499e-39
4.209185123 -4.910985947 0 6.73028098e-39
4.062791348 -4.999309063 0 7.191259129e-39
3.995563745 -5.042997837 0 7.191259129e-39
3.927873373 -5.085793018 0 6.82247661e-39
4.011893272 -5.329816818 0 2.765868896e-39
0 -0 0 0
6.163522243 -8.625090599 0 2.581477636e-39
0 -0 0 0
0 -0 0 0
0 -0 0 0
0 -0 0 0
0 -0 0 0
0 -0 0 0
0 -0 0 0
0 -0 0 0
0 -0 0 0
0 -0 0 0
0 -0 0 0
0 -0 0 0
0 -0 0 0
0 -0 0 0
0 -0 0 0
0 -0 0 0
0 -0 0 0
0 -0 0 0
0 -0 0 0
0 -0 0 0
0 -0 0 0
0 -0 0 0
0 -0 0 0
0 -0 0 0
0 -0 0 0
0 -0 0 0
0 -0 0 0
2.461205959 -8.651733398 0 3.411238305e-39
1.526185036 -5.944200993 0 5.900520311e-39
2.356689692 -8.692182541 0 5.255150902e-39
1.45070374 -5.969246864 0 6.73028098e-39
1.048394561 -4.57029438 0 2.489282006e-39
0.9945573211 -4.607890129 0 6.91467224e-39
0.9375428557 -4.633092403 0 8.481997947e-39
0.8792980313 -4.653657913 0 8.758584837e-39
0.8208510876 -4.674475193 0 8.758584837e-39
0.762175262 -4.69554472 0 8.850780467e-39
0.7032371163 -4.71686554 0 8.758584837e-39
0.6440097094 -4.738436222 0 8.574193577e-39
0 -0 0 0
0 -0 0 0
0 -0 0 0
0 -0 0 0
0 -0 0 0
0 -0 0 0
0 -0 0 0
0 -0 0 0
0 -0 0 0
0 -0 0 0
-0 -0 0 0
-0.02548084594 -1.639802098 0 1.106347558e-38
-0.04535127431 -1.623366594 0 1.410593137e-38
-0.06550364196 -1.62367928 0 1.613423523e-38
-0.08671558648 -1.632698774 0 1.622643086e-38
-0.1078158543 -1.640460849 0 1.622643086e-38
-0.1291247904 -1.64794898 0 1.622643086e-38
-0.1507287025 -1.656155229 0 1.60420396e-38
-0.1725590676 -1.664076924 0 1.594984397e-38
-0.1947286129 -1.672703385 0 1.585764834e-38
-0.217141211 -1.68103385 0 1.567325708e-38
-0.2396547347 -1.688073158 0 1.558106145e-38
-0.2620708346 -1.692834377 0 1.539667019e-38
-0.2851428688 -1.700255752 0 1.539667019e-38
-0.3093289435 -1.712283731 0 1.558106145e-38
-0.3338635266 -1.723969579 0 1.539667019e-38
-0.3588404059 -1.734264851 0 1.530447456e-38
-0.3833088875 -1.743358612 0 1.502788767e-38
-0.4082842171 -1.753084064 0 1.355275759e-38
-0.4573734701 -1.764692187 0 2.581477636e-39
-0.4333217144 -1.761484623 0 9.680541136e-39
-1.396084666 -5.124223709 0 3.872216454e-39
-1.446285129 -5.060378075 0 4.056607714e-39
-0.2594594359 -0.8670096397 0 9.772736766e-39
-0.2668988705 -0.8532297611 0 1.539667019e-38
-0.2731064856 -0.8365481496 0 1.594984397e-38
-0.2786202133 -0.8188991547 0 1.622643086e-38
-0.2844064832 -0.8031294942 0 1.668740901e-38
-0.2908789515 -0.7880287766 0 1.687180026e-38
-0.2965965867 -0.773055315 0 1.724058278e-38
-0.3019808829 -0.7580656409 0 1.76093653e-38
-0.3074140251 -0.7439903617 0 1.797814782e-38
-0.312931478 -0.7308207154 0 1.825473471e-38
-0.3173536062 -0.7158042192 0 1.85313216e-38
-0.3214443624 -0.7007956505 0 1.871571286e-38
-0.3260619342 -0.6876078844 0 1.890010412e-38
-0.3312765956 -0.6762136221 0 1.908449538e-38
-0.3358030021 -0.6639068723 0 1.908449538e-38
-0.3405326605 -0.6524825692 0 1.936108227e-38
-0.3445526958 -0.640165925 0 1.972986479e-38
-0.3495678008 -0.6283019185 0 2.000645168e-38
-0.353135258 -0.6171033382 0 2.028303857e-38
-0.3564845026 -0.6059107184 0 2.055962546e-38
-0.3596157134 -0.5947281122 0 2.074401672e-38
-0.3630578518 -0.5844082236 0 2.074401672e-38
-0.3663038611 -0.5740927458 0 2.074401672e-38
-0.3699029386 -0.5646209717 0 2.074401672e-38
-0.3733271956 -0.5551466942 0 2.065182109e-38
-0.3765773773 -0.5456725359 0 2.055962546e-38
-0.3796542585 -0.5362011194 0 2.074401672e-38
-0.3825578988 -0.5267356634 0 2.092840798e-38
-0.3852894008 -0.5172784925 0 2.111279924e-38
-0.3891658187 -0.5080845952 0 2.138938613e-38
-0.3923426867 -0.499291718 0 2.175816865e-38
-0.3953616321 -0.4904989004 0 2.194255991e-38
-0.3982236385 -0.4817083776 0 2.212695117e-38
-0.4009287059 -0.4729230106 0 2.22191468e-38
-0.4034778476 -0.4641450644 0 2.212695117e-38
-0.4078675807 -0.457616657 0 2.203475554e-38
-0.410808593 -0.4495746195 0 2.185036428e-38
-0.4136133194 -0.4415303469 0 2.175816865e-38
-0.416282177 -0.4334860444 0 2.166597302e-38
-0.4188157022 -0.4254437685 0 2.166597302e-38
-0.4212141037 -0.4174059033 0 2.175816865e-38
-0.4241921008 -0.4086343348 0 2.212695117e-38
-0.4269369841 -0.3999372125 0 2.240353806e-38
-0.4295222163 -0.3912436962 0 2.258792932e-38
-0.4326970875 -0.3832195699 0 2.286451621e-38
-0.4357321262 -0.3751832545 0 2.295671184e-38
-0.4378606677 -0.3664955795 0 2.295671184e-38
-0.4406079948 -0.358453095 0 2.277232058e-38
-0.4440008998 -0.3510258794 0 2.268012495e-38
-0.4464794993 -0.342965126 0 2.277232058e-38
-0.4488201439 -0.3349036574 0 2.277232058e-38
-0.451023221 -0.3268440664 0 2.277232058e-38
-0.4530891478 -0.3187887073 0 2.295671184e-38
-0.4557356238 -0.31146276 0 2.31411031e-38
-0.4575224221 -0.3052429259 0 2.341768999e-38
-0.4592273831 -0.2990220785 0 2.350988562e-38
-0.4600066841 -0.2922650874 0 2.350988562e-38
-0.4615424573 -0.2860551178 0 2.350988562e-38
-0.463853091 -0.2803646028 0 2.350988562e-38
-0.4652327299 -0.2741505504 0 2.350988562e-38
-0.4665316045 -0.2679407597 0 2.350988562e-38
-0.4686226249 -0.2622247338 0 2.350988562e-38
-0.4706443846 -0.2564953864 0 2.332549436e-38
-0.4717133045 -0.2502848804 0 2.323329873e-38
-0.4735909998 -0.2445414811 0 2.332549436e-38
-0.4752325714 -0.2391192317 0 2.350988562e-38
-0.4772603512 -0.2327736765 0 2.350988562e-38
-0.4782997668 -0.2259874344 0 2.350988562e-38
-0.4801540077 -0.2196272761 0 2.350988562e-38
-0.4819241762 -0.2132559419 0 2.350988562e-38
-0.483610332 -0.2068745047 0 2.350988562e-38
-0.4852124155 -0.2004840821 0 2.350988562e-38
-0.4876594841 -0.194456175 0 2.350988562e-38
-0.4890982807 -0.1880395859 0 2.341768999e-38
-0.4913908541 -0.1819643825 0 2.323329873e-38
-0.4936079085 -0.1758613437 0 2.304890747e-38
-0.4948031306 -0.1694073975 0 2.304890747e-38
-0.4971201718 -0.1624823958 0 2.31411031e-38
-0.4981139004 -0.1560979486 0 2.332549436e-38
-0.4999837577 -0.1500008404 0 2.350988562e-38
-0.5017790794 -0.1438812464 0 2.350988562e-38
-0.5034993887 -0.1377402693 0 2.350988562e-38
-0.5051445365 -0.1315788627 0 2.350988562e-38
-0.506714344 -0.125397712 0 2.350988562e-38
-0.5082085133 -0.119197838 0 2.350988562e-38
-0.5106031299 -0.1131964773 0 2.350988562e-38
-0.5119479299 -0.1069499999 0 2.332549436e-38
-0.5141976476 -0.1008800864 0 2.304890747e-38
-0.5255516768 -0.08879451454 0 2.111279924e-38
-0.5173588395 -0.09495165199 0 2.268012495e-38
-3.077664375 -0.4808391333 0 8.481997947e-39
-3.089325666 -0.4435187876 0 8.942976097e-39
-3.101525068 -0.4061114788 0 8.850780467e-39
-3.115256786 -0.3687063456 0 8.850780467e-39
-3.128536224 -0.3310215771 0 8.758584837e-39
-3.142354727 -0.2931585908 0 8.666389207e-39
-3.157707453 -0.2551634014 0 8.574193577e-39
-3.172598839 -0.216834113 0 8.574193577e-39
-3.188021898 -0.1782291383 0 8.574193577e-39
-3.20397234 -0.1393193007 0 8.481997947e-39
-3.232527256 -0.05528604984 0 8.481997947e-39
-3.219445944 -0.1000414416 0 8.481997947e-39
-3.244963884 -0.01528249588 0 8.574193577e-39
-3.25890398 0.02503616177 0 8.574193577e-39
-3.276339769 0.06577821076 0 8.574193577e-39
-3.206309557 0.1041321456 0 8.942976097e-39
-3.223753691 0.1447071135 0 8.942976097e-39
-3.230698586 0.1851580739 0 9.219562986e-39
-3.229153395 0.2252466083 0 9.403954246e-39
-3.228107929 0.2654072344 0 9.496149876e-39
-3.220588923 0.305010736 0 9.772736766e-39
-3.203635931 0.3435100019 0 9.403954246e-39
-3.177289724 0.3805643022 0 8.666389207e-39
-3.135505199 0.4161457419 0 6.91467224e-39
-3.05390811 0.4438923597 0 3.134651415e-39
-0 0 0 0
-0 0 0 0
-1.692725778 0.3106773794 0 5.070759642e-39
-1.688745975 0.3316293061 0 1.069469306e-38
-1.68548584 0.3527343571 0 1.355275759e-38
-1.682937741 0.3740272522 0 1.281519255e-38
-1.68109417 0.3955393732 0 1.060249743e-38
-1.683827758 0.4182692766 0 1.134006247e-38
-0 0 0 0
-0 0 0 0
-0 0 0 0
-0 0 0 0
-0 0 0 0
-0 0 0 0
-1.740030408 0.6134488583 0 5.623933422e-39
-1.739517093 0.6414017081 0 9.219562986e-39
-1.74042511 0.6701831818 0 1.336836633e-38
-1.738079429 0.6980036497 0 1.410593137e-38
-1.736214995 0.7262790799 0 1.382934448e-38
-1.738480091 0.7566391826 0 1.364495322e-38
-1.740229368 0.7872112989 0 1.32761707e-38
-1.743267059 0.8188380599 0 1.290738818e-38
-1.753992677 0.8543480039 0 1.216982314e-38
-1.768170953 0.8865976334 0 1.170884499e-38
-1.775614858 0.9160762429 0 7.00686787e-39
-0 0 0 0
-1.540711522 0.8403765559 0 3.411238305e-39
-1.516971946 0.850245297 0 9.311758616e-39
-1.492344618 0.8591807485 0 1.198543188e-38
-1.477183938 0.8732602596 0 1.309177944e-38
-1.46788168 0.8907370567 0 1.32761707e-38
-1.478745818 0.9208011031 0 1.23542144e-38
-1.492480397 0.9533852339 0 1.124786684e-38
-1.511866808 1.018620253 0 1.060249743e-38
-1.504820943 0.9858575463 0 1.069469306e-38
-1.508174181 1.043535709 0 1.023371491e-38
-1.505725622 1.069672585 0 1.032591054e-38
-1.504474759 1.097086906 0 9.772736766e-39
-1.527593493 1.143206954 0 7.652237279e-39
-4.491549015 3.448993683 0 3.226847045e-39
-3.977147102 3.133093119 0 3.226847045e-39
-3.937239885 3.181506634 0 5.070759642e-39
-0 0 0 0
-3.822138071 3.248309374 0 3.042455785e-39
-0 0 0 0
-0 0 0 0
-0 0 0 0
-0 0 0 0
-2.08537817 2.015241385 0 7.191259129e-39
-2.053496599 2.034952641 0 1.134006247e-38
-2.017943859 2.050617456 0 1.170884499e-38
-1.979553103 2.06282568 0 1.170884499e-38
-1.945276141 2.078775883 0 1.161664936e-38
-1.914282918 2.097884893 0 1.134006247e-38
-1.888434052 2.122521877 0 9.588345506e-39
-0.6087429523 0.701764226 0 7.560041649e-39
-0.5927734971 0.7009589672 0 1.714838715e-38
-0.5781937838 0.7014077902 0 2.046742983e-38
-0.5629486442 0.700920701 0 2.074401672e-38
-0.5479329824 0.7000645995 0 2.102060361e-38
-0.533634901 0.6997383833 0 2.148158176e-38
-0.5194326043 0.699164331 0 2.175816865e-38
-0.5053297877 0.6983450651 0 2.203475554e-38
-0.4785696566 0.6976296306 0 2.240353806e-38
-0.4919064641 0.6981002688 0 2.231134243e-38
-0.4653234184 0.6969348192 0 2.258792932e-38
-0.4521707296 0.6960184574 0 2.240353806e-38
-0.4396494031 0.6957279444 0 2.231134243e-38
-0.4266839027 0.6943816543 0 2.22191468e-38
-0.4014669955 0.6931271553 0 2.203475554e-38
-0.414334923 0.6936790347 0 2.212695117e-38
-0.3909923732 0.6922066212 0 2.212695117e-38
-0.380584985 0.6911411285 0 2.22191468e-38
-0.3702469468 0.6899319887 0 2.249573369e-38
-0.3599798679 0.688580811 0 2.277232058e-38
-0.3497856557 0.6870887876 0 2.295671184e-38
-0.3396663666 0.6854573488 0 2.31411031e-38
-0.3300577998 0.6845888495 0 2.323329873e-38
-0.320508033 0.683593154 0 2.323329873e-38
-0.3110187948 0.6824714541 0 2.323329873e-38
-0.3015916049 0.6812250018 0 2.304890747e-38
-0.280466646 0.6804663539 0 2.277232058e-38
-0.293412596 0.6826111674 0 2.286451621e-38
-0.2712737918 0.6820312142 0 2.286451621e-38
-0.261369586 0.6816054583 0 2.304890747e-38
-0.2515174747 0.6810396314 0 2.332549436e-38
-0.2417199612 0.6803348064 0 2.350988562e-38
-0.2319786102 0.679492414 0 2.350988562e-38
-0.2222955823 0.6785135865 0 2.350988562e-38
-0.2129720449 0.6783538461 0 2.350988562e-38
-0.2033991814 0.6771098971 0 2.350988562e-38
-0.1941656917 0.6766946316 0 2.332549436e-38
-0.184973821 0.6761550307 0 2.323329873e-38
-0.1758254468 0.6754919887 0 2.304890747e-38
-0.1656620353 0.6749674678 0 2.295671184e-38
-0.1566065997 0.6740462184 0 2.295671184e-38
-0.1478133798 0.673981607 0 2.295671184e-38
-0.1388442516 0.6728233099 0 2.304890747e-38
-0.1301164925 0.6725286245 0 2.31411031e-38
-0.1214174181 0.6721211672 0 2.341768999e-38
-0.1127480567 0.6716017127 0 2.350988562e-38
-0.104110688 0.6709709764 0 2.350988562e-38
-0.09550628811 0.6702294946 0 2.350988562e-38
-0.08706478029 0.6703698635 0 2.350988562e-38
-0.07851831615 0.6694108844 0 2.350988562e-38
-0.07011318207 0.6693378091 0 2.332549436e-38
-0.0614881292 0.6691809893 0 2.323329873e-38
-0.05241173506 0.6689499021 0 2.304890747e-38
-0.04335235059 0.6685959697 0 2.286451621e-38
-0.03436348587 0.6691182256 0 2.286451621e-38
-0.02536849678 0.6695195436 0 2.268012495e-38
-0.01641746238 0.6717994213 0 2.277232058e-38
-0.007519990206 0.6839586496 0 2.175816865e-38
0 0 0 0
0 0 0 0
0 0 0 0
0.1055047363 2.46574378 0 3.319042675e-39
0.166904062 2.423258781 0 4.056607714e-39
0.1375074834 2.444134951 0 4.701977123e-39
0.6254541874 7.689605236 0 3.042455785e-39
0.7246179581 7.723080635 0 4.794172753e-39
0 0 0 0
0 0 0 0
1.031231642 7.843499184 0 3.780020824e-39
1.127635837 7.825169086 0 4.701977123e-39
1.212277889 7.732548714 0 2.765868896e-39
0 0 0 0
0 0 0 0
0 0 0 0
0 0 0 0
0.4348021448 1.953189135 0 6.54588972e-39
0.4541546702 1.927211404 0 1.170884499e-38
0.4702762067 1.890381932 0 1.226201877e-38
0.4878358245 1.862160325 0 1.272299692e-38
0.5039730072 1.830904841 0 1.290738818e-38
0.5194115639 1.79953897 0 1.309177944e-38
0.534730494 1.769989967 0 1.355275759e-38
0.5490960479 1.739387631 0 1.401373574e-38
0.5640377402 1.712504148 0 1.410593137e-38
0.578399539 1.685519934 0 1.410593137e-38
0.5928518772 1.660330057 0 1.401373574e-38
0.6060738564 1.633168221 0 1.392154011e-38
0.6219592094 1.606827855 0 1.382934448e-38
0.6347447038 1.581364989 0 1.392154011e-38
0.64738065 1.556757569 0 1.4198127e-38
0.6595042944 1.532082796 0 1.447471389e-38
0.671523571 1.508262992 0 1.484349641e-38
0.6830549836 1.484382629 0 1.521227893e-38
0.6945289969 1.461353421 0 1.539667019e-38
0.7055372596 1.438270211 0 1.613423523e-38
0.7165327072 1.416033268 0 1.484349641e-38
0.3875947893 0.7429766655 0 7.191259129e-39
0.38824898 0.7222622037 0 1.410593137e-38
0.3879662752 0.7007732391 0 1.807034345e-38
0.3859630525 0.676663518 0 1.899229975e-38
0.3864010274 0.656763494 0 1.954547353e-38
0.3884501457 0.6403963566 0 1.991425605e-38
0.3917203844 0.6266387701 0 2.019084294e-38
0.3968575299 0.616273582 0 2.046742983e-38
0.4039984643 0.6092177033 0 2.046742983e-38
0.4104574323 0.6012558937 0 2.028303857e-38
0.4179257452 0.5948672891 0 2.000645168e-38
0.4293969274 0.5940600038 0 1.94532779e-38
0.4445011616 0.5978659987 0 1.770156093e-38
0 0 0 0
0 0 0 0
0 0 0 0
1.029454231 1.243068695 0 1.180104062e-38
1.072614074 1.262991667 0 1.134006247e-38
1.119704604 1.285802007 0 1.078688869e-38
1.168851972 1.309125662 0 1.023371491e-38
0 0 0 0
0 0 0 0
0 0 0 0
2.198442936 2.229351997 0 4.425390233e-39
2.262156963 2.237804651 0 1.106347558e-38
2.29403019 2.213768005 0 1.032591054e-38
2.327838898 2.191340923 0 1.041810617e-38
2.368913174 2.167665005 0 1.014151928e-38
2.411264181 2.150619745 0 1.014151928e-38
2.445260286 2.125629902 0 8.574193577e-39
4.517004013 3.826627493 0 2.673673266e-39
4.564620018 3.768130064 0 1.659521338e-39
4.606801987 3.705282927 0 1.106347558e-39
0 0 0 0
0 0 0 0
0 0 0 0
0 0 0 0
0 0 0 0
0 0 0 0
0 0 0 0
0 0 0 0
0 0 0 0
0 0 0 0
0 0 0 0
0 0 0 0
0 0 0 0
0 0 0 0
0 0 0 0
5.162396908 2.586258888 0 8.389802318e-39
0 0 0 0
5.205742359 2.527769566 0 7.00686787e-39
5.249106884 2.457741499 0 4.701977123e-39
0 0 0 0
5.302800179 2.322246552 0 4.886368383e-39
5.333405018 2.256206989 0 4.148803344e-39
5.369668007 2.192411184 0 6.177107201e-39
4.52121067 1.780038357 0 3.503433935e-39
4.548831463 1.725211501 0 4.148803344e-39
4.575788021 1.669971466 0 4.148803344e-39
4.601130009 1.613995075 0 4.148803344e-39
4.628629684 1.558602452 0 4.148803344e-39
4.657366276 1.503388047 0 4.056607714e-39
4.686400414 1.447991848 0 3.964412084e-39
4.711181164 1.390149713 0 3.872216454e-39
4.733323097 1.331366777 0 2.858064526e-39
5.712053299 1.528403044 0 2.858064526e-39
5.74657011 1.459441662 0 2.950260156e-39
5.78219986 1.390315771 0 2.950260156e-39
0 0 0 0
0.6444554925 0.137688607 0 1.299958381e-38
0.6373327374 0.127698794 0 2.268012495e-38
0.633993268 0.1186485887 0 2.350988562e-38
0.6295423508 0.1095329374 0 2.350988562e-38
0.6289121509 0.1011858582 0 2.350988562e-38
0.6271824837 0.09272606671 0 2.350988562e-38
0.6264190674 0.08380458504 0 2.350988562e-38
0.6264166236 0.07591564953 0 2.350988562e-38
0.6283034682 0.06825534254 0 2.350988562e-38
0.6310918331 0.06065590307 0 2.350988562e-38
0.6387705803 0.05341446772 0 2.341768999e-38
0.6463657618 0.04599195719 0 2.31411031e-38
0.656868875 0.03856481984 0 2.31411031e-38
0.6722803116 0.03111588024 0 1.991425605e-38
5.661753178 0.1917768568 0 7.467846019e-39
6.016613483 0.1291796267 0 1.936108227e-39
6.044751167 0.05486072227 0 3.134651415e-39
