# .PCD v0.7 - Point Cloud Data file format
VERSION 0.7
FIELDS x y z rgb
SIZE 4 4 4 4
TYPE F F F F
COUNT 1 1 1 1
WIDTH 501
HEIGHT 1
VIEWPOINT 0 0 0 1 0 0 0
POINTS 501
DATA ascii
0.9579915404 -0.004018378444 0 1.917669101e-38
0.9798651934 -0.01625366136 0 1.429032263e-38
0 -0 0 0
0 -0 0 0
0 -0 0 0
0 -0 0 0
0 -0 0 0
3.598638535 -0.3218209445 0 3.687825195e-39
3.700090647 -0.374556005 0 5.255150902e-39
3.723280191 -0.4209436476 0 8.021019798e-39
3.753825903 -0.4689142704 0 8.574193577e-39
1.01157701 -0.1383945644 0 6.73028098e-39
0.9841724634 -0.1463884562 0 1.429032263e-38
0.9705454111 -0.1559828818 0 1.917669101e-38
0.9627427459 -0.1662992835 0 2.092840798e-38
0.9583297968 -0.1795244962 0 2.166597302e-38
0.9548838139 -0.1920230836 0 2.175816865e-38
0.9532305002 -0.2048821747 0 2.185036428e-38
0.9562777877 -0.2188465595 0 2.120499487e-38
0.9639801979 -0.2341071218 0 1.982206042e-38
0.9811294675 -0.2520991564 0 1.613423523e-38
4.535250187 -1.229676604 0 5.347346532e-39
4.557966709 -1.300976157 0 6.82247661e-39
4.605444431 -1.380849361 0 7.00686787e-39
4.651593685 -1.462207437 0 6.91467224e-39
4.705883503 -1.54815197 0 6.45369409e-39
4.75018692 -1.632866144 0 4.240998974e-39
0 -0 0 0
0 -0 0 0
0 -0 0 0
0 -0 0 0
0 -0 0 0
0 -0 0 0
0 -0 0 0
0.6223766804 -0.2861333489 0 1.023371491e-38
0.6106025577 -0.2900697887 0 1.94532779e-38
0.6015225053 -0.2950773835 0 2.212695117e-38
0.5933062434 -0.3003543615 0 2.277232058e-38
0.5877121687 -0.3068605959 0 2.323329873e-38
0.5802330375 -0.3124269247 0 2.350988562e-38
0.5749567747 -0.317920953 0 2.350988562e-38
0.571369946 -0.3243229389 0 2.350988562e-38
0.5694397688 -0.3316916227 0 2.350988562e-38
0.5708498955 -0.3411090672 0 2.350988562e-38
0.5721198916 -0.3505992889 0 2.304890747e-38
0.5749419332 -0.3612240553 0 2.194255991e-38
0.5818010569 -0.3746618629 0 1.982206042e-38
0.5909343958 -0.3899494708 0 1.152445373e-38
1.965908766 -1.329033971 0 1.364495322e-38
1.941075683 -1.344078302 0 1.438251826e-38
1.916968465 -1.359312773 0 1.465910515e-38
1.890122294 -1.377809405 0 1.493569204e-38
1.864096403 -1.394535422 0 1.51200833e-38
1.840326548 -1.412656307 0 1.502788767e-38
1.818751931 -1.432259321 0 1.502788767e-38
1.799308777 -1.453429103 0 1.401373574e-38
1.821203589 -1.508788466 0 9.957128025e-39
0 -0 0 0
0 -0 0 0
0 -0 0 0
0 -0 0 0
0 -0 0 0
0 -0 0 0
0 -0 0 0
0 -0 0 0
0 -0 0 0
0 -0 0 0
4.335616589 -4.81185627 0 4.148803344e-39
4.258407116 -4.86438036 0 6.82247661e-39
4.179933071 -4.914922714 0 7.099063499e-39
4.102797031 -4.966529846 0 7.099063499e-39
4.026292801 -5.018497944 0 7.099063499e-39
3.950372219 -5.07087183 0 6.82247661e-39
4.011913776 -5.304748058 0 2.858064526e-39
6.15715456 -8.63209343 0 2.581477636e-39
0 -0 0 0
0 -0 0 0
0 -0 0 0
0 -0 0 0
0 -0 0 0
0 -0 0 0
0 -0 0 0
0 -0 0 0
0 -0 0 0
0 -0 0 0
0 -0 0 0
0 -0 0 0
0 -0 0 0
0 -0 0 0
0 -0 0 0
0 -0 0 0
0 -0 0 0
0 -0 0 0
0 -0 0 0
0 -0 0 0
0 -0 0 0
0 -0 0 0
0 -0 0 0
0 -0 0 0
0 -0 0 0
0 -0 0 0
0 -0 0 0
0 -0 0 0
2.430287361 -8.663585663 0 3.503433935e-39
2.330368996 -8.697205544 0 5.347346532e-39
1.51892221 -5.946061134 0 6.177107201e-39
1.450467706 -5.968275547 0 6.54588972e-39
1.063419819 -4.609934807 0 2.397086376e-39
1.00901556 -4.620100498 0 7.099063499e-39
0.9547185898 -4.630604267 0 8.574193577e-39
0.9022185802 -4.650287151 0 8.574193577e-39
0.8347182274 -4.672018528 0 8.758584837e-39
0.7787237763 -4.693841934 0 8.758584837e-39
0.7224677801 -4.715981483 0 8.666389207e-39
0.6659237742 -4.738435268 0 8.574193577e-39
0 -0 0 0
0 -0 0 0
0 -0 0 0
0 -0 0 0
0 -0 0 0
0 -0 0 0
0 -0 0 0
0 -0 0 0
0 -0 0 0
0 -0 0 0
0 -0 0 0
-0.02001803182 -1.637877703 0 1.087908432e-38
-0.04105080292 -1.621480465 0 1.382934448e-38
-0.0623488538 -1.622802615 0 1.567325708e-38
-0.08415099233 -1.632833004 0 1.576545271e-38
-0.1060334668 -1.639574885 0 1.60420396e-38
-0.1282619685 -1.648016334 0 1.613423523e-38
-0.1507287025 -1.656155229 0 1.60420396e-38
-0.1735347658 -1.664981008 0 1.60420396e-38
-0.1965967268 -1.673491716 0 1.585764834e-38
-0.2189013511 -1.680805564 0 1.576545271e-38
-0.2408439964 -1.685883522 0 1.567325708e-38
-0.2627914846 -1.689686537 0 1.548886582e-38
-0.2852026522 -1.695175529 0 1.548886582e-38
-0.3097492754 -1.711191416 0 1.539667019e-38
-0.3351158798 -1.728819966 0 1.539667019e-38
-0.3589425981 -1.736286044 0 1.502788767e-38
-0.3830054402 -1.743425369 0 1.465910515e-38
-0.4086590409 -1.75607717 0 1.346056196e-38
-0.4334908724 -1.763502717 0 8.850780467e-39
-0 -0 0 0
-0.2534352541 -0.8844040632 0 3.319042675e-39
-1.390722275 -5.108065128 0 4.148803344e-39
-0.2600794733 -0.8657797575 0 1.087908432e-38
-0.2674901187 -0.8509483337 0 1.576545271e-38
-0.2745660245 -0.8360702991 0 1.641082212e-38
-0.2806586921 -0.8192598224 0 1.659521338e-38
-0.2867040336 -0.8033739924 0 1.687180026e-38
-0.2923912406 -0.7874689102 0 1.714838715e-38
-0.2980804741 -0.7724843621 0 1.733277841e-38
-0.3030637503 -0.7565562725 0 1.76093653e-38
-0.3084577322 -0.7424755096 0 1.788595219e-38
-0.3139384985 -0.7293000817 0 1.816253908e-38
-0.3191338778 -0.7161071897 0 1.834693034e-38
-0.3240450919 -0.7029016614 0 1.862351723e-38
-0.329033345 -0.6895165443 0 1.880790849e-38
-0.3337239623 -0.6761245131 0 1.908449538e-38
-0.3385727704 -0.6636214852 0 1.926888664e-38
-0.3436155319 -0.651994884 0 1.954547353e-38
-0.3484100997 -0.6403524876 0 1.963766916e-38
-0.3529566824 -0.6286991239 0 1.982206042e-38
-0.3572563529 -0.6170387864 0 1.991425605e-38
-0.3613095284 -0.6053762436 0 2.000645168e-38
-0.365116626 -0.5937161446 0 2.009864731e-38
-0.3692140579 -0.5829073191 0 2.03752342e-38
-0.3730894029 -0.5720955729 0 2.055962546e-38
-0.3766458035 -0.5613500476 0 2.074401672e-38
-0.3797933757 -0.5507431626 0 2.074401672e-38
-0.3833104968 -0.5409640074 0 2.092840798e-38
-0.3866404891 -0.5311855674 0 2.120499487e-38
-0.3897840977 -0.5214110017 0 2.12971905e-38
-0.392742157 -0.5116429925 0 2.138938613e-38
-0.3961342275 -0.5026705265 0 2.148158176e-38
-0.3993616402 -0.4936955273 0 2.166597302e-38
-0.4024254382 -0.4847203195 0 2.166597302e-38
-0.4053258598 -0.4757477641 0 2.166597302e-38
-0.4080632925 -0.4667808712 0 2.175816865e-38
-0.4106386602 -0.4578219056 0 2.185036428e-38
-0.4133659005 -0.4485851526 0 2.212695117e-38
-0.4169018865 -0.4425571263 0 2.212695117e-38
-0.4168871045 -0.4329043329 0 2.203475554e-38
-0.4202187657 -0.426869005 0 2.203475554e-38
-0.4220496714 -0.419403255 0 2.212695117e-38
-0.4237674475 -0.4119492471 0 2.22191468e-38
-0.4253727198 -0.4045084119 0 2.231134243e-38
-0.4275982082 -0.3977634907 0 2.249573369e-38
-0.4297268987 -0.3910188973 0 2.258792932e-38
-0.4317593873 -0.3842757344 0 2.258792932e-38
-0.4336957932 -0.377535373 0 2.249573369e-38
-0.4384865165 -0.3626163304 0 2.268012495e-38
-0.4355363548 -0.3707992733 0 2.258792932e-38
-0.4406108558 -0.3552717865 0 2.277232058e-38
-0.4434069395 -0.3485488296 0 2.304890747e-38
-0.4453106523 -0.3412028849 0 2.323329873e-38
-0.447901994 -0.334461987 0 2.323329873e-38
-0.4495862424 -0.327121079 0 2.332549436e-38
-0.4511577189 -0.3197900653 0 2.341768999e-38
-0.4526169598 -0.3124706447 0 2.350988562e-38
-0.4547943473 -0.3057222366 0 2.350988562e-38
-0.4568742812 -0.2989680767 0 2.350988562e-38
-0.4588569701 -0.292209357 0 2.350988562e-38
-0.4607423842 -0.2854478061 0 2.332549436e-38
-0.4629683197 -0.277957499 0 2.323329873e-38
-0.4655134082 -0.2716950774 0 2.323329873e-38
-0.4679745138 -0.2654125988 0 2.332549436e-38
-0.4694757462 -0.2586281896 0 2.350988562e-38
-0.4717626274 -0.2523193359 0 2.350988562e-38
-0.4730778933 -0.2455326766 0 2.350988562e-38
-0.4751908183 -0.2392021716 0 2.350988562e-38
-0.4772197902 -0.2328568399 0 2.350988562e-38
-0.4791643918 -0.2264982462 0 2.350988562e-38
-0.4801157117 -0.219710961 0 2.350988562e-38
-0.4818870127 -0.2133399248 0 2.350988562e-38
-0.4835742712 -0.2069588006 0 2.350988562e-38
-0.485247463 -0.2003992796 0 2.350988562e-38
-0.4876934588 -0.1943709552 0 2.350988562e-38
-0.4900645614 -0.1883127838 0 2.341768999e-38
-0.4923604131 -0.1822257042 0 2.341768999e-38
-0.4945806563 -0.1761106253 0 2.341768999e-38
-0.4957787991 -0.169644773 0 2.332549436e-38
-0.4968928397 -0.163176313 0 2.332549436e-38
-0.4988766909 -0.1570065469 0 2.332549436e-38
-0.5007839203 -0.1508126706 0 2.332549436e-38
-0.5026142597 -0.1445956379 0 2.332549436e-38
-0.5043674707 -0.1383562684 0 2.341768999e-38
-0.5078381896 -0.125017494 0 2.350988562e-38
-0.5060431957 -0.1320959032 0 2.350988562e-38
-0.5093483925 -0.1187149137 0 2.350988562e-38
-0.5107803345 -0.1123943403 0 2.350988562e-38
-0.5121338367 -0.1060562581 0 2.332549436e-38
-0.5143903494 -0.09989276528 0 2.31411031e-38
-0.5175566077 -0.09386783093 0 2.304890747e-38
-0.5275547504 -0.08894370496 0 2.175816865e-38
-3.077831984 -0.479765594 0 8.666389207e-39
-3.088490009 -0.4422993958 0 8.850780467e-39
-3.099683285 -0.4047706425 0 8.758584837e-39
-3.111412764 -0.3671494424 0 8.758584837e-39
-3.126662731 -0.3297205567 0 8.758584837e-39
-3.142558813 -0.2909640968 0 8.666389207e-39
-3.156888008 -0.2528783679 0 8.574193577e-39
-3.172749519 -0.2146185488 0 8.574193577e-39
-3.187146902 -0.1759476662 0 8.481997947e-39
-3.203069925 -0.1370398551 0 8.481997947e-39
-3.218515635 -0.09776283056 0 8.574193577e-39
-3.231477976 -0.05808956921 0 8.574193577e-39
-3.242949486 -0.01810291968 0 8.574193577e-39
-3.254924536 0.02216438018 0 8.574193577e-39
-3.27439642 0.06288082153 0 8.574193577e-39
-3.206399202 0.101334244 0 8.481997947e-39
-3.23486805 0.1423776448 0 8.850780467e-39
-3.232662678 0.1858358979 0 9.035171727e-39
-3.230111599 0.2258799076 0 9.311758616e-39
-3.226068258 0.2658055723 0 9.403954246e-39
-3.220535517 0.3055728078 0 9.311758616e-39
-3.208547831 0.344601512 0 9.311758616e-39
-3.181195021 0.3815952241 0 8.574193577e-39
-3.13359499 0.4153349698 0 6.91467224e-39
-3.052006721 0.4430713356 0 3.042455785e-39
-0 0 0 0
-0 0 0 0
-1.721304417 0.3156124949 0 3.964412084e-39
-1.707448483 0.3349921405 0 7.560041649e-39
-1.701813698 0.3577021956 0 1.124786684e-38
-1.696786642 0.3808359206 0 1.253860566e-38
-1.693390489 0.4043636024 0 9.127367356e-39
-1.689667583 0.4278696775 0 8.942976097e-39
-0 0 0 0
-0 0 0 0
-2.235387325 0.6642798781 0 1.069469306e-38
-2.250002384 0.7020962238 0 1.355275759e-38
-2.265898705 0.7410533428 0 1.198543188e-38
-0 0 0 0
-0 0 0 0
-0.9276069403 0.3458980322 0 6.82247661e-39
-0.9065347314 0.3534455001 0 1.530447456e-38
-0.8918870687 0.3605294526 0 1.687180026e-38
-0.8808943033 0.3688497543 0 1.779375656e-38
-0.8716683388 0.3777490556 0 1.825473471e-38
-0.8623577356 0.3864764869 0 1.871571286e-38
-0.852058053 0.3946112394 0 1.899229975e-38
-0.8416900635 0.4025504589 0 1.899229975e-38
-0.7810407281 0.3855079114 0 1.871571286e-38
-0.7664009333 0.390166074 0 1.880790849e-38
-0.7553091049 0.3963801265 0 1.926888664e-38
-0.7485799789 0.4047580361 0 1.954547353e-38
-0.7408859134 0.4125433266 0 1.982206042e-38
-0.7347583175 0.423360616 0 2.000645168e-38
-0.731931746 0.4321758449 0 2.019084294e-38
-0.7307116389 0.4420140982 0 2.009864731e-38
-0.7319149375 0.4534550905 0 1.991425605e-38
-0.7321124077 0.4644355774 0 1.963766916e-38
-0.7355130315 0.4776500165 0 1.890010412e-38
-0 0 0 0
-1.514849663 1.030269027 0 9.772736766e-39
-1.516197443 1.079104304 0 9.772736766e-39
-1.516108274 1.054905176 0 1.060249743e-38
-4.539601326 3.378801823 0 3.226847045e-39
-1.53534615 1.117547989 0 7.928824168e-39
-4.568300247 3.490219831 0 3.872216454e-39
-3.97849369 3.118431091 0 4.425390233e-39
-0 0 0 0
-3.866047621 3.188071251 0 2.765868896e-39
-0 0 0 0
-0 0 0 0
-0 0 0 0
-0 0 0 0
-2.117388248 1.978654027 0 6.361498461e-39
-2.086930037 1.999205589 0 1.106347558e-38
-2.052721024 2.015804291 0 1.14322581e-38
-2.01701355 2.03044343 0 1.161664936e-38
-1.979812622 2.047302246 0 1.170884499e-38
-1.946563363 2.07071352 0 1.161664936e-38
-1.918444633 2.099501371 0 1.004932366e-38
-0.6155792475 0.6931025386 0 6.54588972e-39
-0.6011453867 0.6964368224 0 1.677960464e-38
-0.5854562521 0.6979699135 0 2.000645168e-38
-0.5692132711 0.6984248757 0 2.083621235e-38
-0.5530754924 0.698561728 0 2.120499487e-38
-0.5376586914 0.6991760731 0 2.166597302e-38
-0.5217378139 0.6986942291 0 2.175816865e-38
-0.5065257549 0.698713541 0 2.175816865e-38
-0.4914188683 0.6984435916 0 2.194255991e-38
-0.4773515761 0.6984636188 0 2.203475554e-38
-0.4647150934 0.6973406076 0 2.212695117e-38
-0.4521707296 0.6960184574 0 2.22191468e-38
-0.4402563572 0.6953440309 0 2.231134243e-38
-0.4278952479 0.6936358213 0 2.231134243e-38
-0.4161495864 0.6925919056 0 2.240353806e-38
-0.4044874609 0.6913688183 0 2.258792932e-38
-0.3929114044 0.6899686456 0 2.268012495e-38
-0.3819084764 0.6892676353 0 2.277232058e-38
-0.3709762692 0.6884043813 0 2.277232058e-38
-0.3601166904 0.6873805523 0 2.286451621e-38
-0.3493320942 0.6861975193 0 2.277232058e-38
-0.3373914063 0.6865799427 0 2.277232058e-38
-0.3267081976 0.686193645 0 2.277232058e-38
-0.3160868585 0.6856486797 0 2.286451621e-38
-0.305529505 0.684946537 0 2.304890747e-38
-0.2950385213 0.6840886474 0 2.295671184e-38
-0.2846158445 0.6830767393 0 2.295671184e-38
-0.274263978 0.6819122434 0 2.295671184e-38
-0.2650696933 0.6833937764 0 2.304890747e-38
-0.2551809549 0.6828789711 0 2.323329873e-38
-0.2453458011 0.6822246909 0 2.341768999e-38
-0.2355661392 0.6814320087 0 2.350988562e-38
-0.2154157907 0.6807290316 0 2.350988562e-38
-0.2258442342 0.6805023551 0 2.350988562e-38
-0.2060943544 0.6804749966 0 2.350988562e-38
-0.1968125701 0.6800947189 0 2.341768999e-38
-0.1873057336 0.6786254644 0 2.350988562e-38
-0.1781199723 0.6779927611 0 2.350988562e-38
-0.1689786166 0.6772372127 0 2.350988562e-38
-0.1598834246 0.6763595939 0 2.350988562e-38
-0.1508362144 0.675360918 0 2.341768999e-38
-0.142044276 0.6752210259 0 2.332549436e-38
-0.1332786083 0.674967289 0 2.332549436e-38
-0.1245415136 0.674600184 0 2.332549436e-38
-0.1158340424 0.6741205454 0 2.332549436e-38
-0.1067655087 0.6725786924 0 2.323329873e-38
-0.09813409299 0.6718710661 0 2.31411031e-38
-0.08953630924 0.6710530519 0 2.304890747e-38
-0.08097425848 0.6701254845 0 2.304890747e-38
-0.07255661488 0.6700832844 0 2.31411031e-38
-0.06415247172 0.6699354053 0 2.332549436e-38
-0.05576283112 0.6696823835 0 2.350988562e-38
-0.04731901735 0.6683269739 0 2.350988562e-38
-0.03897563741 0.6678637266 0 2.341768999e-38
-0.03069658019 0.6682954431 0 2.31411031e-38
-0.02241312899 0.6686244607 0 2.277232058e-38
-0.004850795958 0.6779826283 0 2.120499487e-38
-0.01416846458 0.6708503962 0 2.231134243e-38
0 0 0 0
0 0 0 0
0 0 0 0
0.1062355042 2.462709665 0 2.765868896e-39
0.1363390982 2.44620347 0 4.978564013e-39
0.1659080684 2.427336931 0 4.240998974e-39
0.6224490404 7.685836315 0 2.489282006e-39
0.7214976549 7.704289913 0 4.701977123e-39
0 0 0 0
0 0 0 0
1.139998198 7.833483219 0 4.609781493e-39
0 0 0 0
1.225414872 7.745664597 0 3.134651415e-39
0 0 0 0
0 0 0 0
0 0 0 0
0 0 0 0
0.4335934818 1.949360251 0 5.347346532e-39
0.4538190067 1.92729044 0 1.14322581e-38
0.4716348052 1.897257447 0 1.226201877e-38
0.488271296 1.865147471 0 1.263080129e-38
0.5044497848 1.833885074 0 1.281519255e-38
0.5202066898 1.803472638 0 1.299958381e-38
0.5393099189 1.771736145 0 1.336836633e-38
0.5542529821 1.742998719 0 1.392154011e-38
0.5685684681 1.714166284 0 1.4198127e-38
0.5829079151 1.687140465 0 1.429032263e-38
0.5970042348 1.660966873 0 1.4198127e-38
0.6105424166 1.634705782 0 1.410593137e-38
0.6238847971 1.609299064 0 1.392154011e-38
0.6366915107 1.583815932 0 1.392154011e-38
0.6493480802 1.559188247 0 1.410593137e-38
0.6614940166 1.534492254 0 1.438251826e-38
0.6735349894 1.510650992 0 1.465910515e-38
0.685506165 1.487657666 0 1.51200833e-38
0.6974292397 1.462187529 0 1.530447456e-38
0.7077354789 1.438304424 0 1.548886582e-38
0.7184675336 1.416173935 0 1.502788767e-38
0.7292294502 1.394883752 0 1.484349641e-38
0.7395785451 1.373544097 0 1.429032263e-38
0.7500017285 1.353036046 0 1.401373574e-38
0.7600350976 1.332479954 0 1.373714885e-38
0.7691722512 1.311020255 0 1.382934448e-38
0.7789335251 1.29125011 0 1.392154011e-38
0.7888537049 1.272288799 0 1.401373574e-38
0.7995028496 1.254965782 0 1.429032263e-38
0.8092998266 1.236736894 0 1.456690952e-38
0.8197001219 1.216626763 0 1.502788767e-38
0.8284538984 1.197330356 0 1.567325708e-38
0.842069149 1.185341954 0 1.677960464e-38
0.8561032414 1.174008489 0 1.622643086e-38
0.88376683 1.180923939 0 1.410593137e-38
0.9190394878 1.196848869 0 1.299958381e-38
0.9585530162 1.216789722 0 1.226201877e-38
0.9980688691 1.23515296 0 1.180104062e-38
1.042011857 1.257338643 0 1.14322581e-38
0 0 0 0
0 0 0 0
0 0 0 0
0 0 0 0
0 0 0 0
0 0 0 0
2.233223915 2.24416256 0 8.481997947e-39
2.275332689 2.225836992 0 1.069469306e-38
2.312282085 2.201954126 0 1.023371491e-38
2.351197958 2.179519653 0 1.023371491e-38
2.393640041 2.159783363 0 1.014151928e-38
2.4382267 2.141278505 0 9.957128025e-39
2.479705334 2.1193645 0 4.609781493e-39
0 0 0 0
4.593454361 3.717049122 0 1.567325708e-39
0 0 0 0
0 0 0 0
0 0 0 0
0 0 0 0
0 0 0 0
0 0 0 0
4.835611343 3.25306797 0 1.567325708e-39
0 0 0 0
0 0 0 0
0 0 0 0
2.052689075 1.237771034 0 1.843912597e-39
2.063555479 1.209711671 0 2.397086376e-39
2.079375267 1.180287838 0 2.304890747e-39
0 0 0 0
2.103970289 1.125301957 0 6.269302831e-39
2.110843658 1.095090508 0 1.060249743e-38
2.113717318 1.063087225 0 5.531737792e-39
5.207602024 2.537662745 0 8.481997947e-39
5.247218609 2.475863934 0 5.439542162e-39
0 0 0 0
0 0 0 0
5.344164371 2.279474497 0 3.503433935e-39
5.364989281 2.209093571 0 5.070759642e-39
4.536244869 1.738575101 0 3.872216454e-39
5.392325401 2.141502619 0 5.162955272e-39
4.566177845 1.684550405 0 4.056607714e-39
4.595467567 1.630047083 0 4.056607714e-39
4.623160362 1.574751019 0 4.148803344e-39
4.64923811 1.518705368 0 4.148803344e-39
4.676545143 1.462849975 0 3.964412084e-39
4.702222347 1.406260848 0 3.872216454e-39
4.72625351 1.348982692 0 3.687825195e-39
5.733629704 1.481747627 0 3.042455785e-39
5.707802296 1.551843166 0 2.120499487e-39
5.764422894 1.412675738 0 3.319042675e-39
5.801203251 1.344644189 0 3.503433935e-39
5.835448742 1.27446723 0 3.687825195e-39
5.871153355 1.207309127 0 3.964412084e-39
5.910011768 1.140228987 0 4.240998974e-39
5.947120667 1.072198391 0 4.333194604e-39
5.978513241 1.00260675 0 4.240998974e-39
6.008103371 0.9322511554 0 3.964412084e-39
6.039834023 0.8617454767 0 3.595629565e-39
6.06478548 0.7898316979 0 1.843912597e-39
5.383757114 0.6343509555 0 2.581477636e-39
5.413977623 0.57094419 0 5.808324681e-39
0.9518818855 0.08863860369 0 1.069469306e-38
0.9459165335 0.07643882185 0 1.954547353e-38
0.9408274293 0.06397440284 0 2.12971905e-38
0.9395051003 0.05302010104 0 2.175816865e-38
0.9380555153 0.04210477322 0 2.203475554e-38
0.9374789 0.0312632136 0 2.22191468e-38
0.9387765527 0.02048415877 0 2.203475554e-38
0.9459497929 0.009741644375 0 2.175816865e-38
